<svg width="493" height="579" viewBox="0 0 493 579" fill="none" xmlns="http://www.w3.org/2000/svg">
<g clip-path="url(#clip0)">
<path d="M474.453 550.902C474.453 546.279 477.69 543.992 482.132 543.992H486.633V557.318H482.132C477.763 557.33 474.453 555.464 474.453 550.902ZM464.126 578.398H471.444L476.788 567.046C478.413 563.566 479.604 562.543 480.808 562.543H486.633V578.398H493V538.827H481.241C473.622 538.827 467.917 542.848 467.917 550.529C467.917 554.971 470.204 558.631 474.706 560.196V560.316C473.141 561.159 472.19 562.591 470.686 565.541L464.126 578.398ZM420.292 578.398H425.876L443.461 554.983C445.446 552.467 446.939 550.3 448.263 548.434H448.383C448.263 550.179 448.263 552.214 448.263 554.802V578.398H454.57V538.827H448.383L431.461 561.339C429.415 563.976 427.862 566.143 426.598 568.069H426.478C426.538 565.962 426.598 563.747 426.598 561.279V538.827H420.292V578.398ZM390.551 578.398H396.858V544.172H410.302L412.107 538.827H390.563V578.398H390.551ZM359.619 573.655C351.82 573.655 346.596 568.009 346.596 558.763C346.596 549.517 351.82 543.811 359.619 543.811C367.719 543.811 372.642 549.818 372.642 558.763C372.642 568.021 367.418 573.655 359.619 573.655ZM359.619 579C370.908 579 379.309 571.018 379.309 558.763C379.309 546.881 371.209 538.466 359.619 538.466C348.089 538.466 339.868 546.748 339.868 558.763C339.868 570.958 348.149 579 359.619 579ZM298.068 578.699C301.666 578.699 304.435 577.435 306.589 574.197C310.549 568.129 313.197 554.261 314.087 543.992H322.368V578.398H328.735V538.827H308.804C307.841 549.698 305.446 564.349 301.835 570.043C300.631 571.969 299.079 572.8 297.394 572.8C297.153 572.8 296.732 572.8 296.13 572.68V578.506C296.744 578.699 297.706 578.699 298.068 578.699ZM269.35 573.655C261.551 573.655 256.327 568.009 256.327 558.763C256.327 549.517 261.551 543.811 269.35 543.811C277.45 543.811 282.373 549.818 282.373 558.763C282.373 568.021 277.161 573.655 269.35 573.655ZM269.35 579C280.64 579 289.041 571.018 289.041 558.763C289.041 546.881 280.941 538.466 269.35 538.466C257.82 538.466 249.599 546.748 249.599 558.763C249.599 570.958 257.892 579 269.35 579ZM224.372 578.398H230.679V544.172H241.427L243.232 538.827H212.914V544.172H224.384V578.398H224.372ZM184.666 563.097L187.904 554.092C189.107 550.914 189.709 549.108 190.07 547.724H190.19C190.612 549.048 191.213 550.842 192.297 554.092L195.534 563.097H184.666ZM172.425 578.398H179.033L182.812 568.249H197.46L201.36 578.398H208.148L192.477 538.658H187.615L172.425 578.398ZM124.86 578.398H131.167V554.923C131.167 553.358 131.167 551.082 131.046 549.397H131.167C131.949 550.902 133.032 552.395 133.863 553.598L143.166 567.166H146.163L154.624 553.899C155.347 552.756 156.731 550.661 157.381 549.337H157.441C157.381 551.082 157.381 553.297 157.381 555.043V578.398H163.687V538.827H157.862L148.077 554.08C146.693 556.307 145.622 558.101 144.779 559.666H144.659C143.696 558.041 142.673 556.548 141.241 554.321L130.613 538.827H124.848V578.398H124.86ZM93.9277 573.655C86.1285 573.655 80.9049 568.009 80.9049 558.763C80.9049 549.517 86.1285 543.811 93.9277 543.811C102.028 543.811 106.95 549.818 106.95 558.763C106.95 568.021 101.727 573.655 93.9277 573.655ZM93.9277 579C105.217 579 113.618 571.018 113.618 558.763C113.618 546.881 105.518 538.466 93.9277 538.466C82.3974 538.466 74.1769 546.748 74.1769 558.763C74.1769 570.958 82.4575 579 93.9277 579ZM48.9498 578.398H55.2565V544.172H66.0045L67.8099 538.827H37.4796V544.172H48.9498V578.398ZM29.9572 571.018C27.201 572.583 24.192 573.655 20.3526 573.655C11.9516 573.655 6.72803 567.587 6.72803 558.883C6.72803 550.661 11.7711 543.811 20.6535 543.811C24.5531 543.811 27.7306 544.774 30.6794 546.327V540.44C28.3925 539.357 24.7938 538.454 20.5331 538.454C8.1603 538.478 0 547.603 0 559.076C0 570.669 7.07707 579.012 19.6305 579.012C23.4699 579.012 27.55 578.29 31.6904 576.014L29.9572 571.018ZM458.782 479.223C458.782 474.601 462.02 472.313 466.461 472.313H470.962V485.64H466.461C462.08 485.64 458.782 483.786 458.782 479.223ZM448.455 506.72H455.773L461.117 495.367C462.742 491.888 463.933 490.865 465.137 490.865H470.962V506.72H477.329V467.149H465.57C457.952 467.149 452.247 471.17 452.247 478.85C452.247 483.293 454.534 486.952 459.035 488.517V488.638C457.47 489.48 456.519 490.913 455.015 493.863L448.455 506.72ZM418.354 491.407L421.591 482.402C422.795 479.223 423.397 477.418 423.758 476.033H423.878C424.299 477.358 424.901 479.151 425.984 482.402L429.222 491.407H418.354ZM406.113 506.72H412.721L416.5 496.571H431.148L435.047 506.72H441.836L426.165 466.98H421.303L406.113 506.72ZM369.717 506.72H376.024V489.372H381.729C382.932 489.372 384.244 490.456 385.929 493.935L392.296 506.72H399.554L391.755 491.948C390.19 488.951 388.758 487.205 386.952 486.543V486.423C390.912 484.135 391.875 477.538 393.74 474.239C394.342 473.156 395.185 472.494 396.617 472.494C397.279 472.494 397.941 472.614 398.844 472.915V467.329C397.881 466.968 396.509 466.788 395.486 466.788C392.308 466.788 390.202 468.292 388.818 470.929C386.122 476.334 385.64 484.195 379.755 484.195H376.036V467.149H369.729V506.72H369.717ZM356.249 499.328C353.493 500.893 350.484 501.965 346.644 501.965C338.243 501.965 333.02 495.897 333.02 487.193C333.02 478.971 338.063 472.121 346.945 472.121C350.845 472.121 354.022 473.084 356.971 474.637V468.75C354.684 467.666 351.085 466.763 346.825 466.763C334.464 466.763 326.292 475.889 326.292 487.362C326.292 498.955 333.369 507.298 345.922 507.298C349.762 507.298 353.842 506.575 357.982 504.3L356.249 499.328ZM299.5 487.626V472.313H301.835C304.182 472.313 305.855 472.735 307.119 473.457C309.345 474.781 310.416 477.117 310.416 479.946C310.416 483.124 309.273 485.472 306.878 486.615C305.674 487.277 304.061 487.639 301.895 487.639H299.5V487.626ZM293.193 506.72H299.5V492.791H301.486C305.024 492.791 307.672 492.249 309.766 491.346C315.05 489.119 317.024 484.557 317.024 479.934C317.024 474.709 314.737 470.929 310.838 468.882C308.563 467.678 305.795 467.137 302.015 467.137H293.193V506.72ZM260.335 491.407L263.573 482.402C264.776 479.223 265.378 477.418 265.739 476.033H265.86C266.281 477.358 266.883 479.151 267.966 482.402L271.204 491.407H260.335ZM248.095 506.72H254.702L258.482 496.571H273.129L277.029 506.72H283.817L268.146 466.98H263.284L248.095 506.72ZM205.211 506.72H234.506V517.832H240.633V501.326H235.59V467.161H229.283V501.326H211.518V467.161H205.211V506.72ZM171.932 465.295C178.6 465.295 182.319 461.274 182.199 455.688H176.855C176.855 458.385 175.531 460.612 171.932 460.612C168.273 460.612 166.949 458.385 166.949 455.688H161.665C161.485 461.274 165.156 465.295 171.932 465.295ZM154.649 506.72H160.233L177.818 483.305C179.803 480.788 181.296 478.622 182.62 476.756H182.74C182.62 478.501 182.62 480.536 182.62 483.124V506.72H188.927V467.149H182.74L165.818 489.661C163.772 492.297 162.219 494.464 160.955 496.391H160.835C160.895 494.284 160.955 492.069 160.955 489.601V467.149H154.649V506.72ZM118.734 506.72H139.856V501.375H125.028V489.252H137.81V483.907H125.028V472.494H137.871L139.676 467.149H118.734V506.72ZM85.2137 483.967V472.373H88.9328C93.6749 472.373 95.721 474.829 95.721 478.14C95.721 481.679 93.3861 483.967 88.9328 483.967H85.2137ZM85.2137 501.495V489.192H90.9187C95.2998 489.192 98.1162 491.479 98.1162 495.259C98.1162 499.701 95.1794 501.507 90.2568 501.507H85.2137V501.495ZM78.907 506.72H90.7863C99.8493 506.72 104.531 501.495 104.531 495.187C104.531 490.444 101.595 486.663 96.9728 485.58V485.46C100.15 484.015 101.956 480.837 101.956 477.177C101.956 471.952 98.1763 467.149 89.7151 467.149H78.907V506.72ZM17.1751 506.72H62.6706V467.149H56.3037V501.314H43.0522V467.149H36.7454V501.314H23.4819V467.149H17.1751V506.72Z" fill="#00A0E3"/>
<path d="M81.242 280.706C76.873 280.429 72.4317 281.729 68.7849 283.282C69.9885 284.245 71.1078 285.28 72.2392 286.316C73.7918 287.748 75.3564 289.193 76.9813 290.168C79.1598 291.468 81.3984 292.191 83.5408 292.419C85.7313 292.66 87.8135 292.371 89.5828 291.649C91.5085 290.866 94.1083 290.12 96.6478 289.494C92.4353 285.509 86.5618 281.043 81.242 280.706ZM78.8348 95.8278C78.4737 104.002 81.6873 112.249 84.7685 118.172C86.5618 115.234 88.8005 112.73 91.0512 110.202C93.1213 107.867 95.2156 105.519 96.708 102.919C98.706 99.4274 99.7892 95.876 100.09 92.5172C100.403 88.9778 99.8734 85.6311 98.6458 82.7659C97.0932 79.1422 95.6007 73.7128 94.4694 69.102C88.1385 75.5427 79.2561 86.233 78.8348 95.8278ZM148.907 77.8782C154.48 70.4142 156.598 60.5425 157.381 53.1869C153.782 54.9204 150.015 55.8715 146.223 56.8346C142.926 57.6652 139.592 58.508 136.619 59.9646C132.671 61.8908 129.482 64.4791 127.099 67.3925C124.607 70.4383 123.006 73.8332 122.356 77.1799C121.502 81.5741 119.372 87.7499 117.506 92.7098C127.171 90.8318 142.408 86.5942 148.907 77.8782ZM137.124 121.615C141.289 114.969 142.528 106.602 142.769 100.15C139.893 101.715 136.86 102.75 133.802 103.785C130.938 104.761 128.037 105.748 125.546 107.241C122.224 109.215 119.612 111.695 117.759 114.404C115.821 117.221 114.678 120.29 114.341 123.264C113.931 127.02 112.631 132.245 111.392 136.651C119.793 134.207 132.226 129.44 137.124 121.615ZM61.0218 263.382C67.7378 264.887 75.0074 263.599 80.5559 261.949C78.5219 260.023 76.8248 257.856 75.1037 255.677C73.3826 253.486 71.6494 251.283 69.6394 249.61C66.9554 247.371 64.0548 245.89 61.1662 245.107C58.1572 244.289 55.2084 244.229 52.5846 244.843C49.3711 245.589 44.7734 246.046 40.6932 246.335C45.4113 252.8 53.0661 261.6 61.0218 263.382ZM47.4092 199.192C52.8976 203.827 60.2635 206.102 66.149 207.222C65.1741 204.441 64.6325 201.6 64.0909 198.734C63.5613 195.941 63.0317 193.124 61.9846 190.596C60.6005 187.262 58.6387 184.517 56.388 182.434C54.0169 180.243 51.3449 178.774 48.673 178.088C45.315 177.221 40.8015 175.416 36.914 173.718C38.1176 181.868 40.9219 193.702 47.4092 199.192ZM53.8003 149.653C57.76 156.816 64.813 162.161 70.5421 165.592C70.5421 162.149 71.1319 158.838 71.7337 155.504H71.7577C72.3114 152.434 72.865 149.328 72.7687 146.318C72.6484 142.357 71.6975 138.77 70.181 135.7C68.5923 132.486 66.3897 129.909 63.8863 128.14C60.6366 125.84 56.5203 122 53.1503 118.665C51.1283 127.465 49.1544 141.226 53.8123 149.641V149.653H53.8003ZM123.512 198.253C125.907 190.765 125.04 182.338 123.68 176.029C121.273 178.257 118.601 180.014 115.893 181.772L115.905 181.784C113.342 183.457 110.766 185.143 108.756 187.153C106.024 189.886 104.122 192.932 102.979 196.026C101.787 199.252 101.426 202.515 101.847 205.476C102.377 209.22 102.413 214.577 102.305 219.152C109.863 214.722 120.707 207.029 123.512 198.253ZM121.032 310.429C121.032 303.23 146.115 311.693 157.068 308.118V308.021C157.044 305.144 157.092 303.724 155.9 302.544C153.77 300.425 149.244 300.028 144.49 300.028C138.027 300.028 130.721 301.015 124.595 302.857C116.495 305.289 109.743 307.311 102.678 308.527C95.4924 309.755 88.1626 310.116 79.1718 309.129C73.9844 308.563 66.8471 307.058 60.7449 304.073C61.792 305.758 63.0077 307.395 64.3677 308.973C69.1098 314.438 75.4407 318.929 82.0604 321.228C85.2258 322.335 88.4394 322.913 91.5206 322.853L101.378 322.636L95.8174 330.799C91.7011 336.842 84.4315 343.223 76.6082 347.135C72.3234 349.278 67.81 350.735 63.4771 351.072L63.3687 351.084C66.3175 352.155 69.5792 352.709 72.7808 352.805C73.527 352.829 74.2732 352.829 75.0194 352.793C80.7004 352.589 86.5979 351.662 92.1224 350.434C99.8253 348.724 106.818 346.425 111.56 344.643C115.953 342.994 119.624 341.814 123.307 341.056L121.718 316.208L121.032 310.429ZM410.663 280.706C405.343 281.043 399.482 285.509 395.257 289.494C397.797 290.132 400.396 290.878 402.322 291.649C404.091 292.371 406.174 292.66 408.364 292.419C410.506 292.191 412.745 291.468 414.924 290.168C416.548 289.193 418.113 287.748 419.666 286.316C420.797 285.28 421.916 284.233 423.12 283.282C419.473 281.729 415.032 280.429 410.663 280.706ZM413.082 95.8278C412.661 86.233 403.778 75.5427 397.46 69.0899C396.328 73.7008 394.824 79.1422 393.283 82.7538C392.056 85.619 391.526 88.9658 391.839 92.5052C392.14 95.864 393.223 99.4154 395.221 102.907C396.701 105.507 398.808 107.854 400.878 110.19C403.128 112.718 405.355 115.234 407.16 118.16C410.242 112.249 413.443 104.002 413.082 95.8278ZM343.009 77.8782C349.509 86.5821 364.746 90.8198 374.399 92.7098C372.533 87.7499 370.403 81.5741 369.548 77.1799C368.899 73.8211 367.298 70.4383 364.806 67.3925C362.423 64.4791 359.234 61.9029 355.286 59.9646C352.301 58.508 348.979 57.6652 345.681 56.8346C341.89 55.8835 338.135 54.9325 334.524 53.1869C335.319 60.5425 337.437 70.4142 343.009 77.8782ZM354.793 121.615C359.691 129.44 372.112 134.219 380.525 136.651C379.285 132.233 377.998 127.02 377.576 123.264C377.251 120.278 376.108 117.221 374.158 114.404C372.293 111.695 369.693 109.215 366.371 107.241C363.88 105.76 360.979 104.773 358.114 103.785C355.057 102.738 352.024 101.703 349.148 100.15C349.388 106.602 350.628 114.969 354.793 121.615ZM430.883 263.382C438.839 261.588 446.506 252.8 451.212 246.323C447.132 246.046 442.522 245.577 439.32 244.83C436.696 244.229 433.748 244.289 430.739 245.095C427.85 245.878 424.937 247.359 422.265 249.598C420.255 251.283 418.522 253.486 416.801 255.665C415.092 257.844 413.383 260.011 411.349 261.937C416.897 263.599 424.167 264.899 430.883 263.382ZM444.496 199.192C450.995 193.702 453.799 181.868 454.991 173.706C451.103 175.403 446.602 177.209 443.232 178.076C440.56 178.762 437.888 180.231 435.517 182.422C433.254 184.505 431.304 187.25 429.92 190.584C428.873 193.1 428.344 195.929 427.814 198.722C427.272 201.588 426.731 204.429 425.756 207.21C431.653 206.102 439.019 203.827 444.496 199.192ZM438.117 149.653V149.629C442.775 141.214 440.801 127.465 438.779 118.653C435.409 121.988 431.292 125.816 428.043 128.128C425.539 129.897 423.349 132.474 421.748 135.688C420.219 138.758 419.281 142.345 419.16 146.306C419.064 149.316 419.63 152.422 420.171 155.492H420.195C420.785 158.826 421.387 162.137 421.387 165.58C427.104 162.161 434.157 156.816 438.117 149.653ZM368.393 198.253C371.197 207.029 382.054 214.722 389.6 219.164C389.492 214.589 389.528 209.232 390.058 205.488C390.479 202.527 390.118 199.264 388.926 196.038C387.783 192.944 385.881 189.898 383.149 187.165C381.139 185.155 378.563 183.469 376 181.796L376.012 181.784C373.304 180.014 370.632 178.269 368.225 176.042C366.864 182.338 365.998 190.765 368.393 198.253ZM370.884 310.429L370.186 316.184L368.598 341.032C372.281 341.778 375.952 342.97 380.345 344.619C385.099 346.401 392.08 348.7 399.783 350.41C405.307 351.638 411.204 352.565 416.885 352.769C417.632 352.793 418.378 352.805 419.124 352.781C422.326 352.685 425.587 352.119 428.536 351.06L428.428 351.048C424.083 350.711 419.581 349.254 415.297 347.111C407.461 343.198 400.204 336.818 396.087 330.775L390.527 322.612L400.384 322.829C403.465 322.901 406.667 322.311 409.844 321.204C416.464 318.904 422.807 314.414 427.537 308.948C428.897 307.371 430.125 305.734 431.16 304.049C425.058 307.046 417.933 308.539 412.745 309.105C403.742 310.092 396.424 309.731 389.239 308.503C382.174 307.287 375.422 305.265 367.322 302.833C361.196 300.991 353.89 300.004 347.427 300.004C342.672 300.004 338.147 300.401 336.017 302.52C334.837 303.7 334.885 305.12 334.849 307.997V308.094C345.802 311.705 370.884 303.23 370.884 310.429ZM360.582 247.383C360.329 248.912 359.968 250.404 359.607 251.909C359.113 253.944 358.62 256.002 358.56 257.904C358.488 260.445 358.945 262.768 359.787 264.754C360.654 266.789 361.918 268.462 363.398 269.654C365.011 270.942 366.937 272.857 368.73 274.771C370.15 269.137 371.209 261.817 368.911 257.014C367.021 253.065 363.723 249.815 360.582 247.383ZM240.332 346.714L245.989 349.302L251.645 346.714C291.364 328.559 332.406 304.157 339.062 256.135C341.252 240.256 339.772 224.858 337.798 209.064C333.453 174.308 335.451 163.425 348.149 144.416C334.44 135.989 328.759 126.96 324.715 101.968C261.984 91.8069 230.005 91.8069 167.262 101.968C163.218 126.96 163.856 132.173 144.839 146.162C154.757 166.88 158.368 175.68 154.191 209.052C152.217 224.834 150.737 240.244 152.927 256.123C159.607 304.542 200.65 328.391 240.332 346.714ZM213.841 339.202C202.226 332.797 191.009 325.466 181.188 316.737C164.193 301.641 151.423 282.451 147.884 256.833C146.741 248.575 146.56 240.448 146.91 232.346C147.271 224.22 148.137 216.359 149.124 208.45C151.146 192.27 151.303 182.169 149.786 173.778C148.282 165.46 145.02 158.357 140.242 148.377L138.424 144.584L141.818 142.092C157.645 130.451 158.428 125.455 161.353 106.807C161.677 104.748 162.014 102.569 162.243 101.197L162.833 97.5614L166.468 96.9715C198.158 91.831 222.085 89.2668 245.989 89.2668C269.892 89.2668 293.819 91.831 325.509 96.9715L329.144 97.5614L329.734 101.197C331.648 113.067 333.91 121.049 337.22 126.924C340.374 132.486 344.67 136.326 350.809 140.106L355.31 142.875L352.361 147.281C346.428 156.166 342.997 163.088 341.589 171.684C340.145 180.544 340.723 191.559 342.841 208.474C343.828 216.383 344.694 224.244 345.056 232.37C345.417 240.473 345.224 248.599 344.081 256.857C340.542 282.475 327.772 301.665 310.777 316.762C300.956 325.49 289.751 332.821 278.136 339.226C292.002 338.455 305.301 337.179 317.289 335.397C321.525 333.279 325.642 330.991 329.65 328.523C329.698 319.494 329.746 308.985 329.782 303.254C329.794 302.086 329.89 301.376 329.987 300.871C330.059 300.509 330.023 300.329 330.384 299.739C333.766 294.033 352.229 293.695 366.443 297.367C368.477 295.044 370.439 292.66 372.329 290.216C369.609 287.134 367.803 283.643 366.648 280.044C364.59 277.756 362.146 275.192 360.221 273.651C356.116 270.365 353.288 264.658 353.481 257.796C353.685 250.934 357.717 245.119 354.72 237.872C354.72 237.872 368.321 244.048 373.496 254.871C377.396 263.033 373.893 275.987 371.944 281.849C372.738 283.547 373.737 285.184 374.977 286.701C379.996 279.851 384.473 272.604 388.372 264.983C387.47 259.325 383.919 243.133 372.172 235.573C370.872 237.078 368.935 238.005 366.804 237.956C363.001 237.872 359.98 234.718 360.076 230.914C360.161 227.11 363.314 224.088 367.117 224.184C370.921 224.268 373.942 227.423 373.845 231.227C373.833 231.552 373.809 231.865 373.761 232.178C384.425 238.799 389.095 251.512 391.057 259.494C394.739 251.548 397.797 243.253 400.144 234.658C396.196 232.334 393.151 229.18 390.816 225.701C383.125 221.536 367.394 211.772 363.567 199.83C358.463 183.855 366.383 164.508 366.395 164.508C370.295 174.765 379.984 176.824 386.772 183.626C393.56 190.416 396.136 198.951 395.113 206.235C394.427 211.158 394.655 219.309 394.872 224.076C396.581 226.459 398.687 228.614 401.275 230.324C404.248 218.129 405.824 205.404 405.824 192.294C405.824 190.079 405.776 187.851 405.68 185.648C402.406 178.979 393.488 163.69 378.888 159.308C377.937 161.378 376.096 163.028 373.713 163.654C369.476 164.773 365.143 162.245 364.024 158.008C362.905 153.77 365.432 149.436 369.669 148.316C373.905 147.197 378.238 149.725 379.358 153.963C379.454 154.324 379.526 154.685 379.562 155.034C391.381 158.369 399.819 167.964 404.97 175.801C403.911 165.508 401.853 155.371 398.844 145.548C392.32 146.33 386.17 144.621 380.886 142.044C371.823 139.54 356.574 134.051 350.496 124.347C341.589 110.13 344.502 89.4233 344.502 89.4233C350.809 98.3921 360.714 98.0068 368.971 102.907C377.227 107.806 381.837 115.439 382.643 122.758C383.161 127.441 385.243 134.713 386.615 139.372C386.736 139.793 386.651 139.865 387.133 140.034C390.31 141.093 393.716 141.659 397.243 141.418C397.315 141.346 397.387 141.286 397.448 141.214C397.291 140.744 397.135 140.275 396.966 139.805C391.803 124.961 384.461 110.876 375.109 98.055C364.915 96.189 346.765 91.4939 338.929 80.9842C327.724 65.9719 329.072 42.6651 329.072 42.6651C336.907 52.0793 347.884 50.731 357.525 55.4381C367.153 60.1452 372.931 68.2232 374.555 76.277C375.518 81.0684 377.673 89.339 379.959 93.071C380.525 93.998 380.766 94.8888 381.428 95.8038C390.058 107.927 396.978 121.085 402.057 134.917C403.61 131.823 404.452 128.489 404.838 125.202C402.081 117.196 394.956 112.754 390.804 105.507C385.905 96.9354 385.64 87.786 388.613 80.8277C391.586 73.8693 394.463 59.3747 394.463 59.3627C394.463 59.3627 417.415 78.444 418.173 95.6713C418.811 109.973 409.074 125.142 409.134 125.046C408.629 130.21 407.136 135.543 403.899 140.226C407.57 151.338 410.061 162.847 411.313 174.537C413.07 173.176 414.575 171.599 415.85 169.89C417.427 161.824 413.84 154.432 414.081 146.258C414.382 136.386 418.944 128.441 425.118 124.071C431.292 119.701 441.318 108.83 441.318 108.83C441.318 108.83 450.911 137.084 442.558 152.181C437.142 161.956 426.827 168.626 420.231 172.117C418.763 172.887 419.112 172.755 418.017 174.031C416.272 176.078 414.201 177.932 411.77 179.461C412.107 183.722 412.276 188.02 412.276 192.318C412.276 198.819 411.903 205.235 411.18 211.544C413.864 211.411 416.416 210.857 418.799 209.991C423.048 203.49 422.302 195.809 425.238 188.718C428.729 180.327 435.252 174.982 441.992 173.249C448.732 171.515 460.925 165.447 460.925 165.447C460.925 165.447 459.914 192.908 447.793 203.153C440.837 209.027 431.353 211.556 424.54 212.639C420.388 214.806 415.706 216.239 410.555 216.335C409.7 222.246 408.533 228.061 407.076 233.755C413.961 227.435 424.588 220.055 436.985 219.682C437.106 219.393 437.238 219.116 437.395 218.827C439.549 215.011 444.375 213.662 448.191 215.805C452.006 217.96 453.354 222.788 451.212 226.604C449.057 230.42 444.231 231.769 440.415 229.626C438.225 228.398 436.853 226.279 436.48 223.98C421.712 224.738 409.592 236.692 404.609 242.387C402.755 248.274 400.577 254.028 398.109 259.614C400.107 260.372 402.129 260.854 404.164 261.095C410.555 257.351 413.359 250.513 419.016 245.782C425.804 240.099 433.856 238.414 440.476 239.955C447.083 241.496 460.359 241.737 460.359 241.737C460.359 241.737 447.132 265.019 432.027 268.414C423.072 270.425 413.407 268.125 407.016 265.922C403.417 265.862 399.746 265.248 396.16 263.84C392.14 272.279 387.422 280.32 382.102 287.893C384.004 288.832 385.953 289.458 387.915 289.843C392.236 285.172 401.576 276.263 410.374 275.71C422.338 274.951 434.361 283.824 434.361 283.824C426.574 284.739 423.457 291.095 417.571 294.61C411.686 298.126 405.319 298.439 400.444 296.452C398.771 295.766 396.473 295.104 394.174 294.538C389.359 294.743 384.34 293.936 379.562 291.408C377.54 294.129 375.434 296.789 373.255 299.39C386.784 303.387 396.918 305.818 412.228 304.145C422.253 303.05 440.115 298.222 439.248 285.076C445.783 303.868 421.411 328.475 400.312 327.994C409.243 341.104 434.903 356.02 444.279 337.263C444.748 352.3 429.571 358.403 416.729 357.922C402.43 357.392 387.061 352.625 378.587 349.447C374.977 348.098 371.907 347.075 368.886 346.377C370.319 354.647 373.4 358.054 370.114 364.001C367.671 368.419 347.065 376.798 318.408 383.107C297.285 387.754 272.046 390.33 246.241 390.33C220.569 390.33 194.945 387.79 173.882 383.179C145.056 376.859 124.306 368.444 121.851 364.001C118.565 358.042 121.646 354.635 123.079 346.377C120.058 347.075 116.976 348.098 113.378 349.447C104.904 352.625 89.5467 357.392 75.2361 357.922C62.4059 358.403 47.2166 352.3 47.686 337.263C57.062 356.02 82.7224 341.104 91.653 327.994C70.5662 328.475 46.1816 303.868 52.717 285.076C51.8384 298.234 69.7116 303.05 79.7375 304.145C95.0471 305.818 105.181 303.387 118.71 299.39C116.531 296.801 114.425 294.141 112.403 291.408C107.625 293.924 102.618 294.731 97.7912 294.538C95.5044 295.116 93.2056 295.778 91.5206 296.452C86.6461 298.439 80.2911 298.126 74.3936 294.61C68.508 291.095 65.3787 284.739 57.6036 283.824C57.6036 283.824 69.6274 274.951 81.591 275.71C90.3892 276.263 99.729 285.172 104.05 289.843C106.012 289.47 107.962 288.832 109.863 287.893C104.531 280.308 99.8253 272.267 95.7933 263.84C92.2066 265.248 88.5357 265.862 84.937 265.922C78.558 268.125 68.8812 270.425 59.9385 268.414C44.8456 265.019 31.6062 241.737 31.6062 241.737C31.6062 241.737 44.8697 241.484 51.4894 239.955C58.097 238.414 66.149 240.099 72.9493 245.782C78.6061 250.513 81.4105 257.351 87.8015 261.095C89.8356 260.842 91.8696 260.372 93.8555 259.614C91.3882 254.028 89.2097 248.286 87.3562 242.387C82.3854 236.692 70.2532 224.738 55.4853 223.98C55.1122 226.279 53.7401 228.398 51.5496 229.626C47.7342 231.781 42.8958 230.42 40.7534 226.604C38.611 222.788 39.959 217.96 43.7744 215.805C47.5898 213.65 52.4282 215.011 54.5705 218.827C54.727 219.104 54.8594 219.393 54.9798 219.682C67.3767 220.055 77.9923 227.435 84.8888 233.755C83.4325 228.061 82.265 222.246 81.4105 216.335C76.2471 216.239 71.5651 214.806 67.4128 212.639C60.6005 211.556 51.1163 209.027 44.1595 203.153C32.0274 192.908 31.0284 165.447 31.0284 165.447C31.0284 165.447 43.2207 171.515 49.9608 173.249C56.7009 174.982 63.2243 180.327 66.7147 188.718C69.6635 195.809 68.9052 203.49 73.1539 209.991C75.537 210.857 78.0765 211.411 80.7726 211.544C80.0504 205.235 79.6773 198.819 79.6773 192.318C79.6773 188.02 79.8458 183.722 80.1708 179.461C77.7275 177.92 75.8258 175.909 73.9121 174.019C72.6002 172.719 72.5641 172.586 70.9754 171.72C64.3677 168.132 54.5946 161.595 49.3831 152.181C41.0302 137.096 50.6228 108.83 50.6228 108.83C50.6228 108.83 60.6246 119.628 66.799 123.998C72.9733 128.368 77.5349 136.314 77.8358 146.186C78.0886 154.372 74.4899 161.752 76.0666 169.818C77.3544 171.527 78.8468 173.104 80.6041 174.464C81.8678 162.775 84.3592 151.266 88.0181 140.154C84.7925 135.471 83.3001 130.138 82.7826 124.973C82.8427 125.07 73.1057 109.901 73.7436 95.5991C74.5139 78.3718 97.4542 59.3025 97.4542 59.2905C97.4542 59.2905 100.319 73.7971 103.304 80.7554C106.277 87.7138 106.012 96.8632 101.113 105.435C96.9608 112.682 89.8356 117.136 87.0793 125.13C87.4645 128.429 88.307 131.751 89.8596 134.845C94.9989 120.856 102.064 107.554 110.814 95.2981C111.344 94.5517 111.464 94.2989 111.789 93.4562C113.751 88.424 116.423 81.0805 117.362 76.2048C118.926 68.1389 124.752 60.073 134.392 55.3659C144.021 50.6587 154.998 52.0071 162.845 42.5928C162.845 42.5928 164.193 65.8997 152.988 80.9119C145.152 91.4217 127.002 96.1047 116.808 97.9828C107.456 110.804 100.114 124.889 94.9508 139.733C94.7943 140.202 94.6258 140.672 94.4694 141.141C94.5416 141.214 94.6018 141.274 94.674 141.346C98.2005 141.599 101.607 141.021 104.784 139.962C105.266 139.805 105.181 139.721 105.302 139.299C106.674 134.641 108.756 127.369 109.273 122.686C110.08 115.367 114.69 107.746 122.946 102.834C131.203 97.9226 141.096 98.3198 147.415 89.351C147.415 89.351 150.316 110.058 141.421 124.275C135.343 133.99 120.094 139.468 111.031 141.972C105.747 144.56 99.5966 146.258 93.0732 145.475C90.0763 155.299 88.0181 165.423 86.947 175.729C92.0983 167.879 100.523 158.297 112.355 154.962C112.403 154.601 112.463 154.239 112.559 153.89C113.679 149.653 118.011 147.137 122.248 148.244C126.485 149.364 129.012 153.698 127.893 157.935C126.774 162.173 122.441 164.701 118.204 163.581C115.821 162.955 113.979 161.306 113.029 159.236C98.4292 163.606 89.5106 178.907 86.2368 185.576C86.1406 187.791 86.1044 190.006 86.1044 192.221C86.1044 205.332 87.6811 218.069 90.654 230.252C93.2417 228.542 95.3359 226.387 97.0571 224.004C97.2857 219.236 97.5144 211.086 96.8163 206.162C95.7933 198.867 98.369 190.343 105.157 183.554C111.945 176.764 121.634 174.693 125.534 164.436C125.534 164.448 133.465 183.782 128.362 199.758C124.535 211.712 108.804 221.475 101.125 225.629C98.7902 229.12 95.7451 232.274 91.7974 234.586C94.1564 243.181 97.2015 251.476 100.884 259.421C102.834 251.428 107.504 238.715 118.18 232.106C118.132 231.793 118.096 231.48 118.096 231.155C118.011 227.35 121.02 224.196 124.824 224.112C128.627 224.028 131.78 227.037 131.865 230.842C131.949 234.646 128.94 237.8 125.137 237.884C122.994 237.932 121.069 237.005 119.769 235.501C108.022 243.061 104.471 259.253 103.568 264.911C107.456 272.519 111.945 279.779 116.964 286.629C118.204 285.1 119.203 283.475 120.009 281.777C118.06 275.914 114.557 262.961 118.457 254.799C123.62 243.976 137.221 237.8 137.233 237.8C134.236 245.047 138.268 250.874 138.472 257.724C138.677 264.586 135.837 270.292 131.732 273.579C129.819 275.12 127.363 277.684 125.305 279.971C124.15 283.571 122.344 287.062 119.624 290.144C121.514 292.588 123.476 294.972 125.51 297.295C138.581 293.924 155.226 293.936 160.462 298.391C162.64 300.245 162.171 303.375 162.183 305.939C162.219 311.91 162.267 320.722 162.303 328.451C166.311 330.919 170.44 333.218 174.664 335.325C186.64 337.155 199.951 338.431 213.841 339.202ZM238.213 351.325C233.664 349.242 229.066 347.075 224.493 344.776C204.742 344.065 185.677 342.368 169.308 339.683C152.097 336.854 137.738 332.749 128.266 327.295C128.507 330.486 128.687 333.965 128.759 337.613C128.892 345.281 127.52 350.121 126.437 353.973C125.582 357.007 124.992 359.114 126.292 361.473C128.17 364.88 147.403 372.067 174.736 378.075C195.522 382.649 220.846 385.153 246.229 385.153C271.601 385.153 296.419 382.637 317.205 378.075C344.538 372.067 363.759 364.88 365.649 361.473C366.949 359.114 366.359 357.019 365.492 353.973C364.409 350.121 363.037 345.281 363.169 337.613C363.23 333.965 363.422 330.486 363.663 327.295C354.191 332.737 339.82 336.854 322.621 339.671C306.264 342.356 287.211 344.053 267.485 344.764C262.911 347.051 258.313 349.23 253.764 351.313L248.107 353.901L246.001 354.864L243.894 353.901L238.213 351.325ZM270.084 234.321L265.198 239.208V243.651L274.526 234.321H270.084ZM280.218 234.321L265.198 249.345V253.787L284.66 234.321H280.218ZM269.832 254.847L265.342 259.337C265.438 260.746 265.595 262.07 265.8 263.322L270.638 258.482C270.144 257.375 269.856 256.159 269.832 254.847ZM280.844 243.831L277.835 246.841C278.774 246.913 279.617 247.118 280.387 247.431C280.399 246.263 280.555 245.047 280.844 243.831ZM290.208 234.465L290.148 234.525C290.834 235.284 291.472 236.139 292.062 237.054L294.192 234.923C292.94 234.718 291.616 234.562 290.208 234.465ZM273.045 261.757L266.931 267.872C267.304 268.968 267.737 270.003 268.243 271.003L275.645 263.599C274.694 263.093 273.815 262.479 273.045 261.757ZM298.754 236.042L293.975 240.822C294.421 241.941 294.77 243.085 295.011 244.229L301.883 237.354C300.884 236.861 299.849 236.415 298.754 236.042ZM280.917 314.703L316.952 278.659C313.726 284.57 309.742 289.939 305.205 294.851L299.62 300.437C293.903 305.722 287.56 310.429 280.917 314.703ZM258.06 327.416L323.499 261.949C322.946 264.128 322.296 266.259 321.562 268.33L267.184 322.709C264.163 324.358 261.106 325.923 258.06 327.416ZM181.368 114.68L179.117 116.932C179.25 116.282 179.382 115.631 179.478 114.981C180.116 114.885 180.742 114.777 181.368 114.68ZM193.247 112.935L169.465 136.723C170.03 136.061 170.56 135.387 171.065 134.725C173.136 131.992 174.989 128.754 176.47 125.274L188.072 113.669C189.793 113.416 191.514 113.176 193.247 112.935ZM221.833 195.821H217.391L226.719 186.491V190.933L221.833 195.821ZM211.698 195.821H207.257L226.719 176.355V180.797L211.698 195.821ZM212.649 184.733C212.168 184.336 211.747 183.963 211.373 183.542C212.084 183.012 212.565 182.205 212.673 181.278C212.709 181.266 212.758 181.266 212.794 181.254C217.668 180.05 222.085 176.33 222.085 170.949V170.853L226.105 166.832C226.31 168.084 226.466 169.408 226.563 170.817L212.649 184.733ZM201.709 195.677C200.3 195.58 198.977 195.424 197.725 195.219L200.349 192.595C200.806 193.606 201.396 194.569 202.07 195.315L201.709 195.677ZM220.966 166.29C220.424 165.363 219.69 164.605 218.763 164.051L223.686 159.127C224.192 160.126 224.625 161.162 224.998 162.257L220.966 166.29ZM193.163 194.1C192.068 193.726 191.021 193.293 190.034 192.787L194.174 188.646C194.583 189.344 195.294 189.814 196.148 189.91C196.521 189.946 196.906 189.97 197.316 189.958L193.163 194.1ZM170.066 172.213L233.182 109.082C234.735 108.998 236.276 108.938 237.828 108.878L170.512 176.21C170.391 174.874 170.247 173.537 170.066 172.213ZM168.357 163.798L222.326 109.817C223.469 109.72 224.625 109.636 225.768 109.552L227.128 109.456L169.2 167.398C168.935 166.194 168.658 164.99 168.357 163.798ZM165.974 156.045L211.193 110.828C212.83 110.659 214.467 110.503 216.104 110.359L167.094 159.38C166.745 158.248 166.371 157.141 165.974 156.045ZM162.941 148.93L199.771 112.092C201.456 111.887 203.129 111.683 204.814 111.502L164.349 151.976C163.904 150.941 163.435 149.93 162.941 148.93ZM301.955 247.419L325.245 224.124C325.124 222.776 324.992 221.427 324.847 220.079L307.335 237.595C307.299 238.703 307.239 239.822 307.143 240.954C306.565 240.448 305.987 239.979 305.397 239.533L298.116 246.817C298.332 246.805 298.549 246.793 298.778 246.793C299.993 246.805 301.053 247.022 301.955 247.419ZM305.891 253.619L325.882 233.622C325.822 232.214 325.75 230.805 325.654 229.409L304.904 250.164C305.458 251.163 305.783 252.331 305.891 253.619ZM298.031 271.617L325.931 243.711C325.979 242.206 326.003 240.701 326.003 239.196L296.635 268.571C296.78 268.691 296.936 268.812 297.093 268.932C297.935 269.582 298.284 270.593 298.031 271.617ZM192.441 180.243C193.344 180.676 194.307 181.013 195.282 181.254C195.318 181.266 195.366 181.278 195.402 181.278C195.414 181.411 195.438 181.531 195.462 181.652L186.531 190.584C185.942 190.139 185.364 189.669 184.786 189.164C184.69 190.295 184.63 191.415 184.594 192.522L168.49 208.63C168.706 206.957 168.923 205.259 169.14 203.538L192.441 180.243ZM187.121 175.428C187.627 176.355 188.289 177.197 189.059 177.932L169.874 197.121C170.042 195.496 170.199 193.859 170.331 192.221L187.121 175.428ZM167.996 212.519H170.295L184.714 198.084C184.81 199.433 184.967 200.769 185.159 202.081L174.736 212.507H180.429L186.086 206.848C186.363 208.028 186.676 209.184 187.037 210.34L184.871 212.507H243.413V153.951L241.246 156.118C240.091 155.768 238.923 155.455 237.756 155.166L243.413 149.508V143.814L232.99 154.239C231.666 154.047 230.342 153.89 228.994 153.794L243.425 139.372V133.677L223.445 153.662C222.338 153.686 221.219 153.758 220.087 153.854C220.593 154.432 221.062 155.01 221.508 155.6L213.985 163.124C213.095 163.208 212.288 163.413 211.554 163.714C211.542 162.931 211.47 162.137 211.337 161.342L243.425 129.247V123.553L210.074 156.912C209.652 155.889 209.159 154.878 208.605 153.939L243.425 119.111V113.416L206.186 150.652C206.102 150.556 206.018 150.471 205.933 150.387C205.416 149.857 204.778 149.581 204.044 149.581C203.297 149.581 202.66 149.845 202.154 150.387C199.819 152.807 197.966 156.274 197.087 159.753L193.741 163.1C193.548 163.088 193.356 163.088 193.151 163.088C188.373 163.088 186.014 166.435 185.99 170.865L170.692 186.166C170.74 184.661 170.765 183.156 170.753 181.664L243.425 108.974V108.733H243.461H243.497H243.533H243.569H243.605H243.642C244.424 108.721 245.194 108.721 245.977 108.721C252.717 108.721 259.469 109.046 266.197 109.54C281.446 110.647 297.201 112.489 312.475 114.969C313.642 122.205 316.892 129.416 320.9 134.713C323.584 138.264 327.194 141.924 331.202 144.873C326.701 152.482 323.848 161.258 322.248 170.034C319.865 183.108 322.127 197.88 323.776 210.966C324.053 213.181 324.318 215.384 324.571 217.599H321.622L307.191 232.021C307.094 230.673 306.938 229.337 306.745 228.025L317.168 217.599H311.476L305.819 223.257C305.542 222.077 305.229 220.91 304.868 219.766L307.022 217.611H248.48V276.167L250.634 274.012C251.79 274.361 252.957 274.674 254.125 274.963L248.468 280.621V286.316L258.891 275.89C260.215 276.083 261.539 276.239 262.887 276.336L248.468 290.77V296.464L268.447 276.468C269.555 276.444 270.674 276.372 271.805 276.276C271.3 275.698 270.831 275.12 270.385 274.53L279.328 265.585C279.532 266.259 279.954 266.849 280.507 267.259C279.99 267.848 279.364 268.354 278.63 268.932C277.787 269.594 277.438 270.629 277.703 271.653L248.468 300.895V306.589L281.398 273.651C282.036 273.627 282.698 273.543 283.3 273.422C283.312 273.47 283.312 273.519 283.324 273.567C283.432 274.229 283.625 274.915 283.877 275.613L248.468 311.031V316.725L286.02 279.165C286.513 279.658 287.139 279.911 287.849 279.911C288.619 279.911 289.281 279.61 289.799 279.044C291.075 277.624 292.074 275.433 292.375 273.579C292.387 273.531 292.387 273.483 292.399 273.434C293.482 273.639 294.71 273.735 295.745 273.627C295.853 273.615 295.961 273.591 296.07 273.567L248.48 321.168V326.862L325.521 249.802C325.389 251.211 325.232 252.62 325.028 254.028C324.992 254.305 324.944 254.582 324.908 254.859L248.48 331.304V331.99C247.637 332.376 246.795 332.773 245.952 333.158C212.421 317.821 172.738 296.428 166.877 254.028C164.975 240.099 166.299 226.339 167.996 212.519ZM285.755 178.365C285.598 176.848 285.189 174.031 284.142 171.852C282.626 168.71 280.892 165.724 276.993 165.724C273.093 165.724 272.455 168.782 272.455 170.937C272.455 175.223 276.307 177.835 279.749 178.69C278.798 177.835 277.21 174.91 278.846 174.236C280.64 173.501 282.674 176.475 283.396 178.365H285.755ZM286.622 178.365H287.885H289.149C289.378 171.274 292.772 170.383 292.772 163.955C292.772 157.297 287.897 152.229 287.897 152.229C287.897 152.229 283.023 157.297 283.023 163.955C282.999 170.395 286.393 171.274 286.622 178.365ZM287.885 193.57C287.885 193.57 289.438 191.824 289.811 189.453C290.184 187.069 289.739 185.071 289.739 185.071C289.739 185.071 290.69 186.624 292.423 187.033C294.156 187.454 295.492 187.298 295.492 187.298C293.41 185.672 292.29 184.481 291.508 182.302H287.897H284.287C283.504 184.481 282.385 185.672 280.303 187.298C280.303 187.298 281.627 187.454 283.372 187.033C285.117 186.611 286.056 185.071 286.056 185.071C286.056 185.071 285.598 187.081 285.984 189.453C286.333 191.824 287.885 193.57 287.885 193.57ZM287.885 179.087H282.517C282.156 179.087 281.855 179.388 281.855 179.749V180.917C281.855 181.278 282.156 181.579 282.517 181.579H287.885H293.253C293.614 181.579 293.915 181.278 293.915 180.917V179.749C293.915 179.388 293.614 179.087 293.253 179.087H287.885ZM290.004 178.365H292.363C293.097 176.475 295.131 173.501 296.912 174.236C298.549 174.91 296.948 177.835 296.009 178.69C299.452 177.835 303.303 175.223 303.303 170.937C303.303 168.77 302.665 165.724 298.766 165.724C294.866 165.724 293.133 168.71 291.616 171.852C290.581 174.031 290.16 176.848 290.004 178.365ZM201.901 262.07C201.745 260.553 201.336 257.736 200.288 255.557C198.772 252.415 197.039 249.429 193.139 249.429C189.24 249.429 188.602 252.487 188.602 254.654C188.602 258.94 192.453 261.552 195.895 262.407C194.945 261.552 193.344 258.627 194.993 257.953C196.786 257.218 198.808 260.18 199.542 262.07H201.901ZM202.768 262.07H204.032H205.295C205.524 254.979 208.918 254.088 208.918 247.66C208.918 241.002 204.044 235.934 204.044 235.934C204.044 235.934 199.169 241.002 199.169 247.66C199.157 254.088 202.551 254.979 202.768 262.07ZM204.032 277.275C204.032 277.275 205.584 275.541 205.957 273.158C206.33 270.774 205.885 268.775 205.885 268.775C205.885 268.775 206.836 270.328 208.569 270.738C210.314 271.159 211.638 271.003 211.638 271.003C209.556 269.377 208.425 268.173 207.654 266.007H204.044H200.433C199.651 268.186 198.531 269.377 196.449 271.003C196.449 271.003 197.773 271.159 199.506 270.738C201.251 270.316 202.19 268.775 202.19 268.775C202.19 268.775 201.733 270.786 202.118 273.158C202.479 275.529 204.032 277.275 204.032 277.275ZM204.032 262.78H198.664C198.303 262.78 198.002 263.081 198.002 263.442V264.61C198.002 264.971 198.303 265.272 198.664 265.272H204.032H209.4C209.761 265.272 210.062 264.971 210.062 264.61V263.442C210.062 263.081 209.761 262.78 209.4 262.78H204.032ZM206.162 262.07H208.521C209.255 260.18 211.289 257.206 213.071 257.953C214.707 258.627 213.107 261.552 212.168 262.407C215.61 261.552 219.462 258.94 219.462 254.654C219.462 252.487 218.824 249.429 214.924 249.429C211.024 249.429 209.291 252.415 207.775 255.557C206.728 257.736 206.318 260.553 206.162 262.07ZM201.901 178.365H199.554C198.82 176.475 196.798 173.501 195.005 174.236C193.368 174.91 194.969 177.835 195.907 178.69C192.465 177.835 188.614 175.223 188.614 170.937C188.614 168.77 189.252 165.724 193.151 165.724C197.051 165.724 198.784 168.71 200.3 171.852C201.336 174.031 201.757 176.848 201.901 178.365ZM202.768 178.365C202.539 171.274 199.145 170.383 199.145 163.955C199.145 157.297 204.02 152.229 204.02 152.229C204.02 152.229 208.894 157.297 208.894 163.955C208.894 170.395 205.5 171.274 205.271 178.365H204.008H202.768ZM204.032 193.57C204.032 193.57 202.479 191.824 202.106 189.453C201.733 187.069 202.178 185.071 202.178 185.071C202.178 185.071 201.227 186.624 199.494 187.033C197.761 187.454 196.437 187.298 196.437 187.298C198.519 185.672 199.639 184.481 200.421 182.302H204.032H207.642C208.425 184.481 209.544 185.672 211.626 187.298C211.626 187.298 210.302 187.454 208.557 187.033C206.824 186.611 205.873 185.071 205.873 185.071C205.873 185.071 206.33 187.081 205.945 189.453C205.584 191.824 204.032 193.57 204.032 193.57ZM204.032 179.087H209.4C209.761 179.087 210.062 179.388 210.062 179.749V180.917C210.062 181.278 209.761 181.579 209.4 181.579H204.032H198.664C198.303 181.579 198.002 181.278 198.002 180.917V179.749C198.002 179.388 198.303 179.087 198.664 179.087H204.032ZM206.162 178.365C206.318 176.848 206.728 174.031 207.775 171.852C209.291 168.71 211.024 165.724 214.924 165.724C218.824 165.724 219.462 168.782 219.462 170.937C219.462 175.223 215.61 177.835 212.168 178.69C213.119 177.835 214.719 174.91 213.071 174.236C211.277 173.501 209.243 176.475 208.521 178.365H206.162ZM285.755 262.07C285.598 260.553 285.189 257.736 284.142 255.557C282.626 252.415 280.892 249.429 276.993 249.429C273.093 249.429 272.455 252.487 272.455 254.654C272.455 258.94 276.307 261.552 279.749 262.407C278.798 261.552 277.21 258.627 278.846 257.953C280.64 257.218 282.674 260.18 283.396 262.07H285.755ZM286.622 262.07C286.393 254.979 282.999 254.088 282.999 247.66C282.999 241.002 287.873 235.934 287.873 235.934C287.873 235.934 292.748 241.002 292.748 247.66C292.748 254.1 289.354 254.979 289.125 262.07H287.861H286.622ZM287.885 277.275C287.885 277.275 289.438 275.541 289.811 273.158C290.184 270.774 289.739 268.775 289.739 268.775C289.739 268.775 290.69 270.328 292.423 270.738C294.156 271.159 295.492 271.003 295.492 271.003C293.41 269.377 292.29 268.173 291.508 266.007H287.897H284.287C283.504 268.186 282.385 269.377 280.303 271.003C280.303 271.003 281.627 271.159 283.372 270.738C285.117 270.316 286.056 268.775 286.056 268.775C286.056 268.775 285.598 270.786 285.984 273.158C286.333 275.529 287.885 277.275 287.885 277.275ZM287.885 262.78H293.253C293.614 262.78 293.915 263.081 293.915 263.442V264.61C293.915 264.971 293.614 265.272 293.253 265.272H287.885H282.517C282.156 265.272 281.855 264.971 281.855 264.61V263.442C281.855 263.081 282.156 262.78 282.517 262.78H287.885ZM290.004 262.07C290.16 260.553 290.569 257.736 291.616 255.557C293.133 252.415 294.866 249.429 298.766 249.429C302.665 249.429 303.303 252.487 303.303 254.654C303.303 258.94 299.452 261.552 296.009 262.407C296.96 261.552 298.549 258.627 296.912 257.953C295.119 257.218 293.085 260.18 292.363 262.07H290.004ZM160.751 144.897C161.629 144.247 162.496 143.573 163.326 142.863L160.943 145.247L160.751 144.897ZM346.909 360.618C346.608 358.054 346.331 355.478 346.055 352.914C345.778 350.349 345.465 347.773 345.188 345.197C347.475 344.715 349.713 344.234 352 343.752C352.06 344.258 352.133 344.764 352.169 345.257C350.496 345.642 348.823 346.028 347.138 346.401C347.246 347.243 347.318 348.098 347.415 348.941C347.511 349.784 347.631 350.626 347.691 351.469C349.148 351.06 350.58 350.662 352.048 350.253C352.109 350.759 352.181 351.264 352.217 351.77C350.761 352.203 349.316 352.625 347.86 353.058C347.968 353.949 348.064 354.828 348.161 355.707C348.257 356.586 348.353 357.476 348.486 358.355C350.135 357.777 351.82 357.187 353.493 356.598C353.541 357.103 353.601 357.609 353.673 358.102C351.435 358.957 349.172 359.788 346.909 360.618ZM339.074 363.026C338.797 360.329 338.532 357.621 338.243 354.924C337.966 352.228 337.678 349.519 337.413 346.81C338.003 346.702 338.604 346.593 339.218 346.461C339.483 348.857 339.724 351.252 339.952 353.648C340.193 356.044 340.458 358.439 340.711 360.823C342.251 360.39 343.828 359.956 345.393 359.475C345.441 360.029 345.501 360.57 345.573 361.112C343.407 361.786 341.252 362.412 339.074 363.026ZM334.705 364.266C334.428 361.485 334.163 358.704 333.874 355.935C333.597 353.154 333.333 350.374 333.068 347.605C333.658 347.496 334.259 347.388 334.873 347.268C335.138 350.012 335.427 352.757 335.704 355.514C335.981 358.259 336.269 361.004 336.534 363.749C335.92 363.917 335.306 364.098 334.705 364.266ZM329.301 352.793C329.228 351.927 328.976 351.301 328.566 350.903C328.157 350.518 327.543 350.386 326.701 350.554C326.292 350.638 325.846 350.711 325.461 350.783C325.521 351.686 325.63 352.601 325.702 353.504C325.774 354.407 325.858 355.309 325.943 356.224C326.352 356.152 326.749 356.068 327.182 355.984C328.025 355.815 328.591 355.454 328.964 354.912C329.265 354.37 329.373 353.672 329.301 352.793ZM330.107 360.029C330.023 359.114 329.794 358.427 329.433 358.006C329.06 357.561 328.386 357.452 327.435 357.645C326.978 357.741 326.544 357.825 326.087 357.91C326.195 358.969 326.256 360.041 326.364 361.112C326.472 362.171 326.556 363.243 326.641 364.302C327.122 364.206 327.579 364.098 328.073 363.989C328.59 363.881 328.976 363.7 329.289 363.436C329.602 363.183 329.782 362.87 329.902 362.533C330.023 362.171 330.107 361.798 330.119 361.365C330.143 360.944 330.155 360.498 330.107 360.029ZM329.698 356.357C330.42 356.441 330.95 356.802 331.262 357.428C331.599 358.066 331.804 358.873 331.888 359.848C332.057 361.582 331.84 362.918 331.214 363.857C330.576 364.796 329.577 365.422 328.121 365.747C327.062 365.988 326.015 366.216 324.968 366.445C324.703 363.58 324.45 360.715 324.209 357.862C323.969 354.996 323.704 352.143 323.451 349.266C324.607 349.097 325.714 348.929 326.869 348.712C328.241 348.459 329.252 348.664 329.914 349.338C330.552 350 330.901 351.048 331.046 352.468C331.142 353.359 331.082 354.093 330.889 354.647C330.697 355.225 330.3 355.755 329.698 356.248C329.698 356.297 329.698 356.333 329.698 356.357ZM317.903 353.744C317.77 355.129 317.662 356.513 317.554 357.898C317.397 359.294 317.253 360.703 317.096 362.111C318.095 361.943 319.082 361.774 320.105 361.618C319.708 360.293 319.347 358.957 318.998 357.633C318.649 356.333 318.324 355.033 317.999 353.732C317.951 353.732 317.927 353.732 317.903 353.744ZM321.67 367.119C321.297 365.879 320.936 364.627 320.587 363.375C319.371 363.58 318.167 363.785 316.952 363.989C316.795 365.326 316.675 366.662 316.555 367.998C315.929 368.107 315.339 368.215 314.725 368.311C315.074 365.302 315.447 362.28 315.772 359.27C316.097 356.272 316.47 353.263 316.819 350.277C317.409 350.193 317.975 350.097 318.565 350.012C319.347 352.817 320.189 355.622 321.02 358.427C321.85 361.22 322.657 364.013 323.523 366.77C322.885 366.903 322.272 367.011 321.67 367.119ZM310.308 356.706C309.959 357.982 309.61 359.258 309.261 360.534C308.804 362.039 308.322 363.544 307.865 365.049C307.588 365.085 307.275 365.121 306.998 365.157C306.348 363.797 305.674 362.436 305.036 361.064C304.519 359.896 303.989 358.728 303.472 357.561C303.424 357.561 303.412 357.573 303.387 357.573C303.544 359.631 303.664 361.678 303.797 363.724C303.929 365.771 304.061 367.83 304.206 369.876C303.592 369.96 302.942 370.045 302.328 370.117C302.136 367.155 301.931 364.194 301.739 361.232C301.558 358.271 301.365 355.309 301.173 352.336C301.787 352.252 302.437 352.179 303.026 352.107C303.424 352.998 303.833 353.877 304.206 354.756C304.579 355.634 304.964 356.525 305.337 357.392C305.963 358.777 306.529 360.161 307.143 361.533C307.167 361.533 307.203 361.521 307.227 361.521C307.624 359.98 308.009 358.415 308.467 356.874C308.683 355.935 308.948 354.996 309.189 354.069C309.429 353.142 309.694 352.191 309.947 351.252C310.561 351.168 311.211 351.096 311.837 351.012C312.077 353.949 312.294 356.874 312.511 359.8C312.727 362.725 312.944 365.651 313.185 368.576C312.559 368.684 311.921 368.793 311.307 368.901C311.151 366.867 311.006 364.82 310.85 362.785C310.693 360.751 310.549 358.704 310.416 356.67C310.392 356.694 310.356 356.694 310.308 356.706ZM297.839 370.707C297.67 367.721 297.49 364.736 297.321 361.762C297.153 358.777 296.948 355.803 296.78 352.817C297.37 352.757 297.995 352.697 298.609 352.637C298.802 355.61 298.994 358.584 299.175 361.557C299.355 364.531 299.548 367.505 299.741 370.466C299.103 370.55 298.453 370.635 297.839 370.707ZM292.724 355.081C292.88 357.765 293.025 360.438 293.181 363.11C293.338 365.783 293.482 368.456 293.638 371.128C292.988 371.188 292.351 371.249 291.749 371.309C291.592 368.636 291.484 365.952 291.34 363.279C291.183 360.606 291.039 357.934 290.906 355.249C289.943 355.333 289.041 355.418 288.126 355.502C288.102 354.876 288.066 354.25 288.042 353.624C290.473 353.383 292.94 353.154 295.42 352.938C295.444 353.564 295.48 354.19 295.528 354.816C294.553 354.912 293.638 354.996 292.724 355.081ZM287.849 366.758C287.897 367.529 287.837 368.239 287.741 368.865C287.645 369.503 287.464 370.057 287.151 370.526C286.874 370.996 286.477 371.381 285.996 371.67C285.49 371.959 284.888 372.139 284.166 372.212C283.492 372.272 282.927 372.224 282.385 372.043C281.879 371.875 281.494 371.598 281.145 371.249C280.796 370.899 280.543 370.478 280.363 369.985C280.182 369.503 280.098 368.961 280.086 368.371C280.7 368.203 281.326 368.022 281.94 367.842C281.94 368.191 282.012 368.504 282.096 368.805C282.168 369.106 282.289 369.371 282.445 369.599C282.614 369.84 282.83 370.009 283.095 370.129C283.36 370.249 283.685 370.285 284.058 370.249C284.563 370.201 284.924 370.081 285.189 369.9C285.466 369.708 285.683 369.467 285.803 369.178C285.923 368.889 286.008 368.54 286.02 368.155C286.032 367.781 286.008 367.372 285.996 366.963C285.984 366.433 285.911 366.012 285.827 365.663C285.743 365.338 285.683 365.037 285.502 364.808C285.31 364.567 285.081 364.375 284.78 364.206C284.491 364.037 284.106 363.869 283.589 363.676C282.806 363.375 282.168 363.062 281.675 362.701C281.217 362.376 280.82 361.991 280.568 361.606C280.303 361.208 280.122 360.787 280.026 360.342C279.93 359.884 279.845 359.378 279.833 358.837C279.821 358.151 279.857 357.512 279.99 356.923C280.122 356.333 280.339 355.803 280.64 355.37C280.953 354.912 281.338 354.575 281.819 354.31C282.301 354.045 282.866 353.889 283.492 353.853C284.214 353.805 284.804 353.889 285.298 354.106C285.803 354.31 286.188 354.587 286.489 354.948C286.814 355.297 287.019 355.719 287.163 356.164C287.308 356.622 287.404 357.067 287.428 357.512C286.814 357.741 286.188 357.982 285.574 358.199C285.55 357.392 285.394 356.766 285.069 356.357C284.732 355.923 284.214 355.755 283.456 355.803C283.059 355.827 282.734 355.935 282.493 356.128C282.253 356.321 282.096 356.561 281.976 356.826C281.843 357.103 281.747 357.404 281.711 357.741C281.675 358.078 281.675 358.391 281.687 358.704C281.699 359.09 281.723 359.415 281.771 359.704C281.831 359.992 281.952 360.245 282.144 360.486C282.337 360.727 282.602 360.956 282.927 361.172C283.3 361.389 283.793 361.606 284.407 361.81C285.129 362.063 285.731 362.34 286.152 362.641C286.609 362.93 286.934 363.279 287.175 363.676C287.416 364.062 287.584 364.519 287.681 365.025C287.741 365.518 287.813 366.096 287.849 366.758ZM271.962 372.802C271.854 369.792 271.745 366.794 271.661 363.785C271.577 360.775 271.468 357.777 271.36 354.768C273.683 354.635 276.042 354.491 278.365 354.334C278.389 354.96 278.413 355.598 278.425 356.224C276.704 356.345 274.983 356.441 273.274 356.561C273.322 357.573 273.346 358.572 273.382 359.583C273.418 360.594 273.466 361.594 273.49 362.593C274.995 362.496 276.487 362.412 277.992 362.304C278.016 362.93 278.052 363.568 278.052 364.194C276.548 364.29 275.055 364.387 273.551 364.483C273.599 365.542 273.623 366.59 273.659 367.649C273.695 368.696 273.719 369.744 273.767 370.803C275.537 370.695 277.27 370.586 279.039 370.478C279.039 371.104 279.087 371.742 279.099 372.368C276.728 372.513 274.357 372.645 271.962 372.802ZM265.499 358.704C265.282 360.113 265.101 361.533 264.909 362.942C264.692 364.362 264.452 365.783 264.235 367.204C265.234 367.167 266.257 367.131 267.304 367.107C266.979 365.687 266.678 364.266 266.389 362.846C266.088 361.461 265.824 360.077 265.583 358.704C265.547 358.692 265.523 358.704 265.499 358.704ZM268.616 373.006C268.291 371.67 267.99 370.334 267.701 368.997C266.462 369.034 265.222 369.07 263.982 369.106C263.79 370.454 263.573 371.802 263.368 373.151C262.754 373.163 262.153 373.187 261.539 373.199C262.044 370.165 262.562 367.143 263.067 364.11C263.573 361.076 264.09 358.042 264.608 355.008C265.15 354.984 265.739 354.96 266.329 354.948C267.003 357.946 267.689 360.943 268.375 363.941C269.061 366.927 269.747 369.912 270.445 372.886C269.832 372.922 269.218 372.97 268.616 373.006ZM253.342 361.016C253.367 363.086 253.403 365.157 253.427 367.228C253.451 369.298 253.487 371.369 253.535 373.44C252.885 373.44 252.247 373.428 251.621 373.428C251.561 370.406 251.537 367.384 251.489 364.362C251.441 361.341 251.405 358.307 251.381 355.285C251.946 355.285 252.536 355.273 253.138 355.273C253.728 356.802 254.317 358.331 254.919 359.86C255.509 361.377 256.111 362.906 256.7 364.423C257.074 365.518 257.507 366.602 257.916 367.697C257.94 367.685 257.988 367.685 258.024 367.673C257.964 365.602 257.94 363.532 257.892 361.461C257.844 359.391 257.808 357.32 257.76 355.249C258.373 355.237 258.975 355.225 259.613 355.201C259.673 358.211 259.733 361.22 259.806 364.23C259.878 367.24 259.938 370.249 260.022 373.259C259.433 373.271 258.831 373.295 258.241 373.307C257.627 371.814 257.013 370.31 256.412 368.805C255.81 367.312 255.232 365.795 254.63 364.29C254.173 363.195 253.788 362.111 253.391 361.028C253.379 361.016 253.354 361.016 253.342 361.016ZM247.156 373.416C247.108 370.406 247.096 367.384 247.072 364.375C247.048 361.365 246.988 358.343 246.988 355.333C247.601 355.333 248.227 355.321 248.853 355.321C248.877 358.343 248.925 361.353 248.961 364.375C248.998 367.396 249.022 370.406 249.07 373.428C248.42 373.416 247.794 373.416 247.156 373.416ZM238.213 357.115C238.189 359.824 238.201 362.533 238.213 365.253C238.225 367.962 238.189 370.671 238.213 373.391C237.588 373.367 236.974 373.355 236.348 373.319C236.348 370.611 236.372 367.902 236.372 365.205C236.372 362.496 236.372 359.788 236.396 357.079C235.457 357.055 234.518 357.043 233.568 357.019C233.592 356.381 233.568 355.755 233.592 355.117C236.071 355.165 238.514 355.213 241.006 355.249C241.006 355.887 241.006 356.513 241.006 357.151C240.067 357.151 239.128 357.127 238.213 357.115ZM232.713 368.263C232.701 369.046 232.629 369.744 232.496 370.358C232.352 370.984 232.123 371.501 231.798 371.947C231.473 372.38 231.076 372.717 230.559 372.946C230.077 373.175 229.475 373.271 228.705 373.247C228.055 373.223 227.465 373.091 226.984 372.874C226.442 372.633 226.057 372.356 225.744 371.959C225.431 371.586 225.215 371.116 225.07 370.623C224.914 370.105 224.83 369.563 224.83 368.973C225.479 368.865 226.093 368.745 226.743 368.624C226.743 368.973 226.767 369.298 226.827 369.599C226.888 369.912 227.008 370.177 227.152 370.43C227.297 370.683 227.477 370.887 227.742 371.032C228.019 371.188 228.356 371.261 228.717 371.273C229.199 371.285 229.596 371.225 229.873 371.068C230.137 370.912 230.354 370.695 230.498 370.418C230.643 370.141 230.679 369.804 230.715 369.419C230.763 369.046 230.775 368.636 230.775 368.227C230.787 367.685 230.763 367.252 230.715 366.915C230.667 366.578 230.559 366.277 230.414 366.024C230.282 365.771 230.053 365.53 229.764 365.338C229.463 365.133 229.066 364.904 228.585 364.663C227.802 364.266 227.189 363.881 226.719 363.484C226.262 363.098 225.913 362.689 225.672 362.268C225.431 361.846 225.275 361.401 225.191 360.944C225.106 360.474 225.058 359.968 225.058 359.403C225.058 358.704 225.179 358.078 225.347 357.5C225.504 356.935 225.744 356.429 226.069 356.02C226.394 355.61 226.827 355.297 227.333 355.081C227.814 354.864 228.38 354.78 229.03 354.804C229.752 354.84 230.342 354.984 230.799 355.249C231.281 355.514 231.666 355.851 231.979 356.248C232.244 356.646 232.46 357.079 232.593 357.549C232.725 358.018 232.761 358.476 232.749 358.933C232.111 359.09 231.485 359.234 230.859 359.378C230.884 358.572 230.727 357.934 230.45 357.476C230.173 357.019 229.668 356.778 228.922 356.742C228.512 356.718 228.2 356.79 227.947 356.959C227.706 357.115 227.501 357.332 227.357 357.597C227.213 357.862 227.116 358.163 227.068 358.488C227.02 358.825 227.008 359.138 227.008 359.451C227.008 359.836 227.008 360.173 227.056 360.45C227.104 360.739 227.164 361.016 227.357 361.269C227.526 361.533 227.766 361.786 228.115 362.039C228.464 362.292 228.922 362.569 229.536 362.846C230.258 363.183 230.835 363.532 231.257 363.893C231.666 364.242 231.991 364.639 232.195 365.061C232.412 365.482 232.593 365.952 232.653 366.481C232.689 367.011 232.713 367.601 232.713 368.263ZM216.525 372.416C216.585 369.407 216.657 366.397 216.717 363.387C216.778 360.378 216.826 357.368 216.886 354.358C219.221 354.515 221.568 354.611 223.915 354.719C223.915 355.358 223.915 355.984 223.867 356.622C222.121 356.537 220.388 356.453 218.691 356.381C218.667 357.392 218.643 358.403 218.631 359.403C218.607 360.414 218.607 361.413 218.583 362.424C220.063 362.509 221.592 362.593 223.084 362.665C223.084 363.303 223.084 363.941 223.06 364.567C221.532 364.483 220.039 364.399 218.511 364.302C218.487 365.362 218.487 366.409 218.463 367.468C218.438 368.516 218.402 369.575 218.402 370.635C220.148 370.743 221.905 370.863 223.674 370.96C223.674 371.598 223.674 372.224 223.674 372.862C221.279 372.741 218.896 372.585 216.525 372.416ZM207.967 358.259C207.979 357.946 207.955 357.621 207.919 357.296C207.883 356.971 207.811 356.67 207.678 356.381C207.558 356.116 207.39 355.875 207.137 355.671C206.896 355.478 206.571 355.358 206.114 355.321C205.632 355.285 205.307 355.382 205.031 355.61C204.742 355.827 204.561 356.104 204.417 356.441C204.272 356.778 204.224 357.139 204.176 357.512C204.128 357.898 204.128 358.211 204.116 358.476C204.044 359.92 204.032 361.377 203.959 362.834C203.899 364.278 203.875 365.735 203.803 367.18C203.791 367.432 203.815 367.721 203.851 368.01C203.887 368.311 203.983 368.6 204.116 368.865C204.272 369.142 204.441 369.371 204.682 369.563C204.922 369.756 205.247 369.864 205.644 369.9C206.054 369.936 206.379 369.888 206.619 369.744C206.872 369.587 207.065 369.395 207.233 369.142C207.402 368.877 207.522 368.588 207.582 368.251C207.642 367.902 207.678 367.553 207.69 367.192C207.739 365.711 207.775 364.218 207.823 362.725C207.859 361.232 207.919 359.752 207.967 358.259ZM209.58 367.071C209.544 368.684 209.183 369.888 208.557 370.743C207.967 371.562 206.992 371.935 205.596 371.79C204.224 371.646 203.249 371.14 202.696 370.273C202.142 369.395 201.877 368.299 201.937 366.987C201.998 365.506 202.058 364.037 202.094 362.557C202.13 361.088 202.202 359.607 202.25 358.126C202.274 357.488 202.335 356.874 202.467 356.285C202.599 355.695 202.804 355.177 203.093 354.732C203.382 354.286 203.767 353.949 204.272 353.708C204.754 353.467 205.428 353.383 206.21 353.431C207.016 353.492 207.654 353.66 208.172 353.949C208.653 354.226 209.002 354.611 209.255 355.081C209.52 355.55 209.688 356.092 209.761 356.706C209.821 357.32 209.821 357.994 209.809 358.716C209.785 360.113 209.737 361.509 209.7 362.894C209.64 364.278 209.604 365.687 209.58 367.071ZM197.436 370.755C197.544 367.769 197.665 364.772 197.785 361.786C197.905 358.801 198.026 355.815 198.158 352.817C198.724 352.878 199.374 352.938 199.988 352.998C199.879 355.996 199.783 358.981 199.663 361.979C199.542 364.964 199.422 367.962 199.314 370.948C198.676 370.887 198.05 370.815 197.436 370.755ZM193.934 354.286C193.801 356.959 193.669 359.631 193.56 362.292C193.452 364.964 193.32 367.637 193.211 370.31C192.573 370.249 191.948 370.177 191.334 370.081C191.442 367.42 191.587 364.76 191.707 362.087C191.827 359.427 191.948 356.754 192.08 354.094C191.117 353.985 190.214 353.865 189.3 353.756C189.324 353.13 189.36 352.516 189.408 351.89C191.851 352.191 194.283 352.432 196.762 352.685C196.714 353.311 196.714 353.937 196.702 354.563C195.739 354.467 194.824 354.37 193.934 354.286ZM185.135 351.204C186.399 351.361 187.278 351.854 187.807 352.673C188.349 353.504 188.566 354.515 188.529 355.719C187.892 355.755 187.266 355.791 186.652 355.839C186.7 355.057 186.604 354.419 186.375 353.925C186.134 353.431 185.677 353.142 185.027 353.058C184.63 353.01 184.305 353.058 184.064 353.215C183.823 353.371 183.655 353.576 183.498 353.841C183.342 354.106 183.222 354.394 183.173 354.732C183.113 355.069 183.077 355.382 183.065 355.683C182.969 357.163 182.897 358.656 182.824 360.137C182.752 361.618 182.656 363.11 182.56 364.591C182.548 364.844 182.56 365.121 182.584 365.422C182.608 365.723 182.704 366 182.824 366.277C182.945 366.541 183.113 366.77 183.342 366.975C183.547 367.167 183.848 367.312 184.233 367.36C184.834 367.444 185.292 367.3 185.605 366.939C185.93 366.566 186.11 365.952 186.17 365.061C186.808 365.265 187.41 365.482 188.06 365.687C187.976 366.963 187.603 367.926 186.977 368.54C186.315 369.178 185.412 369.395 184.197 369.214C182.933 369.033 182.018 368.528 181.428 367.697C180.839 366.867 180.598 365.771 180.67 364.423C180.754 362.966 180.839 361.521 180.935 360.065C181.019 358.62 181.079 357.163 181.176 355.707C181.212 355.081 181.284 354.479 181.44 353.889C181.585 353.311 181.813 352.793 182.09 352.36C182.367 351.927 182.764 351.601 183.27 351.373C183.763 351.18 184.401 351.108 185.135 351.204ZM171.98 367.071C172.149 364.182 172.353 361.293 172.546 358.391C172.738 355.502 172.895 352.601 173.112 349.711C175.398 350.061 177.721 350.41 180.032 350.711C179.984 351.325 179.948 351.939 179.924 352.553C178.203 352.336 176.506 352.071 174.833 351.818C174.76 352.793 174.7 353.768 174.64 354.732C174.58 355.707 174.532 356.682 174.472 357.645C175.928 357.886 177.432 358.139 178.913 358.355C178.865 358.969 178.829 359.583 178.78 360.197C177.3 359.98 175.796 359.728 174.339 359.475C174.279 360.486 174.195 361.509 174.147 362.533C174.098 363.544 174.014 364.567 173.978 365.59C175.675 365.903 177.396 366.216 179.129 366.469C179.081 367.083 179.069 367.697 179.021 368.311C176.674 367.95 174.327 367.505 171.98 367.071ZM163.362 365.446C163.555 362.617 163.784 359.776 163.988 356.947C164.193 354.118 164.386 351.276 164.614 348.435C166.901 348.784 169.224 349.134 171.511 349.483C171.463 350.085 171.427 350.687 171.378 351.288C169.657 351.024 167.984 350.759 166.311 350.506C166.251 351.457 166.155 352.42 166.095 353.371C166.034 354.322 165.962 355.273 165.902 356.224C167.358 356.465 168.839 356.718 170.319 356.971C170.259 357.573 170.235 358.175 170.187 358.777C168.682 358.524 167.226 358.259 165.746 358.018C165.661 359.318 165.565 360.618 165.481 361.907C165.397 363.207 165.288 364.507 165.216 365.795C164.578 365.675 163.964 365.554 163.362 365.446ZM160.137 352.48C160.173 352.035 160.185 351.614 160.161 351.24C160.125 350.855 160.029 350.518 159.86 350.217C159.704 349.928 159.511 349.675 159.222 349.471C158.921 349.266 158.572 349.134 158.115 349.049C157.658 348.965 157.176 348.881 156.719 348.784C156.659 349.76 156.574 350.735 156.502 351.698C156.43 352.661 156.334 353.636 156.261 354.611C156.767 354.72 157.284 354.816 157.802 354.924C158.211 355.008 158.56 355.008 158.825 354.936C159.126 354.852 159.379 354.695 159.547 354.479C159.728 354.25 159.896 353.973 159.98 353.636C160.077 353.299 160.101 352.914 160.137 352.48ZM159.571 364.567C159.27 363.255 158.945 361.931 158.681 360.618C158.416 359.318 158.115 358.006 157.826 356.718C157.236 356.598 156.671 356.465 156.105 356.345C156.021 357.561 155.924 358.764 155.828 359.968C155.72 361.172 155.611 362.388 155.527 363.592C154.913 363.448 154.287 363.291 153.698 363.159C153.914 360.426 154.143 357.681 154.372 354.948C154.6 352.215 154.805 349.471 155.046 346.738C156.225 346.943 157.369 347.159 158.572 347.364C159.86 347.593 160.787 348.158 161.34 349.049C161.906 349.952 162.111 351.216 161.966 352.829C161.882 353.805 161.726 354.635 161.377 355.321C161.052 356.008 160.438 356.465 159.595 356.694C159.896 358.078 160.197 359.451 160.51 360.835C160.823 362.22 161.124 363.616 161.473 365.025C160.811 364.868 160.185 364.712 159.571 364.567ZM145.188 360.871C145.429 358.247 145.658 355.622 145.911 352.998C146.163 350.374 146.368 347.749 146.633 345.125C148.919 345.582 151.206 346.052 153.469 346.449C153.421 347.027 153.385 347.593 153.361 348.158C151.664 347.845 149.991 347.508 148.306 347.159C148.221 348.05 148.149 348.941 148.041 349.82C147.945 350.699 147.908 351.601 147.824 352.492C149.256 352.853 150.713 353.179 152.193 353.492C152.133 354.057 152.085 354.623 152.037 355.189C150.556 354.876 149.1 354.539 147.644 354.166C147.584 355.093 147.475 356.02 147.379 356.959C147.295 357.886 147.222 358.825 147.138 359.752C148.835 360.245 150.508 360.655 152.205 361.064C152.181 361.642 152.145 362.208 152.097 362.773C149.774 362.208 147.499 361.557 145.188 360.871ZM138.641 351.048C139.05 351.156 139.483 351.264 139.881 351.361C140.446 351.505 140.88 351.529 141.253 351.457C141.578 351.385 141.842 351.204 142.035 351C142.24 350.771 142.396 350.506 142.468 350.157C142.541 349.808 142.601 349.435 142.637 349.037C142.685 348.628 142.697 348.231 142.685 347.845C142.661 347.46 142.589 347.111 142.468 346.81C142.336 346.497 142.071 346.232 141.77 346.004C141.469 345.787 141.048 345.606 140.531 345.498C140.073 345.402 139.64 345.317 139.219 345.221C139.11 346.184 139.038 347.171 138.942 348.134C138.845 349.109 138.749 350.085 138.641 351.048ZM140.831 343.957C141.638 344.125 142.276 344.354 142.793 344.667C143.299 344.968 143.672 345.365 143.949 345.823C144.213 346.268 144.37 346.81 144.43 347.4C144.478 348.002 144.49 348.664 144.406 349.398C144.334 350.049 144.25 350.65 144.105 351.192C143.949 351.746 143.672 352.155 143.323 352.516C142.998 352.854 142.54 353.082 141.975 353.179C141.385 353.275 140.687 353.203 139.82 352.974C139.363 352.854 138.93 352.745 138.496 352.625C138.388 353.636 138.304 354.635 138.196 355.646C138.087 356.658 138.003 357.657 137.907 358.668C137.305 358.488 136.715 358.307 136.101 358.126C136.366 355.659 136.607 353.191 136.86 350.711C137.112 348.243 137.341 345.775 137.594 343.295C138.677 343.512 139.748 343.728 140.831 343.957ZM223.987 9.31793C220.557 17.119 215.574 24.4867 207.149 27.0027C200.999 28.8326 194.764 27.5926 188.927 25.1367C191.069 30.8551 192.658 36.5615 193.488 42.7854C197.207 41.3167 201.251 40.3777 205.127 39.6193C211.169 38.4395 217.295 37.7051 223.433 37.1995C230.751 36.5976 238.093 36.3327 245.435 36.3327C252.777 36.3327 260.119 36.5976 267.436 37.1995C273.563 37.7051 279.701 38.4395 285.743 39.6193C289.51 40.3536 293.41 41.2565 297.045 42.653C297.634 36.5735 299.175 31.0116 301.474 25.5581C295.721 27.7973 289.655 28.8687 283.889 27.0629C275.777 24.5107 271.119 17.119 267.93 9.42628C265.101 12.6888 261.996 15.7827 258.686 18.1182C254.727 20.9232 250.526 22.5725 245.627 22.4882C240.813 22.404 236.721 20.6945 232.869 17.8774C229.656 15.5299 226.695 12.5082 223.987 9.31793ZM312.499 14.5186C304.591 27.4121 300.944 37.5366 301.45 50.43C300.27 49.3224 298.778 48.4797 297.37 47.8296C293.554 46.072 288.956 44.9765 284.84 44.1699C278.991 43.0262 272.985 42.3159 267.039 41.8224C259.854 41.2325 252.632 40.9676 245.423 40.9676C238.213 40.9676 230.992 41.2325 223.806 41.8224C217.861 42.3159 211.867 43.0262 206.005 44.1699C201.889 44.9765 197.292 46.06 193.476 47.8296C192.092 48.4677 190.624 49.3104 189.444 50.3818C189.023 37.0791 185.208 27.0509 179.322 14.5909C192.537 23.0179 199.663 24.3783 205.825 22.5484C212.12 20.6704 217.343 15.3252 222.579 0C232.869 13.9769 239.248 17.7209 245.664 17.8293C252.163 17.9376 258.722 14.2538 269.446 0.072232C274.489 15.4697 279.207 20.7186 285.249 22.6207C291.376 24.5348 298.862 22.9698 312.499 14.5186ZM299.524 56.1965V59.2905C291.34 54.5713 270.193 51.2125 245.411 51.2125C220.617 51.2125 199.482 54.5713 191.298 59.2905V56.1965C191.298 50.129 215.526 45.1932 245.411 45.1932C275.296 45.1932 299.524 50.117 299.524 56.1965ZM245.411 71.5218C216.513 71.5218 193.091 68.1269 193.091 63.9494C193.091 59.772 216.513 56.3771 245.411 56.3771C274.309 56.3771 297.731 59.772 297.731 63.9494C297.731 68.1269 274.309 71.5218 245.411 71.5218ZM184.774 240.966C190.154 236.235 196.112 234.321 206.078 234.321H226.707V254.955C226.707 264.923 224.793 270.882 220.063 276.263C228.368 276.974 236.095 275.842 243.401 273.314V217.623H187.723C185.208 224.931 184.064 232.659 184.774 240.966ZM248.504 156.828V212.519H304.182C306.709 205.211 307.853 197.482 307.131 189.176C301.751 193.907 295.793 195.821 285.827 195.821H265.198V175.187C265.198 165.219 267.111 159.26 271.842 153.878C263.549 153.168 255.81 154.3 248.504 156.828ZM131.335 247.383C128.194 249.802 124.884 253.065 123.006 257.014C120.707 261.817 121.767 269.137 123.187 274.771C124.98 272.857 126.906 270.942 128.519 269.654C129.999 268.462 131.263 266.789 132.129 264.754C132.972 262.768 133.441 260.445 133.357 257.904C133.297 256.002 132.804 253.944 132.31 251.909C131.961 250.404 131.6 248.912 131.335 247.383Z" fill="#00A0E3"/>
</g>
<defs>
<clipPath id="clip0">
<rect width="493" height="579" fill="white"/>
</clipPath>
</defs>
</svg>
