<svg width="171" height="155" viewBox="0 0 171 155" fill="none" xmlns="http://www.w3.org/2000/svg">
<path d="M20.1342 111.022C18.4061 110.912 16.6494 111.427 15.207 112.041C15.683 112.422 16.1258 112.831 16.5733 113.241C17.1874 113.807 17.8063 114.379 18.449 114.764C19.3106 115.278 20.1961 115.564 21.0435 115.655C21.9099 115.75 22.7335 115.636 23.4333 115.35C24.195 115.04 25.2233 114.745 26.2278 114.498C24.5616 112.922 22.2384 111.155 20.1342 111.022ZM19.1821 37.9008C19.0393 41.1338 20.3104 44.3954 21.5291 46.738C22.2384 45.5762 23.1239 44.5858 24.0141 43.5859C24.833 42.6622 25.6613 41.7338 26.2516 40.7053C27.0419 39.3245 27.4703 37.9199 27.5894 36.5914C27.7131 35.1916 27.5037 33.8679 27.0181 32.7347C26.404 31.3015 25.8136 29.1541 25.3661 27.3305C22.8621 29.8778 19.3487 34.106 19.1821 37.9008ZM46.8985 30.8016C49.1026 27.8495 49.9405 23.9451 50.2499 21.0359C48.8265 21.7215 47.3364 22.0977 45.8368 22.4786C44.5324 22.8072 43.2137 23.1405 42.0379 23.7166C40.4764 24.4784 39.2148 25.5021 38.2722 26.6544C37.2868 27.859 36.6536 29.2017 36.3965 30.5254C36.0585 32.2633 35.2159 34.7059 34.478 36.6676C38.3008 35.9248 44.3277 34.2488 46.8985 30.8016ZM42.2378 48.0998C43.885 45.4715 44.3753 42.1623 44.4705 39.6102C43.3328 40.2291 42.1331 40.6386 40.9239 41.0481C39.7908 41.4338 38.6435 41.8242 37.6581 42.4146C36.3442 43.1955 35.3111 44.1764 34.578 45.2477C33.8115 46.3618 33.3592 47.576 33.2259 48.7521C33.0641 50.2376 32.5499 52.3041 32.0596 54.0468C35.3825 53.0802 40.3002 51.1947 42.2378 48.0998ZM12.1364 104.17C14.7928 104.765 17.6682 104.256 19.8629 103.604C19.0583 102.842 18.3871 101.985 17.7063 101.123C17.0255 100.256 16.34 99.3849 15.545 98.7231C14.4834 97.8374 13.336 97.2518 12.1935 96.9423C11.0033 96.6185 9.83698 96.5947 8.79917 96.8375C7.52808 97.1328 5.70952 97.3137 4.09567 97.428C5.96184 99.9848 8.98959 103.465 12.1364 104.17ZM6.7521 78.7823C8.92295 80.6154 11.8364 81.5153 14.1644 81.9581C13.7788 80.8583 13.5646 79.7346 13.3503 78.6013C13.1409 77.4967 12.9314 76.3825 12.5172 75.3826C11.9697 74.0637 11.1938 72.9781 10.3035 72.1544C9.36568 71.2878 8.30882 70.7069 7.25197 70.4355C5.92375 70.0927 4.13852 69.3785 2.60083 68.7071C3.0769 71.9306 4.18612 76.6111 6.7521 78.7823ZM9.27999 59.1891C10.8462 62.0221 13.636 64.1362 15.902 65.4932C15.902 64.1314 16.1353 62.822 16.3733 61.5031H16.3828C16.6018 60.289 16.8208 59.0605 16.7827 57.8702C16.7351 56.3037 16.359 54.8848 15.7592 53.6706C15.1308 52.3993 14.2596 51.3804 13.2694 50.6804C11.984 49.771 10.3559 48.2521 9.02292 46.9332C8.22313 50.4138 7.44239 55.8561 9.28475 59.1843V59.1891H9.27999ZM36.8535 78.4109C37.8009 75.4493 37.4581 72.1163 36.9202 69.6213C35.9681 70.5022 34.9112 71.1974 33.8401 71.8925L33.8448 71.8973C32.8308 72.5591 31.812 73.2257 31.017 74.0209C29.9363 75.1017 29.1842 76.3064 28.7319 77.53C28.2606 78.8061 28.1178 80.0964 28.2844 81.2677C28.4939 82.7485 28.5082 84.8674 28.4653 86.6767C31.455 84.9245 35.7443 81.882 36.8535 78.4109ZM35.8728 122.778C35.8728 119.93 45.794 123.278 50.1262 121.864V121.825C50.1166 120.687 50.1357 120.126 49.6644 119.659C48.8218 118.821 47.0318 118.664 45.1513 118.664C42.5949 118.664 39.7052 119.054 37.282 119.783C34.0781 120.745 31.4074 121.545 28.6129 122.025C25.7708 122.511 22.8716 122.654 19.3154 122.263C17.2636 122.04 14.4405 121.445 12.0269 120.264C12.441 120.93 12.9219 121.578 13.4598 122.202C15.3355 124.363 17.8396 126.139 20.4579 127.049C21.71 127.487 22.9811 127.715 24.1998 127.691L28.0987 127.606L25.8993 130.834C24.2712 133.224 21.3958 135.748 18.3014 137.295C16.6066 138.143 14.8214 138.719 13.1075 138.852L13.0647 138.857C14.231 139.281 15.5212 139.5 16.7875 139.538C17.0827 139.547 17.3778 139.547 17.673 139.533C19.92 139.452 22.2527 139.086 24.4378 138.6C27.4846 137.924 30.2506 137.014 32.1262 136.31C33.8639 135.657 35.3159 135.191 36.7726 134.891L36.1442 125.063L35.8728 122.778ZM150.433 111.022C148.328 111.155 146.01 112.922 144.339 114.498C145.343 114.75 146.372 115.045 147.133 115.35C147.833 115.636 148.657 115.75 149.523 115.655C150.371 115.564 151.256 115.278 152.118 114.764C152.76 114.379 153.379 113.807 153.993 113.241C154.441 112.831 154.884 112.417 155.36 112.041C153.917 111.427 152.161 110.912 150.433 111.022ZM151.389 37.9008C151.223 34.106 147.709 29.8778 145.21 27.3257C144.763 29.1493 144.168 31.3015 143.558 32.7299C143.073 33.8631 142.863 35.1868 142.987 36.5867C143.106 37.9151 143.534 39.3197 144.325 40.7005C144.91 41.729 145.743 42.6575 146.562 43.5812C147.452 44.5811 148.333 45.5762 149.047 46.7332C150.266 44.3954 151.532 41.1338 151.389 37.9008ZM123.673 30.8016C126.244 34.2441 132.271 35.9201 136.089 36.6676C135.351 34.7059 134.508 32.2633 134.17 30.5254C133.913 29.197 133.28 27.859 132.295 26.6544C131.352 25.5021 130.09 24.4832 128.529 23.7166C127.348 23.1405 126.034 22.8072 124.73 22.4786C123.23 22.1025 121.745 21.7263 120.317 21.0359C120.631 23.9451 121.469 27.8495 123.673 30.8016ZM128.334 48.0998C130.271 51.1947 135.184 53.085 138.512 54.0468C138.022 52.2993 137.512 50.2376 137.346 48.7521C137.217 47.5712 136.765 46.3618 135.994 45.2477C135.256 44.1764 134.227 43.1955 132.913 42.4146C131.928 41.829 130.781 41.4385 129.648 41.0481C128.438 40.6339 127.239 40.2244 126.101 39.6102C126.196 42.1623 126.687 45.4715 128.334 48.0998ZM158.43 104.17C161.577 103.461 164.61 99.9848 166.471 97.4232C164.857 97.3137 163.034 97.128 161.768 96.8328C160.73 96.5947 159.563 96.6185 158.373 96.9375C157.231 97.247 156.079 97.8327 155.022 98.7183C154.227 99.3849 153.541 100.256 152.86 101.118C152.184 101.98 151.508 102.837 150.704 103.599C152.899 104.256 155.774 104.77 158.43 104.17ZM163.815 78.7823C166.385 76.6111 167.495 71.9306 167.966 68.7024C166.428 69.3737 164.648 70.0879 163.315 70.4308C162.258 70.7022 161.201 71.2831 160.263 72.1496C159.368 72.9734 158.597 74.059 158.05 75.3779C157.635 76.373 157.426 77.4919 157.216 78.5966C157.002 79.7298 156.788 80.8535 156.402 81.9534C158.735 81.5153 161.649 80.6154 163.815 78.7823ZM161.292 59.1891V59.1796C163.134 55.8513 162.353 50.4138 161.553 46.9285C160.22 48.2474 158.592 49.7615 157.307 50.6757C156.317 51.3756 155.45 52.3946 154.817 53.6658C154.212 54.88 153.841 56.2989 153.794 57.8654C153.755 59.0558 153.979 60.2842 154.193 61.4984H154.203C154.436 62.8173 154.674 64.1267 154.674 65.4884C156.936 64.1362 159.725 62.0221 161.292 59.1891ZM133.713 78.4109C134.822 81.882 139.117 84.9245 142.101 86.6815C142.059 84.8721 142.073 82.7533 142.282 81.2725C142.449 80.1012 142.306 78.8108 141.835 77.5348C141.383 76.3111 140.63 75.1065 139.55 74.0256C138.755 73.2305 137.736 72.5639 136.722 71.902L136.727 71.8973C135.656 71.1974 134.599 70.507 133.647 69.6261C133.109 72.1163 132.766 75.4493 133.713 78.4109ZM134.699 122.778L134.423 125.054L133.794 134.881C135.251 135.176 136.703 135.648 138.441 136.3C140.321 137.005 143.082 137.914 146.129 138.59C148.314 139.076 150.647 139.443 152.894 139.524C153.189 139.533 153.484 139.538 153.779 139.528C155.046 139.49 156.336 139.266 157.502 138.847L157.459 138.843C155.741 138.709 153.96 138.133 152.265 137.286C149.166 135.738 146.296 133.215 144.667 130.824L142.468 127.596L146.367 127.682C147.586 127.711 148.852 127.477 150.109 127.039C152.727 126.13 155.236 124.354 157.107 122.192C157.645 121.568 158.13 120.921 158.54 120.254C156.126 121.44 153.308 122.03 151.256 122.254C147.695 122.644 144.801 122.502 141.959 122.016C139.164 121.535 136.493 120.735 133.29 119.773C130.866 119.045 127.977 118.654 125.42 118.654C123.54 118.654 121.75 118.811 120.907 119.649C120.441 120.116 120.46 120.678 120.445 121.816V121.854C124.778 123.282 134.699 119.93 134.699 122.778ZM130.624 97.8422C130.524 98.4469 130.381 99.0373 130.238 99.6325C130.043 100.437 129.848 101.251 129.824 102.004C129.795 103.008 129.976 103.927 130.309 104.713C130.652 105.518 131.152 106.179 131.738 106.651C132.375 107.16 133.137 107.917 133.847 108.674C134.408 106.446 134.827 103.551 133.918 101.651C133.171 100.09 131.866 98.804 130.624 97.8422ZM83.0602 137.129L85.2977 138.152L87.5352 137.129C103.245 129.948 119.479 120.297 122.112 101.304C122.978 95.0234 122.392 88.9336 121.612 82.6866C119.893 68.9405 120.683 64.6361 125.706 57.1179C120.284 53.7849 118.036 50.2138 116.437 40.3291C91.6245 36.3105 78.9756 36.3105 54.1584 40.3291C52.5588 50.2138 52.8112 52.2755 45.2894 57.8083C49.2121 66.0027 50.6403 69.4832 48.9884 82.6819C48.2076 88.9241 47.6221 95.0187 48.4885 101.299C51.1307 120.449 67.3644 129.882 83.0602 137.129ZM72.582 134.157C67.988 131.624 63.5511 128.725 59.6665 125.273C52.9445 119.302 47.8934 111.712 46.4938 101.58C46.0415 98.3136 45.9701 95.0996 46.1082 91.8952C46.251 88.6813 46.5938 85.572 46.9841 82.4438C47.7839 76.0445 47.8458 72.0497 47.246 68.7309C46.6509 65.4408 45.3608 62.6316 43.4708 58.6844L42.752 57.1845L44.0945 56.1989C50.3547 51.5946 50.6641 49.6186 51.8209 42.2432C51.9495 41.429 52.0828 40.5672 52.1732 40.0244L52.4065 38.5865L53.8442 38.3532C66.3789 36.32 75.8431 35.3059 85.2977 35.3059C94.7523 35.3059 104.216 36.32 116.751 38.3532L118.189 38.5865L118.422 40.0244C119.179 44.7192 120.074 47.876 121.383 50.1995C122.63 52.3993 124.33 53.9182 126.758 55.4133L128.538 56.5084L127.372 58.2511C125.025 61.765 123.668 64.5028 123.111 67.9025C122.54 71.4069 122.769 75.7635 123.606 82.4533C123.997 85.5816 124.34 88.6908 124.482 91.9047C124.625 95.1092 124.549 98.3231 124.097 101.589C122.697 111.722 117.646 119.311 110.924 125.282C107.039 128.734 102.607 131.634 98.0133 134.167C103.498 133.862 108.758 133.358 113.5 132.653C115.175 131.815 116.803 130.91 118.389 129.934C118.408 126.363 118.427 122.206 118.441 119.94C118.446 119.478 118.484 119.197 118.522 118.997C118.551 118.854 118.536 118.783 118.679 118.55C120.017 116.293 127.32 116.159 132.942 117.612C133.747 116.693 134.523 115.75 135.27 114.783C134.194 113.564 133.48 112.184 133.023 110.76C132.209 109.855 131.242 108.841 130.481 108.232C128.857 106.932 127.739 104.675 127.815 101.961C127.896 99.2468 129.491 96.9471 128.305 94.0807C128.305 94.0807 133.685 96.5233 135.732 100.804C137.274 104.032 135.889 109.155 135.118 111.474C135.432 112.145 135.827 112.793 136.317 113.393C138.302 110.684 140.073 107.817 141.616 104.803C141.259 102.566 139.854 96.1614 135.208 93.1713C134.694 93.7664 133.927 94.1331 133.085 94.114C131.58 94.0807 130.386 92.8332 130.424 91.3286C130.457 89.824 131.704 88.6289 133.209 88.667C134.713 88.7003 135.908 89.9478 135.87 91.4524C135.865 91.581 135.856 91.7048 135.836 91.8285C140.054 94.4473 141.902 99.4754 142.677 102.632C144.134 99.4897 145.343 96.209 146.272 92.8094C144.71 91.8904 143.506 90.643 142.582 89.2669C139.54 87.6195 133.318 83.758 131.804 79.0346C129.786 72.7162 132.918 65.0647 132.923 65.0647C134.465 69.1214 138.298 69.9356 140.983 72.6258C143.668 75.3112 144.686 78.687 144.282 81.5677C144.01 83.5151 144.101 86.7386 144.187 88.6241C144.863 89.5669 145.696 90.4192 146.719 91.0953C147.895 86.272 148.519 81.2392 148.519 76.054C148.519 75.1779 148.5 74.297 148.462 73.4257C147.167 70.7879 143.639 64.7409 137.865 63.0077C137.488 63.8267 136.76 64.479 135.817 64.7266C134.142 65.1694 132.428 64.1695 131.985 62.4935C131.542 60.8175 132.542 59.1034 134.218 58.6606C135.894 58.2178 137.607 59.2176 138.05 60.8937C138.088 61.0365 138.117 61.1793 138.131 61.3174C142.806 62.6363 146.143 66.4312 148.181 69.5309C147.762 65.4599 146.948 61.4508 145.758 57.5654C143.177 57.8749 140.745 57.1988 138.655 56.1799C135.07 55.1895 129.038 53.0183 126.634 49.1806C123.111 43.5574 124.263 35.3677 124.263 35.3677C126.758 38.915 130.676 38.7626 133.942 40.7005C137.208 42.6384 139.031 45.6572 139.35 48.5521C139.555 50.4043 140.378 53.2802 140.921 55.1228C140.968 55.2895 140.935 55.3181 141.126 55.3847C142.382 55.8037 143.73 56.0275 145.124 55.9323C145.153 55.9037 145.182 55.8799 145.205 55.8513C145.143 55.6656 145.082 55.4799 145.015 55.2942C142.973 49.4234 140.069 43.8526 136.37 38.7817C132.337 38.0437 125.158 36.1867 122.059 32.03C117.627 26.0925 118.16 16.8744 118.16 16.8744C121.259 20.5979 125.601 20.0646 129.414 21.9263C133.223 23.788 135.508 26.9829 136.151 30.1683C136.532 32.0633 137.384 35.3344 138.288 36.8105C138.512 37.1771 138.607 37.5294 138.869 37.8913C142.282 42.686 145.02 47.8903 147.029 53.3611C147.643 52.1374 147.976 50.8185 148.128 49.5187C147.038 46.3523 144.22 44.5954 142.578 41.729C140.64 38.3389 140.535 34.7202 141.711 31.9681C142.887 29.216 144.025 23.4833 144.025 23.4785C144.025 23.4785 153.103 31.0253 153.403 37.8389C153.656 43.4955 149.804 49.4949 149.828 49.4568C149.628 51.4994 149.038 53.6087 147.757 55.4609C149.209 59.8557 150.195 64.4076 150.69 69.0309C151.385 68.4929 151.98 67.8691 152.484 67.193C153.108 64.0029 151.689 61.0794 151.785 57.8464C151.904 53.942 153.708 50.7995 156.15 49.0711C158.592 47.3427 162.558 43.0431 162.558 43.0431C162.558 43.0431 166.352 54.2182 163.048 60.189C160.906 64.0552 156.826 66.6931 154.217 68.0739C153.636 68.3786 153.775 68.3262 153.341 68.8309C152.651 69.6404 151.832 70.3736 150.871 70.9783C151.004 72.6639 151.07 74.3637 151.07 76.0635C151.07 78.6347 150.923 81.1725 150.637 83.6675C151.699 83.6151 152.708 83.3961 153.651 83.0533C155.331 80.4821 155.036 77.4443 156.198 74.6399C157.578 71.3212 160.159 69.2071 162.824 68.5214C165.49 67.8358 170.313 65.4361 170.313 65.4361C170.313 65.4361 169.913 76.2968 165.119 80.3488C162.367 82.6724 158.616 83.6722 155.922 84.1008C154.279 84.9578 152.427 85.5244 150.39 85.5625C150.052 87.9004 149.59 90.2001 149.014 92.4523C151.737 89.9525 155.941 87.0338 160.844 86.8862C160.892 86.7719 160.944 86.6624 161.006 86.5481C161.858 85.0388 163.767 84.5055 165.276 85.353C166.785 86.2053 167.318 88.1146 166.471 89.624C165.619 91.1334 163.71 91.6667 162.201 90.8191C161.334 90.3335 160.792 89.4955 160.644 88.586C154.803 88.886 150.009 93.6141 148.038 95.8662C147.305 98.1945 146.443 100.47 145.467 102.68C146.257 102.98 147.057 103.17 147.862 103.265C150.39 101.785 151.499 99.0802 153.736 97.2089C156.421 94.9616 159.606 94.295 162.225 94.9044C164.838 95.5139 170.089 95.6091 170.089 95.6091C170.089 95.6091 164.857 104.818 158.883 106.16C155.341 106.956 151.518 106.046 148.99 105.175C147.567 105.151 146.115 104.908 144.696 104.351C143.106 107.689 141.24 110.869 139.136 113.864C139.888 114.236 140.659 114.483 141.435 114.636C143.144 112.788 146.838 109.265 150.318 109.046C155.05 108.746 159.806 112.255 159.806 112.255C156.726 112.617 155.493 115.131 153.165 116.521C150.837 117.912 148.319 118.035 146.391 117.25C145.729 116.978 144.82 116.716 143.91 116.493C142.006 116.574 140.021 116.255 138.131 115.255C137.331 116.331 136.498 117.383 135.637 118.411C140.987 119.992 144.996 120.954 151.051 120.292C155.017 119.859 162.082 117.95 161.739 112.75C164.324 120.183 154.684 129.915 146.338 129.725C149.871 134.91 160.02 140.809 163.729 133.391C163.915 139.338 157.911 141.752 152.832 141.561C147.176 141.352 141.097 139.466 137.745 138.209C136.317 137.676 135.103 137.271 133.908 136.995C134.475 140.266 135.694 141.614 134.394 143.966C133.428 145.713 125.277 149.027 113.942 151.522C105.587 153.36 95.6044 154.379 85.3976 154.379C75.2432 154.379 65.1079 153.375 56.7768 151.551C45.3751 149.051 37.1677 145.723 36.1966 143.966C34.8969 141.609 36.1156 140.262 36.6822 136.995C35.4872 137.271 34.2685 137.676 32.8451 138.209C29.4936 139.466 23.4191 141.352 17.7587 141.561C12.6838 141.752 6.67593 139.338 6.86159 133.391C10.5701 140.809 20.7198 134.91 24.2522 129.725C15.9115 129.915 6.26652 120.183 8.85154 112.75C8.50401 117.954 15.5735 119.859 19.5391 120.292C25.5947 120.954 29.6031 119.992 34.954 118.411C34.0924 117.388 33.2593 116.336 32.4595 115.255C30.5695 116.25 28.5891 116.569 26.6801 116.493C25.7756 116.721 24.8663 116.983 24.1998 117.25C22.2717 118.035 19.7581 117.912 17.4254 116.521C15.0975 115.131 13.8597 112.617 10.7844 112.255C10.7844 112.255 15.5402 108.746 20.2723 109.046C23.7523 109.265 27.4465 112.788 29.1556 114.636C29.9316 114.488 30.7028 114.236 31.455 113.864C29.346 110.865 27.4846 107.684 25.8898 104.351C24.4711 104.908 23.0192 105.151 21.5957 105.175C19.0726 106.046 15.2451 106.956 11.7079 106.16C5.73809 104.818 0.501398 95.6091 0.501398 95.6091C0.501398 95.6091 5.74761 95.5091 8.36595 94.9044C10.9795 94.295 14.1644 94.9616 16.8541 97.2089C19.0916 99.0802 20.2009 101.785 22.7288 103.265C23.5333 103.165 24.3379 102.98 25.1234 102.68C24.1474 100.47 23.2858 98.1993 22.5526 95.8662C20.5865 93.6141 15.7878 88.886 9.94648 88.586C9.7989 89.4955 9.25619 90.3335 8.38976 90.8191C6.88064 91.6714 4.96687 91.1334 4.11947 89.624C3.27208 88.1146 3.80527 86.2053 5.31439 85.353C6.82351 84.5007 8.73728 85.0388 9.58467 86.5481C9.64656 86.6577 9.69893 86.7719 9.74653 86.8862C14.65 87.0338 18.8489 89.9525 21.5767 92.4523C21.0007 90.2001 20.5389 87.9004 20.2009 85.5625C18.1586 85.5244 16.3067 84.9578 14.6643 84.1008C11.9697 83.6722 8.21837 82.6724 5.46673 80.3488C0.668019 76.2968 0.272888 65.4361 0.272888 65.4361C0.272888 65.4361 5.0954 67.8358 7.76135 68.5214C10.4273 69.2071 13.0076 71.3212 14.3881 74.6399C15.5545 77.4443 15.2546 80.4821 16.9351 83.0533C17.8777 83.3961 18.8822 83.6151 19.9486 83.6675C19.6629 81.1725 19.5153 78.6347 19.5153 76.0635C19.5153 74.3637 19.582 72.6639 19.7105 70.9783C18.7441 70.3689 17.9919 69.5737 17.235 68.8262C16.7161 68.3119 16.7018 68.2596 16.0734 67.9167C13.4598 66.4978 9.59419 63.9124 7.53284 60.189C4.22897 54.2229 8.02319 43.0431 8.02319 43.0431C8.02319 43.0431 11.9793 47.3141 14.4215 49.0425C16.8637 50.7709 18.6679 53.9134 18.787 57.8178C18.8869 61.0556 17.4635 63.9743 18.0872 67.1644C18.5965 67.8406 19.1869 68.4643 19.8819 69.0023C20.3818 64.379 21.3672 59.8271 22.8145 55.4323C21.5386 53.5801 20.9483 51.4708 20.7436 49.4282C20.7674 49.4663 16.916 43.4669 17.1683 37.8104C17.473 30.9968 26.5468 23.4547 26.5468 23.4499C26.5468 23.4499 27.6798 29.1874 28.8604 31.9395C30.0363 34.6916 29.9316 38.3103 27.994 41.7004C26.3516 44.5668 23.5333 46.3285 22.4431 49.4901C22.5955 50.7947 22.9287 52.1089 23.5428 53.3326C25.5756 47.7998 28.3701 42.5384 31.8311 37.6913C32.0405 37.3961 32.0882 37.2961 32.2167 36.9628C32.9927 34.9725 34.0495 32.0681 34.4209 30.1397C35.0397 26.9496 37.3439 23.7594 41.1571 21.8977C44.9656 20.036 49.3073 20.5693 52.4113 16.8459C52.4113 16.8459 52.9445 26.064 48.5123 32.0014C45.4131 36.1581 38.2341 38.0103 34.2019 38.7531C30.5029 43.824 27.5989 49.3949 25.5566 55.2657C25.4947 55.4514 25.428 55.6371 25.3661 55.8228C25.3947 55.8513 25.4185 55.8751 25.4471 55.9037C26.8419 56.0037 28.1892 55.7752 29.446 55.3561C29.6364 55.2943 29.6031 55.2609 29.6507 55.0943C30.1934 53.2516 31.017 50.3757 31.2217 48.5235C31.5407 45.6286 33.364 42.6146 36.6298 40.672C39.8956 38.7293 43.8088 38.8864 46.3081 35.3392C46.3081 35.3392 47.4555 43.5288 43.9374 49.152C41.5332 52.9945 35.5015 55.1609 31.9168 56.1513C29.8269 57.175 27.3942 57.8464 24.8139 57.5369C23.6285 61.4222 22.8145 65.4265 22.3908 69.5023C24.4283 66.3979 27.7607 62.6078 32.4404 61.2889C32.4595 61.146 32.4833 61.0032 32.5214 60.8651C32.9641 59.1891 34.6779 58.1939 36.3537 58.632C38.0294 59.0748 39.0291 60.7889 38.5864 62.4649C38.1437 64.1409 36.4298 65.1408 34.7541 64.698C33.8115 64.4504 33.0831 63.7981 32.707 62.9792C26.9324 64.7076 23.4048 70.7593 22.1099 73.3971C22.0718 74.2732 22.0575 75.1493 22.0575 76.0254C22.0575 81.2106 22.6812 86.2482 23.857 91.0667C24.8806 90.3906 25.7089 89.5383 26.3897 88.5956C26.4801 86.71 26.5706 83.4866 26.2945 81.5391C25.8898 78.6537 26.9086 75.2826 29.5936 72.5972C32.2786 69.9118 36.1109 69.0928 37.6533 65.0361C37.6533 65.0408 40.7906 72.6877 38.7721 79.0061C37.2582 83.7341 31.0361 87.5956 27.9988 89.2383C27.0752 90.6191 25.8708 91.8666 24.3093 92.7808C25.2424 96.1805 26.4468 99.4611 27.9036 102.604C28.6748 99.442 30.5219 94.414 34.7446 91.8C34.7255 91.6762 34.7113 91.5524 34.7113 91.4238C34.6779 89.9192 35.8681 88.6717 37.3724 88.6384C38.8768 88.6051 40.1241 89.7954 40.1574 91.3C40.1907 92.8046 39.0006 94.0521 37.4962 94.0855C36.6488 94.1045 35.8871 93.7379 35.373 93.1427C30.7266 96.1329 29.3222 102.537 28.9652 104.775C30.5029 107.784 32.2786 110.655 34.2638 113.364C34.7541 112.76 35.1492 112.117 35.4682 111.446C34.697 109.127 33.3116 104.003 34.8541 100.775C36.8964 96.4947 42.2759 94.0521 42.2807 94.0521C41.0953 96.9185 42.6901 99.223 42.771 101.932C42.8519 104.646 41.7284 106.903 40.105 108.203C39.3481 108.812 38.3769 109.827 37.5629 110.731C37.1059 112.155 36.3918 113.536 35.3159 114.755C36.0633 115.721 36.8393 116.664 37.6438 117.583C42.8138 116.25 49.3978 116.255 51.4687 118.016C52.3303 118.75 52.1447 119.988 52.1494 121.002C52.1637 123.363 52.1828 126.849 52.197 129.906C53.7823 130.882 55.4152 131.791 57.0862 132.624C61.823 133.348 67.0883 133.853 72.582 134.157ZM82.2223 138.952C80.4228 138.128 78.6042 137.271 76.7952 136.362C68.983 136.081 61.4422 135.41 54.9677 134.348C48.16 133.229 42.4806 131.605 38.734 129.448C38.8292 130.71 38.9006 132.086 38.9292 133.529C38.9815 136.562 38.4388 138.476 38.0104 140C37.6724 141.2 37.4391 142.033 37.9532 142.966C38.6959 144.314 46.3034 147.156 57.1148 149.532C65.3364 151.341 75.3527 152.332 85.3929 152.332C95.4283 152.332 105.245 151.337 113.466 149.532C124.278 147.156 131.88 144.314 132.628 142.966C133.142 142.033 132.909 141.204 132.566 140C132.137 138.476 131.595 136.562 131.647 133.529C131.671 132.086 131.747 130.71 131.842 129.448C128.096 131.601 122.411 133.229 115.609 134.343C109.139 135.405 101.603 136.076 93.8001 136.357C91.9911 137.262 90.1725 138.124 88.373 138.947L86.1355 139.971L85.3024 140.352L84.4693 139.971L82.2223 138.952ZM94.8284 92.6761L92.8956 94.6092V96.3662L96.5851 92.6761H94.8284ZM98.8369 92.6761L92.8956 98.6183V100.375L100.594 92.6761H98.8369ZM94.7285 100.794L92.9528 102.57C92.9908 103.127 93.0527 103.651 93.1337 104.146L95.0474 102.232C94.8522 101.794 94.738 101.313 94.7285 100.794ZM99.0844 96.4376L97.8943 97.6279C98.2656 97.6565 98.5989 97.7374 98.9035 97.8613C98.9083 97.3994 98.9702 96.9185 99.0844 96.4376ZM102.788 92.7332L102.764 92.757C103.036 93.057 103.288 93.3951 103.521 93.7569L104.364 92.9141C103.869 92.8332 103.345 92.7713 102.788 92.7332ZM95.9996 103.527L93.5812 105.946C93.7287 106.379 93.9001 106.789 94.1001 107.184L97.0279 104.256C96.6518 104.056 96.3042 103.813 95.9996 103.527ZM106.168 93.357L104.278 95.2472C104.454 95.69 104.592 96.1424 104.688 96.5947L107.406 93.876C107.011 93.6807 106.601 93.5046 106.168 93.357ZM99.113 124.468L113.366 110.212C112.09 112.55 110.515 114.674 108.72 116.616L106.511 118.826C104.25 120.916 101.741 122.778 99.113 124.468ZM90.0726 129.496L115.956 103.604C115.737 104.465 115.48 105.308 115.19 106.127L93.6811 127.634C92.4862 128.287 91.277 128.906 90.0726 129.496ZM59.7379 45.3572L58.8476 46.2476C58.9 45.9905 58.9524 45.7333 58.9904 45.4762C59.2428 45.4381 59.4903 45.3953 59.7379 45.3572ZM64.4366 44.6668L55.0296 54.0753C55.2534 53.8134 55.4628 53.5468 55.6628 53.2849C56.4816 52.2041 57.2147 50.9233 57.8003 49.5472L62.3895 44.9572C63.0703 44.8572 63.7511 44.762 64.4366 44.6668ZM75.7431 77.4491H73.9864L77.6759 73.759V75.516L75.7431 77.4491ZM71.7346 77.4491H69.978L77.6759 69.7499V71.5068L71.7346 77.4491ZM72.1107 73.0638C71.9203 72.9067 71.7537 72.7591 71.6061 72.5925C71.887 72.3829 72.0774 72.0639 72.1203 71.6973C72.1345 71.6925 72.1536 71.6925 72.1679 71.6878C74.0959 71.2116 75.8431 69.7404 75.8431 67.612V67.5739L77.4331 65.9836C77.514 66.4788 77.5759 67.0026 77.614 67.5596L72.1107 73.0638ZM67.7833 77.3919C67.2263 77.3539 66.7027 77.292 66.2076 77.211L67.2454 76.173C67.4263 76.573 67.6595 76.9539 67.9261 77.2491L67.7833 77.3919ZM75.4003 65.7693C75.1861 65.4027 74.8957 65.1028 74.5291 64.8837L76.4762 62.9363C76.6762 63.3315 76.8476 63.741 76.9951 64.1743L75.4003 65.7693ZM64.4033 76.7682C63.9701 76.6206 63.5559 76.4492 63.1655 76.2492L64.8032 74.6113C64.965 74.8874 65.2459 75.0731 65.5839 75.1112C65.7315 75.1255 65.8838 75.135 66.0457 75.1303L64.4033 76.7682ZM55.2676 68.112L80.2324 43.1431C80.8465 43.1098 81.4558 43.086 82.07 43.0622L55.4438 69.6927C55.3962 69.1642 55.3391 68.6357 55.2676 68.112ZM54.5916 64.7837L75.9383 43.4336C76.3905 43.3955 76.8476 43.3622 77.2998 43.3288L77.8378 43.2907L54.9249 66.2074C54.8201 65.7313 54.7106 65.2551 54.5916 64.7837ZM53.649 61.7174L71.5347 43.8335C72.1821 43.7669 72.8296 43.705 73.477 43.6478L54.0918 63.0363C53.9537 62.5887 53.8061 62.1507 53.649 61.7174ZM52.4494 58.9034L67.0169 44.3335C67.6833 44.2525 68.3451 44.1716 69.0116 44.1002L53.0063 60.108C52.8302 59.6986 52.6445 59.2986 52.4494 58.9034ZM107.435 97.8565L116.646 88.6432C116.599 88.1099 116.546 87.5766 116.489 87.0433L109.563 93.9712C109.548 94.4092 109.524 94.852 109.486 95.2996C109.258 95.0996 109.029 94.9139 108.796 94.7378L105.916 97.6184C106.002 97.6137 106.087 97.6089 106.178 97.6089C106.659 97.6137 107.078 97.6994 107.435 97.8565ZM108.991 100.309L116.899 92.3999C116.875 91.8428 116.846 91.2857 116.808 90.7334L108.601 98.9421C108.82 99.3373 108.948 99.7991 108.991 100.309ZM105.883 107.427L116.918 96.39C116.937 95.7948 116.946 95.1996 116.946 94.6044L105.33 106.222C105.388 106.27 105.449 106.318 105.511 106.365C105.845 106.622 105.983 107.022 105.883 107.427ZM64.1176 71.2878C64.4747 71.4592 64.8555 71.5926 65.2411 71.6878C65.2554 71.6925 65.2745 71.6973 65.2888 71.6973C65.2935 71.7497 65.303 71.7973 65.3126 71.8449L61.7802 75.3779C61.5469 75.2017 61.3184 75.016 61.0899 74.816C61.0518 75.2636 61.028 75.7064 61.0137 76.1445L54.644 82.5152C54.7297 81.8534 54.8154 81.182 54.9011 80.5012L64.1176 71.2878ZM62.0134 69.3833C62.2134 69.7499 62.4752 70.0832 62.7799 70.3736L55.1915 77.9633C55.2581 77.3205 55.32 76.673 55.3724 76.0254L62.0134 69.3833ZM54.4488 84.0532H55.3581L61.0613 78.3442C61.0994 78.8775 61.1613 79.406 61.2375 79.925L57.1148 84.0484H59.3665L61.604 81.8105C61.7135 82.2772 61.8373 82.7343 61.9801 83.1913L61.1232 84.0484H84.2789V60.8889L83.422 61.746C82.965 61.6079 82.5032 61.4841 82.0414 61.3698L84.2789 59.1319V56.8798L80.1562 61.0032C79.6325 60.927 79.1088 60.8651 78.5757 60.827L84.2837 55.1228V52.8707L76.381 60.7746C75.943 60.7842 75.5003 60.8127 75.0528 60.8508C75.2527 61.0794 75.4384 61.3079 75.6146 61.5412L72.6392 64.5171C72.2869 64.5504 71.9679 64.6314 71.6775 64.7504C71.6728 64.4409 71.6442 64.1267 71.5918 63.8124L84.2837 51.1185V48.8663L71.092 62.0602C70.9253 61.6555 70.7302 61.2555 70.5112 60.8841L84.2837 47.1094V44.8572L69.5543 59.5843C69.521 59.5462 69.4876 59.5129 69.4543 59.4795C69.2496 59.27 68.9973 59.1605 68.7069 59.1605C68.4117 59.1605 68.1594 59.2653 67.9595 59.4795C67.0359 60.4366 66.3028 61.8079 65.9552 63.1839L64.6318 64.5076C64.5556 64.5028 64.4794 64.5028 64.3985 64.5028C62.5085 64.5028 61.5755 65.8265 61.5659 67.5787L55.5152 73.6304C55.5342 73.0353 55.5438 72.4401 55.539 71.8497L84.2837 43.1003V43.0051H84.2979H84.3122H84.3265H84.3408H84.3551H84.3693C84.6788 43.0003 84.9835 43.0003 85.2929 43.0003C87.9589 43.0003 90.6296 43.1288 93.2908 43.3241C99.3225 43.7621 105.554 44.4906 111.595 45.4715C112.057 48.3331 113.343 51.1852 114.928 53.2802C115.989 54.6848 117.418 56.1323 119.003 57.2988C117.222 60.308 116.094 63.7791 115.461 67.2502C114.518 72.421 115.413 78.2633 116.066 83.4389C116.175 84.315 116.28 85.1864 116.38 86.0625H115.213L109.505 91.7666C109.467 91.2334 109.405 90.7048 109.329 90.1859L113.452 86.0625H111.2L108.963 88.3003C108.853 87.8337 108.729 87.3719 108.587 86.9195L109.439 86.0672H86.2831V109.227L87.1353 108.374C87.5923 108.513 88.0541 108.636 88.5159 108.751L86.2784 110.988V113.241L90.4011 109.117C90.9247 109.193 91.4484 109.255 91.9816 109.293L86.2784 115.002V117.254L94.181 109.346C94.619 109.336 95.0617 109.308 95.5092 109.27C95.3093 109.041 95.1236 108.812 94.9475 108.579L98.4846 105.041C98.5655 105.308 98.7322 105.541 98.9511 105.703C98.7464 105.937 98.4989 106.137 98.2085 106.365C97.8752 106.627 97.7372 107.036 97.8419 107.441L86.2784 119.007V121.259L99.3034 108.232C99.5557 108.222 99.8176 108.189 100.056 108.141C100.06 108.16 100.06 108.179 100.065 108.198C100.108 108.46 100.184 108.732 100.284 109.008L86.2784 123.016V125.268L101.132 110.412C101.327 110.608 101.574 110.708 101.855 110.708C102.16 110.708 102.422 110.588 102.626 110.365C103.131 109.803 103.526 108.936 103.645 108.203C103.65 108.184 103.65 108.165 103.655 108.146C104.083 108.227 104.569 108.265 104.978 108.222C105.021 108.217 105.064 108.208 105.107 108.198L86.2831 127.025V129.277L116.756 98.7992C116.704 99.3563 116.642 99.9134 116.561 100.47C116.546 100.58 116.527 100.69 116.513 100.799L86.2831 131.034V131.305C85.9499 131.458 85.6166 131.615 85.2834 131.767C72.0203 125.701 56.3245 117.24 54.0061 100.47C53.2539 94.9615 53.7776 89.5193 54.4488 84.0532ZM101.027 70.545C100.965 69.9451 100.803 68.8309 100.389 67.9691C99.789 66.7264 99.1035 65.5456 97.561 65.5456C96.0186 65.5456 95.7663 66.755 95.7663 67.6073C95.7663 69.3023 97.2897 70.3355 98.6512 70.6736C98.2751 70.3355 97.6467 69.1785 98.2942 68.9119C99.0035 68.6214 99.8081 69.7975 100.094 70.545H101.027ZM101.37 70.545H101.869H102.369C102.46 67.7406 103.802 67.3882 103.802 64.8456C103.802 62.2126 101.874 60.208 101.874 60.208C101.874 60.208 99.9461 62.2126 99.9461 64.8456C99.9366 67.393 101.279 67.7406 101.37 70.545ZM101.869 76.5587C101.869 76.5587 102.484 75.8683 102.631 74.9303C102.779 73.9875 102.603 73.1971 102.603 73.1971C102.603 73.1971 102.979 73.8114 103.664 73.9733C104.35 74.1399 104.878 74.078 104.878 74.078C104.055 73.4352 103.612 72.9638 103.302 72.102H101.874H100.446C100.137 72.9638 99.6938 73.4352 98.8702 74.078C98.8702 74.078 99.3939 74.1399 100.084 73.9733C100.774 73.8066 101.146 73.1971 101.146 73.1971C101.146 73.1971 100.965 73.9923 101.117 74.9303C101.255 75.8683 101.869 76.5587 101.869 76.5587ZM101.869 70.8307H99.7462C99.6033 70.8307 99.4843 70.9498 99.4843 71.0926V71.5545C99.4843 71.6973 99.6033 71.8163 99.7462 71.8163H101.869H103.993C104.135 71.8163 104.254 71.6973 104.254 71.5545V71.0926C104.254 70.9498 104.135 70.8307 103.993 70.8307H101.869ZM102.707 70.545H103.64C103.931 69.7975 104.735 68.6214 105.44 68.9119C106.087 69.1785 105.454 70.3355 105.083 70.6736C106.444 70.3355 107.968 69.3023 107.968 67.6073C107.968 66.7502 107.715 65.5456 106.173 65.5456C104.631 65.5456 103.945 66.7264 103.345 67.9691C102.936 68.8309 102.769 69.9451 102.707 70.545ZM67.8595 103.651C67.7976 103.051 67.6357 101.937 67.2216 101.075C66.6217 99.8325 65.9362 98.6516 64.3938 98.6516C62.8513 98.6516 62.599 99.861 62.599 100.718C62.599 102.413 64.1224 103.446 65.4839 103.784C65.1078 103.446 64.4747 102.289 65.1269 102.023C65.8362 101.732 66.636 102.904 66.9264 103.651H67.8595ZM68.2023 103.651H68.7021H69.202C69.2924 100.847 70.6349 100.494 70.6349 97.9517C70.6349 95.3187 68.7069 93.3141 68.7069 93.3141C68.7069 93.3141 66.7788 95.3187 66.7788 97.9517C66.7741 100.494 68.1166 100.847 68.2023 103.651ZM68.7021 109.665C68.7021 109.665 69.3162 108.979 69.4638 108.036C69.6114 107.094 69.4353 106.303 69.4353 106.303C69.4353 106.303 69.8113 106.917 70.4969 107.079C71.1872 107.246 71.7108 107.184 71.7108 107.184C70.8873 106.541 70.4398 106.065 70.1351 105.208H68.7069H67.2787C66.9693 106.07 66.5265 106.541 65.7029 107.184C65.7029 107.184 66.2266 107.246 66.9121 107.079C67.6024 106.913 67.9738 106.303 67.9738 106.303C67.9738 106.303 67.7928 107.098 67.9452 108.036C68.088 108.974 68.7021 109.665 68.7021 109.665ZM68.7021 103.932H66.5789C66.4361 103.932 66.317 104.051 66.317 104.194V104.656C66.317 104.799 66.4361 104.918 66.5789 104.918H68.7021H70.8254C70.9682 104.918 71.0872 104.799 71.0872 104.656V104.194C71.0872 104.051 70.9682 103.932 70.8254 103.932H68.7021ZM69.5448 103.651H70.4778C70.7682 102.904 71.5728 101.728 72.2774 102.023C72.9248 102.289 72.2916 103.446 71.9203 103.784C73.2818 103.446 74.8052 102.413 74.8052 100.718C74.8052 99.861 74.5529 98.6516 73.0105 98.6516C71.4681 98.6516 70.7825 99.8325 70.1827 101.075C69.7685 101.937 69.6066 103.051 69.5448 103.651ZM67.8595 70.545H66.9312C66.6408 69.7975 65.841 68.6214 65.1317 68.9119C64.4842 69.1785 65.1174 70.3355 65.4887 70.6736C64.1272 70.3355 62.6038 69.3023 62.6038 67.6073C62.6038 66.7502 62.8561 65.5456 64.3985 65.5456C65.941 65.5456 66.6265 66.7264 67.2263 67.9691C67.6357 68.8309 67.8024 69.9451 67.8595 70.545ZM68.2023 70.545C68.1118 67.7406 66.7693 67.3882 66.7693 64.8456C66.7693 62.2126 68.6974 60.208 68.6974 60.208C68.6974 60.208 70.6254 62.2126 70.6254 64.8456C70.6254 67.393 69.2829 67.7406 69.1925 70.545H68.6926H68.2023ZM68.7021 76.5587C68.7021 76.5587 68.088 75.8683 67.9404 74.9303C67.7928 73.9875 67.969 73.1971 67.969 73.1971C67.969 73.1971 67.5929 73.8114 66.9074 73.9733C66.2218 74.1399 65.6982 74.078 65.6982 74.078C66.5218 73.4352 66.9645 72.9638 67.2739 72.102H68.7021H70.1303C70.4398 72.9638 70.8825 73.4352 71.7061 74.078C71.7061 74.078 71.1824 74.1399 70.4921 73.9733C69.8066 73.8066 69.4305 73.1971 69.4305 73.1971C69.4305 73.1971 69.6114 73.9923 69.4591 74.9303C69.3162 75.8683 68.7021 76.5587 68.7021 76.5587ZM68.7021 70.8307H70.8254C70.9682 70.8307 71.0872 70.9498 71.0872 71.0926V71.5545C71.0872 71.6973 70.9682 71.8163 70.8254 71.8163H68.7021H66.5789C66.4361 71.8163 66.317 71.6973 66.317 71.5545V71.0926C66.317 70.9498 66.4361 70.8307 66.5789 70.8307H68.7021ZM69.5448 70.545C69.6066 69.9451 69.7685 68.8309 70.1827 67.9691C70.7825 66.7264 71.4681 65.5456 73.0105 65.5456C74.5529 65.5456 74.8052 66.755 74.8052 67.6073C74.8052 69.3023 73.2818 70.3355 71.9203 70.6736C72.2964 70.3355 72.9296 69.1785 72.2774 68.9119C71.568 68.6214 70.7635 69.7975 70.4778 70.545H69.5448ZM101.027 103.651C100.965 103.051 100.803 101.937 100.389 101.075C99.789 99.8325 99.1035 98.6516 97.561 98.6516C96.0186 98.6516 95.7663 99.861 95.7663 100.718C95.7663 102.413 97.2897 103.446 98.6512 103.784C98.2751 103.446 97.6467 102.289 98.2942 102.023C99.0035 101.732 99.8081 102.904 100.094 103.651H101.027ZM101.37 103.651C101.279 100.847 99.9366 100.494 99.9366 97.9517C99.9366 95.3187 101.865 93.3141 101.865 93.3141C101.865 93.3141 103.793 95.3187 103.793 97.9517C103.793 100.499 102.45 100.847 102.36 103.651H101.86H101.37ZM101.869 109.665C101.869 109.665 102.484 108.979 102.631 108.036C102.779 107.094 102.603 106.303 102.603 106.303C102.603 106.303 102.979 106.917 103.664 107.079C104.35 107.246 104.878 107.184 104.878 107.184C104.055 106.541 103.612 106.065 103.302 105.208H101.874H100.446C100.137 106.07 99.6938 106.541 98.8702 107.184C98.8702 107.184 99.3939 107.246 100.084 107.079C100.774 106.913 101.146 106.303 101.146 106.303C101.146 106.303 100.965 107.098 101.117 108.036C101.255 108.974 101.869 109.665 101.869 109.665ZM101.869 103.932H103.993C104.135 103.932 104.254 104.051 104.254 104.194V104.656C104.254 104.799 104.135 104.918 103.993 104.918H101.869H99.7462C99.6033 104.918 99.4843 104.799 99.4843 104.656V104.194C99.4843 104.051 99.6033 103.932 99.7462 103.932H101.869ZM102.707 103.651C102.769 103.051 102.931 101.937 103.345 101.075C103.945 99.8325 104.631 98.6516 106.173 98.6516C107.715 98.6516 107.968 99.861 107.968 100.718C107.968 102.413 106.444 103.446 105.083 103.784C105.459 103.446 106.087 102.289 105.44 102.023C104.731 101.732 103.926 102.904 103.64 103.651H102.707ZM51.5829 57.3083C51.9304 57.0512 52.2732 56.7846 52.6017 56.5036L51.6591 57.4464L51.5829 57.3083ZM125.216 142.628C125.097 141.614 124.987 140.595 124.878 139.581C124.768 138.567 124.644 137.548 124.535 136.529C125.439 136.338 126.325 136.148 127.229 135.957C127.253 136.157 127.282 136.357 127.296 136.552C126.634 136.705 125.972 136.857 125.306 137.005C125.349 137.338 125.377 137.676 125.415 138.009C125.454 138.343 125.501 138.676 125.525 139.009C126.101 138.847 126.668 138.69 127.248 138.528C127.272 138.728 127.301 138.928 127.315 139.128C126.739 139.3 126.168 139.466 125.592 139.638C125.634 139.99 125.673 140.338 125.711 140.685C125.749 141.033 125.787 141.385 125.839 141.733C126.491 141.504 127.158 141.271 127.82 141.038C127.839 141.238 127.862 141.438 127.891 141.633C127.006 141.971 126.111 142.299 125.216 142.628ZM122.116 143.58C122.007 142.514 121.902 141.442 121.788 140.376C121.678 139.309 121.564 138.238 121.459 137.167C121.693 137.124 121.931 137.081 122.173 137.029C122.278 137.976 122.373 138.924 122.464 139.871C122.559 140.819 122.664 141.766 122.764 142.709C123.373 142.538 123.997 142.366 124.616 142.176C124.635 142.395 124.659 142.609 124.687 142.823C123.83 143.09 122.978 143.337 122.116 143.58ZM120.388 144.071C120.279 142.971 120.174 141.871 120.06 140.776C119.95 139.676 119.846 138.576 119.741 137.481C119.974 137.438 120.212 137.395 120.455 137.348C120.56 138.433 120.674 139.519 120.783 140.609C120.893 141.695 121.007 142.78 121.112 143.866C120.869 143.933 120.626 144.004 120.388 144.071ZM118.251 139.533C118.222 139.19 118.122 138.943 117.96 138.786C117.798 138.633 117.556 138.581 117.222 138.647C117.061 138.681 116.884 138.709 116.732 138.738C116.756 139.095 116.799 139.457 116.827 139.814C116.856 140.171 116.889 140.528 116.923 140.89C117.084 140.862 117.241 140.828 117.413 140.795C117.746 140.728 117.97 140.585 118.117 140.371C118.236 140.157 118.279 139.881 118.251 139.533ZM118.57 142.395C118.536 142.033 118.446 141.761 118.303 141.595C118.156 141.419 117.889 141.376 117.513 141.452C117.332 141.49 117.161 141.523 116.98 141.557C117.022 141.976 117.046 142.399 117.089 142.823C117.132 143.242 117.165 143.666 117.199 144.085C117.389 144.047 117.57 144.004 117.765 143.961C117.97 143.918 118.122 143.847 118.246 143.742C118.37 143.642 118.441 143.518 118.489 143.385C118.536 143.242 118.57 143.095 118.574 142.923C118.584 142.757 118.589 142.58 118.57 142.395ZM118.408 140.942C118.693 140.976 118.903 141.119 119.027 141.366C119.16 141.619 119.241 141.938 119.274 142.323C119.341 143.009 119.255 143.537 119.008 143.909C118.755 144.28 118.36 144.528 117.784 144.656C117.365 144.752 116.951 144.842 116.537 144.933C116.432 143.799 116.332 142.666 116.237 141.538C116.142 140.404 116.037 139.276 115.937 138.138C116.394 138.071 116.832 138.005 117.289 137.919C117.832 137.819 118.232 137.9 118.494 138.167C118.746 138.428 118.884 138.843 118.941 139.405C118.979 139.757 118.955 140.047 118.879 140.266C118.803 140.495 118.646 140.704 118.408 140.9C118.408 140.919 118.408 140.933 118.408 140.942ZM113.742 139.909C113.69 140.457 113.647 141.004 113.604 141.552C113.542 142.104 113.485 142.661 113.423 143.218C113.819 143.152 114.209 143.085 114.614 143.023C114.456 142.499 114.314 141.971 114.176 141.447C114.038 140.933 113.909 140.419 113.78 139.904C113.761 139.904 113.752 139.904 113.742 139.909ZM115.232 145.199C115.085 144.709 114.942 144.214 114.804 143.718C114.323 143.799 113.847 143.88 113.366 143.961C113.304 144.49 113.257 145.018 113.209 145.547C112.962 145.59 112.728 145.632 112.486 145.671C112.624 144.48 112.771 143.285 112.9 142.095C113.028 140.909 113.176 139.719 113.314 138.538C113.547 138.505 113.771 138.467 114.004 138.433C114.314 139.543 114.647 140.652 114.975 141.761C115.304 142.866 115.623 143.971 115.966 145.061C115.713 145.113 115.471 145.156 115.232 145.199ZM110.738 141.081C110.6 141.585 110.462 142.09 110.324 142.595C110.143 143.19 109.953 143.785 109.772 144.38C109.663 144.395 109.539 144.409 109.429 144.423C109.172 143.885 108.906 143.347 108.653 142.804C108.449 142.342 108.239 141.88 108.034 141.419C108.015 141.419 108.011 141.423 108.001 141.423C108.063 142.238 108.111 143.047 108.163 143.856C108.215 144.666 108.268 145.48 108.325 146.29C108.082 146.323 107.825 146.356 107.582 146.385C107.506 145.213 107.425 144.042 107.349 142.871C107.277 141.7 107.201 140.528 107.125 139.352C107.368 139.319 107.625 139.29 107.858 139.262C108.015 139.614 108.177 139.962 108.325 140.309C108.472 140.657 108.625 141.009 108.772 141.352C109.02 141.9 109.244 142.447 109.486 142.99C109.496 142.99 109.51 142.985 109.52 142.985C109.677 142.376 109.829 141.757 110.01 141.147C110.096 140.776 110.201 140.404 110.296 140.038C110.391 139.671 110.496 139.295 110.596 138.924C110.838 138.89 111.095 138.862 111.343 138.828C111.438 139.99 111.524 141.147 111.61 142.304C111.695 143.461 111.781 144.618 111.876 145.775C111.629 145.818 111.376 145.861 111.134 145.904C111.072 145.099 111.015 144.29 110.953 143.485C110.891 142.68 110.834 141.871 110.781 141.066C110.772 141.076 110.757 141.076 110.738 141.081ZM105.806 146.618C105.74 145.437 105.668 144.256 105.602 143.08C105.535 141.9 105.454 140.723 105.388 139.543C105.621 139.519 105.868 139.495 106.111 139.471C106.187 140.647 106.263 141.823 106.335 142.999C106.406 144.175 106.482 145.352 106.559 146.523C106.306 146.556 106.049 146.59 105.806 146.618ZM103.783 140.438C103.845 141.5 103.902 142.557 103.964 143.614C104.026 144.671 104.083 145.728 104.145 146.785C103.888 146.809 103.636 146.832 103.398 146.856C103.336 145.799 103.293 144.737 103.236 143.68C103.174 142.623 103.117 141.566 103.064 140.504C102.683 140.538 102.326 140.571 101.965 140.604C101.955 140.357 101.941 140.109 101.931 139.862C102.893 139.766 103.869 139.676 104.85 139.59C104.859 139.838 104.873 140.085 104.892 140.333C104.507 140.371 104.145 140.404 103.783 140.438ZM101.855 145.056C101.874 145.361 101.85 145.642 101.812 145.89C101.774 146.142 101.703 146.361 101.579 146.547C101.47 146.732 101.312 146.885 101.122 146.999C100.922 147.113 100.684 147.185 100.398 147.213C100.132 147.237 99.908 147.218 99.6938 147.147C99.4939 147.08 99.3415 146.97 99.2035 146.832C99.0654 146.694 98.9654 146.528 98.894 146.332C98.8226 146.142 98.7893 145.928 98.7845 145.694C99.0273 145.628 99.2749 145.556 99.5177 145.485C99.5177 145.623 99.5462 145.747 99.5796 145.866C99.6081 145.985 99.6557 146.09 99.7176 146.18C99.7843 146.275 99.8699 146.342 99.9747 146.39C100.079 146.437 100.208 146.451 100.356 146.437C100.555 146.418 100.698 146.37 100.803 146.299C100.913 146.223 100.998 146.128 101.046 146.013C101.093 145.899 101.127 145.761 101.132 145.609C101.136 145.461 101.127 145.299 101.122 145.137C101.117 144.928 101.089 144.761 101.055 144.623C101.022 144.494 100.998 144.375 100.927 144.285C100.851 144.19 100.76 144.114 100.641 144.047C100.527 143.98 100.375 143.914 100.17 143.837C99.8604 143.718 99.6081 143.595 99.4129 143.452C99.232 143.323 99.0749 143.171 98.9749 143.018C98.8702 142.861 98.7988 142.695 98.7607 142.519C98.7226 142.338 98.6893 142.138 98.6845 141.923C98.6798 141.652 98.6941 141.4 98.7464 141.166C98.7988 140.933 98.8845 140.723 99.0035 140.552C99.1273 140.371 99.2796 140.238 99.47 140.133C99.6605 140.028 99.8842 139.966 100.132 139.952C100.417 139.933 100.651 139.966 100.846 140.052C101.046 140.133 101.198 140.243 101.317 140.385C101.446 140.523 101.527 140.69 101.584 140.866C101.641 141.047 101.679 141.223 101.688 141.4C101.446 141.49 101.198 141.585 100.955 141.671C100.946 141.352 100.884 141.104 100.755 140.942C100.622 140.771 100.417 140.704 100.117 140.723C99.9604 140.733 99.8319 140.776 99.7366 140.852C99.6414 140.928 99.5795 141.023 99.5319 141.128C99.4796 141.238 99.4415 141.357 99.4272 141.49C99.4129 141.623 99.4129 141.747 99.4177 141.871C99.4224 142.023 99.432 142.152 99.451 142.266C99.4748 142.38 99.5224 142.48 99.5986 142.576C99.6748 142.671 99.7795 142.761 99.908 142.847C100.056 142.933 100.251 143.018 100.494 143.099C100.779 143.199 101.017 143.309 101.184 143.428C101.365 143.542 101.493 143.68 101.589 143.837C101.684 143.99 101.75 144.171 101.788 144.371C101.812 144.566 101.841 144.794 101.855 145.056ZM95.5711 147.447C95.5283 146.256 95.4854 145.071 95.4521 143.88C95.4188 142.69 95.3759 141.504 95.3331 140.314C96.2519 140.262 97.185 140.204 98.1038 140.143C98.1133 140.39 98.1228 140.643 98.1276 140.89C97.4468 140.938 96.766 140.976 96.09 141.023C96.1091 141.423 96.1186 141.819 96.1329 142.219C96.1471 142.618 96.1662 143.014 96.1757 143.409C96.7708 143.371 97.3611 143.337 97.9562 143.295C97.9657 143.542 97.98 143.795 97.98 144.042C97.3849 144.08 96.7946 144.118 96.1995 144.156C96.2185 144.575 96.2281 144.99 96.2423 145.409C96.2566 145.823 96.2662 146.237 96.2852 146.656C96.985 146.613 97.6705 146.57 98.3703 146.528C98.3703 146.775 98.3894 147.028 98.3941 147.275C97.4563 147.332 96.5185 147.385 95.5711 147.447ZM93.0146 141.871C92.9289 142.428 92.8575 142.99 92.7814 143.547C92.6957 144.109 92.6005 144.671 92.5148 145.233C92.9099 145.218 93.3146 145.204 93.7287 145.194C93.6002 144.633 93.4812 144.071 93.3669 143.509C93.2479 142.961 93.1432 142.414 93.048 141.871C93.0337 141.866 93.0242 141.871 93.0146 141.871ZM94.2476 147.528C94.1191 146.999 94.0001 146.47 93.8858 145.942C93.3955 145.956 92.9052 145.971 92.4148 145.985C92.3386 146.518 92.2529 147.051 92.172 147.585C91.9292 147.589 91.6912 147.599 91.4484 147.604C91.6483 146.404 91.8531 145.209 92.053 144.009C92.2529 142.809 92.4576 141.609 92.6624 140.409C92.8766 140.4 93.1099 140.39 93.3431 140.385C93.6097 141.571 93.8811 142.757 94.1524 143.942C94.4238 145.123 94.6951 146.304 94.9713 147.48C94.7285 147.494 94.4857 147.513 94.2476 147.528ZM88.2064 142.785C88.2159 143.604 88.2302 144.423 88.2397 145.242C88.2493 146.061 88.2635 146.88 88.2826 147.699C88.0255 147.699 87.7732 147.694 87.5256 147.694C87.5018 146.499 87.4923 145.304 87.4733 144.109C87.4542 142.914 87.4399 141.714 87.4304 140.519C87.6542 140.519 87.8875 140.514 88.1255 140.514C88.3588 141.119 88.592 141.723 88.8301 142.328C89.0633 142.928 89.3014 143.533 89.5346 144.133C89.6822 144.566 89.8536 144.994 90.0154 145.428C90.025 145.423 90.044 145.423 90.0583 145.418C90.0345 144.599 90.025 143.78 90.0059 142.961C89.9869 142.142 89.9726 141.323 89.9536 140.504C90.1964 140.5 90.4344 140.495 90.6867 140.485C90.7105 141.676 90.7343 142.866 90.7629 144.056C90.7914 145.247 90.8152 146.437 90.8486 147.627C90.6153 147.632 90.3773 147.642 90.144 147.647C89.9012 147.056 89.6584 146.461 89.4204 145.866C89.1823 145.275 88.9538 144.675 88.7158 144.08C88.5349 143.647 88.3826 143.218 88.2255 142.79C88.2207 142.785 88.2112 142.785 88.2064 142.785ZM85.7595 147.689C85.7404 146.499 85.7356 145.304 85.7261 144.114C85.7166 142.923 85.6928 141.728 85.6928 140.538C85.9356 140.538 86.1831 140.533 86.4307 140.533C86.4402 141.728 86.4593 142.918 86.4735 144.114C86.4878 145.309 86.4973 146.499 86.5164 147.694C86.2593 147.689 86.0118 147.689 85.7595 147.689ZM82.2223 141.242C82.2128 142.314 82.2175 143.385 82.2223 144.461C82.2271 145.532 82.2128 146.604 82.2223 147.68C81.9748 147.67 81.732 147.666 81.4844 147.651C81.4844 146.58 81.4939 145.509 81.4939 144.442C81.4939 143.371 81.4939 142.299 81.5034 141.228C81.1321 141.219 80.7608 141.214 80.3847 141.204C80.3942 140.952 80.3847 140.704 80.3942 140.452C81.3749 140.471 82.3413 140.49 83.3268 140.504C83.3268 140.757 83.3268 141.004 83.3268 141.257C82.9554 141.257 82.5841 141.247 82.2223 141.242ZM80.0467 145.652C80.0419 145.961 80.0134 146.237 79.961 146.48C79.9039 146.728 79.8134 146.932 79.6849 147.109C79.5564 147.28 79.3993 147.413 79.1945 147.504C79.0041 147.594 78.7661 147.632 78.4614 147.623C78.2043 147.613 77.9711 147.561 77.7806 147.475C77.5664 147.38 77.4141 147.27 77.2903 147.113C77.1665 146.966 77.0808 146.78 77.0237 146.585C76.9618 146.38 76.9285 146.166 76.9285 145.932C77.1856 145.89 77.4284 145.842 77.6854 145.794C77.6854 145.932 77.695 146.061 77.7188 146.18C77.7426 146.304 77.7902 146.409 77.8473 146.509C77.9044 146.609 77.9758 146.69 78.0806 146.747C78.1901 146.809 78.3233 146.837 78.4662 146.842C78.6566 146.847 78.8137 146.823 78.9232 146.761C79.0279 146.699 79.1136 146.613 79.1707 146.504C79.2279 146.394 79.2422 146.261 79.2564 146.109C79.2755 145.961 79.2802 145.799 79.2802 145.637C79.285 145.423 79.2755 145.252 79.2564 145.118C79.2374 144.985 79.1945 144.866 79.1374 144.766C79.0851 144.666 78.9946 144.571 78.8803 144.494C78.7613 144.414 78.6042 144.323 78.4138 144.228C78.1044 144.071 77.8616 143.918 77.6759 143.761C77.495 143.609 77.3569 143.447 77.2617 143.28C77.1665 143.114 77.1046 142.938 77.0713 142.757C77.038 142.571 77.0189 142.371 77.0189 142.147C77.0189 141.871 77.0665 141.623 77.1332 141.395C77.1951 141.171 77.2903 140.971 77.4188 140.809C77.5474 140.647 77.7188 140.523 77.9187 140.438C78.1091 140.352 78.3329 140.319 78.5899 140.328C78.8756 140.343 79.1088 140.4 79.2898 140.504C79.4802 140.609 79.6325 140.743 79.7563 140.9C79.861 141.057 79.9467 141.228 79.9991 141.414C80.0515 141.6 80.0657 141.78 80.061 141.961C79.8087 142.023 79.5611 142.08 79.3136 142.138C79.3231 141.819 79.2612 141.566 79.1517 141.385C79.0422 141.204 78.8423 141.109 78.5471 141.095C78.3852 141.085 78.2615 141.114 78.1615 141.181C78.0663 141.242 77.9853 141.328 77.9282 141.433C77.8711 141.538 77.833 141.657 77.814 141.785C77.7949 141.919 77.7902 142.042 77.7902 142.166C77.7902 142.319 77.7902 142.452 77.8092 142.561C77.8282 142.676 77.852 142.785 77.9282 142.885C77.9949 142.99 78.0901 143.09 78.2281 143.19C78.3662 143.29 78.5471 143.399 78.7899 143.509C79.0755 143.642 79.304 143.78 79.4707 143.923C79.6325 144.061 79.7611 144.218 79.842 144.385C79.9277 144.552 79.9991 144.737 80.0229 144.947C80.0372 145.156 80.0467 145.39 80.0467 145.652ZM73.6437 147.294C73.6675 146.104 73.696 144.913 73.7198 143.723C73.7436 142.533 73.7627 141.342 73.7865 140.152C74.71 140.214 75.6384 140.252 76.5667 140.295C76.5667 140.547 76.5667 140.795 76.5476 141.047C75.8573 141.014 75.1718 140.981 74.5006 140.952C74.491 141.352 74.4815 141.752 74.4768 142.147C74.4672 142.547 74.4672 142.942 74.4577 143.342C75.0433 143.376 75.6479 143.409 76.2382 143.437C76.2382 143.69 76.2382 143.942 76.2287 144.19C75.6241 144.156 75.0338 144.123 74.4292 144.085C74.4196 144.504 74.4196 144.918 74.4101 145.337C74.4006 145.751 74.3863 146.171 74.3863 146.59C75.0766 146.632 75.7717 146.68 76.4715 146.718C76.4715 146.97 76.4715 147.218 76.4715 147.47C75.5241 147.423 74.5815 147.361 73.6437 147.294ZM70.2589 141.695C70.2636 141.571 70.2541 141.442 70.2398 141.314C70.2255 141.185 70.197 141.066 70.1446 140.952C70.097 140.847 70.0303 140.752 69.9304 140.671C69.8352 140.595 69.7066 140.547 69.5257 140.533C69.3353 140.519 69.2068 140.557 69.0973 140.647C68.983 140.733 68.9116 140.842 68.8545 140.976C68.7973 141.109 68.7783 141.252 68.7593 141.4C68.7402 141.552 68.7402 141.676 68.7355 141.78C68.7069 142.352 68.7021 142.928 68.6736 143.504C68.6498 144.076 68.6402 144.652 68.6117 145.223C68.6069 145.323 68.6164 145.437 68.6307 145.552C68.645 145.671 68.6831 145.785 68.7355 145.89C68.7973 145.999 68.864 146.09 68.9592 146.166C69.0544 146.242 69.183 146.285 69.34 146.299C69.5019 146.313 69.6304 146.294 69.7257 146.237C69.8256 146.175 69.9018 146.099 69.9685 145.999C70.0351 145.894 70.0827 145.78 70.1065 145.647C70.1303 145.509 70.1446 145.371 70.1494 145.228C70.1684 144.642 70.1827 144.052 70.2017 143.461C70.216 142.871 70.2398 142.285 70.2589 141.695ZM70.8968 145.18C70.8825 145.818 70.7397 146.294 70.4921 146.632C70.2589 146.956 69.8732 147.104 69.321 147.047C68.7783 146.989 68.3927 146.789 68.1737 146.447C67.9547 146.099 67.85 145.666 67.8738 145.147C67.8976 144.561 67.9214 143.98 67.9357 143.395C67.95 142.814 67.9785 142.228 67.9976 141.642C68.0071 141.39 68.0309 141.147 68.0832 140.914C68.1356 140.681 68.2165 140.476 68.3308 140.3C68.4451 140.124 68.5974 139.99 68.7973 139.895C68.9878 139.8 69.2544 139.766 69.5638 139.785C69.8828 139.809 70.1351 139.876 70.3398 139.99C70.5302 140.1 70.6683 140.252 70.7682 140.438C70.873 140.623 70.9396 140.838 70.9682 141.081C70.992 141.323 70.992 141.59 70.9872 141.876C70.9777 142.428 70.9587 142.98 70.9444 143.528C70.9206 144.075 70.9063 144.633 70.8968 145.18ZM66.0933 146.637C66.1361 145.456 66.1838 144.271 66.2314 143.09C66.279 141.909 66.3266 140.728 66.3789 139.543C66.6027 139.566 66.8598 139.59 67.1026 139.614C67.0597 140.8 67.0216 141.98 66.974 143.166C66.9264 144.347 66.8788 145.532 66.836 146.713C66.5836 146.689 66.3361 146.661 66.0933 146.637ZM64.708 140.124C64.6556 141.181 64.6032 142.238 64.5604 143.29C64.5175 144.347 64.4652 145.404 64.4223 146.461C64.17 146.437 63.9225 146.409 63.6797 146.37C63.7225 145.318 63.7796 144.266 63.8272 143.209C63.8749 142.157 63.9225 141.1 63.9748 140.047C63.594 140.004 63.2369 139.957 62.8751 139.914C62.8846 139.666 62.8989 139.424 62.918 139.176C63.8844 139.295 64.846 139.39 65.8267 139.49C65.8077 139.738 65.8077 139.985 65.8029 140.233C65.4221 140.195 65.0602 140.157 64.708 140.124ZM61.2279 138.905C61.7278 138.967 62.0753 139.162 62.2848 139.485C62.499 139.814 62.5847 140.214 62.5704 140.69C62.3181 140.704 62.0706 140.719 61.8278 140.738C61.8468 140.428 61.8087 140.176 61.7183 139.981C61.6231 139.785 61.4422 139.671 61.1851 139.638C61.028 139.619 60.8995 139.638 60.8042 139.7C60.709 139.762 60.6424 139.843 60.5805 139.947C60.5186 140.052 60.471 140.166 60.452 140.3C60.4282 140.433 60.4139 140.557 60.4091 140.676C60.371 141.262 60.3425 141.852 60.3139 142.438C60.2853 143.023 60.2472 143.614 60.2092 144.199C60.2044 144.299 60.2092 144.409 60.2187 144.528C60.2282 144.647 60.2663 144.756 60.3139 144.866C60.3615 144.971 60.4282 145.061 60.5186 145.142C60.5995 145.218 60.7186 145.275 60.8709 145.294C61.1089 145.328 61.2898 145.271 61.4136 145.128C61.5421 144.98 61.6136 144.737 61.6374 144.385C61.8897 144.466 62.1277 144.552 62.3848 144.633C62.3515 145.137 62.2039 145.518 61.9563 145.761C61.6945 146.013 61.3374 146.099 60.8566 146.028C60.3567 145.956 59.9949 145.756 59.7617 145.428C59.5284 145.099 59.4332 144.666 59.4618 144.133C59.4951 143.556 59.5284 142.985 59.5665 142.409C59.5998 141.838 59.6236 141.261 59.6617 140.685C59.676 140.438 59.7045 140.2 59.7664 139.966C59.8236 139.738 59.914 139.533 60.0235 139.362C60.133 139.19 60.2901 139.062 60.49 138.971C60.6852 138.895 60.9375 138.867 61.2279 138.905ZM56.0246 145.18C56.0912 144.037 56.1722 142.895 56.2483 141.747C56.3245 140.604 56.3864 139.457 56.4721 138.314C57.3766 138.452 58.2954 138.59 59.2094 138.709C59.1904 138.952 59.1761 139.195 59.1666 139.438C58.4858 139.352 57.8146 139.247 57.1528 139.147C57.1243 139.533 57.1005 139.919 57.0767 140.3C57.0529 140.685 57.0338 141.071 57.01 141.452C57.5861 141.547 58.1811 141.647 58.7667 141.733C58.7477 141.976 58.7334 142.219 58.7143 142.461C58.1288 142.376 57.5337 142.276 56.9577 142.176C56.9339 142.576 56.9005 142.98 56.8815 143.385C56.8624 143.785 56.8291 144.19 56.8148 144.594C57.4861 144.718 58.1669 144.842 58.8524 144.942C58.8334 145.185 58.8286 145.428 58.8095 145.671C57.8812 145.528 56.9529 145.352 56.0246 145.18ZM52.616 144.537C52.6921 143.418 52.7826 142.295 52.8635 141.176C52.9445 140.057 53.0206 138.933 53.1111 137.809C54.0156 137.948 54.9344 138.086 55.8389 138.224C55.8199 138.462 55.8056 138.7 55.7865 138.938C55.1058 138.833 54.444 138.728 53.7823 138.628C53.7585 139.005 53.7204 139.385 53.6966 139.762C53.6728 140.138 53.6443 140.514 53.6205 140.89C54.1965 140.985 54.7821 141.085 55.3676 141.185C55.3438 141.423 55.3343 141.661 55.3152 141.9C54.7202 141.8 54.1441 141.695 53.5586 141.6C53.5253 142.114 53.4872 142.628 53.4538 143.137C53.4205 143.652 53.3777 144.166 53.3491 144.675C53.0968 144.628 52.854 144.58 52.616 144.537ZM51.3401 139.409C51.3544 139.233 51.3592 139.066 51.3496 138.919C51.3354 138.767 51.2973 138.633 51.2306 138.514C51.1687 138.4 51.0926 138.3 50.9783 138.219C50.8593 138.138 50.7212 138.086 50.5403 138.052C50.3594 138.019 50.169 137.986 49.9881 137.948C49.9643 138.333 49.931 138.719 49.9024 139.1C49.8739 139.481 49.8358 139.866 49.8072 140.252C50.0071 140.295 50.2119 140.333 50.4166 140.376C50.5784 140.409 50.7165 140.409 50.8212 140.381C50.9402 140.347 51.0402 140.285 51.1069 140.2C51.1783 140.109 51.2449 140 51.2782 139.866C51.3163 139.733 51.3258 139.581 51.3401 139.409ZM51.1164 144.19C50.9974 143.671 50.8688 143.147 50.7641 142.628C50.6594 142.114 50.5403 141.595 50.4261 141.085C50.1928 141.038 49.9691 140.985 49.7453 140.938C49.712 141.419 49.6739 141.895 49.6358 142.371C49.593 142.847 49.5501 143.328 49.5168 143.804C49.274 143.747 49.0265 143.685 48.7932 143.633C48.8789 142.552 48.9693 141.466 49.0598 140.385C49.1502 139.305 49.2312 138.219 49.3264 137.138C49.7929 137.219 50.2452 137.305 50.7212 137.386C51.2306 137.476 51.5972 137.7 51.8162 138.052C52.0399 138.409 52.1209 138.909 52.0637 139.547C52.0304 139.933 51.9685 140.262 51.8305 140.533C51.7019 140.804 51.4591 140.985 51.1259 141.076C51.2449 141.623 51.3639 142.166 51.4877 142.714C51.6115 143.261 51.7305 143.814 51.8686 144.371C51.6067 144.309 51.3592 144.247 51.1164 144.19ZM45.4274 142.728C45.5226 141.69 45.6131 140.652 45.7131 139.614C45.813 138.576 45.894 137.538 45.9987 136.5C46.9032 136.681 47.8077 136.867 48.7027 137.024C48.6837 137.252 48.6694 137.476 48.6599 137.7C47.9886 137.576 47.3269 137.443 46.6604 137.305C46.6271 137.657 46.5985 138.009 46.5557 138.357C46.5176 138.705 46.5033 139.062 46.47 139.414C47.0365 139.557 47.6126 139.685 48.1981 139.809C48.1743 140.033 48.1553 140.257 48.1362 140.481C47.5507 140.357 46.9746 140.224 46.3986 140.076C46.3748 140.443 46.3319 140.809 46.2939 141.181C46.2605 141.547 46.232 141.919 46.1986 142.285C46.8699 142.48 47.5316 142.642 48.2029 142.804C48.1933 143.033 48.1791 143.257 48.16 143.48C47.2412 143.257 46.3415 142.999 45.4274 142.728ZM42.8376 138.843C42.9995 138.886 43.1709 138.928 43.328 138.966C43.5517 139.024 43.7231 139.033 43.8707 139.005C43.9992 138.976 44.104 138.905 44.1801 138.824C44.2611 138.733 44.323 138.628 44.3515 138.49C44.3801 138.352 44.4039 138.205 44.4182 138.048C44.4372 137.886 44.442 137.729 44.4372 137.576C44.4277 137.424 44.3991 137.286 44.3515 137.167C44.2992 137.043 44.1944 136.938 44.0754 136.848C43.9564 136.762 43.7898 136.691 43.5851 136.648C43.4042 136.61 43.2328 136.576 43.0662 136.538C43.0233 136.919 42.9947 137.31 42.9567 137.69C42.9186 138.076 42.8805 138.462 42.8376 138.843ZM43.7041 136.038C44.023 136.105 44.2754 136.195 44.4801 136.319C44.68 136.438 44.8276 136.595 44.9371 136.776C45.0418 136.952 45.1037 137.167 45.1275 137.4C45.1465 137.638 45.1513 137.9 45.118 138.19C45.0894 138.448 45.0561 138.686 44.999 138.9C44.9371 139.119 44.8276 139.281 44.6895 139.424C44.561 139.557 44.3801 139.647 44.1563 139.685C43.9231 139.724 43.6469 139.695 43.3042 139.605C43.1233 139.557 42.9519 139.514 42.7805 139.466C42.7377 139.866 42.7043 140.262 42.6615 140.662C42.6187 141.062 42.5853 141.457 42.5472 141.857C42.3092 141.785 42.0759 141.714 41.8332 141.642C41.9379 140.666 42.0331 139.69 42.1331 138.709C42.233 137.733 42.3235 136.757 42.4235 135.776C42.8519 135.862 43.2756 135.948 43.7041 136.038ZM76.5952 3.68533C75.2385 6.77072 73.2676 9.68471 69.9351 10.6798C67.5024 11.4036 65.0364 10.9131 62.7275 9.94182C63.5749 12.2035 64.2033 14.4604 64.5318 16.9221C66.0028 16.3412 67.6024 15.9698 69.1353 15.6698C71.5252 15.2032 73.9483 14.9127 76.3763 14.7128C79.2707 14.4747 82.1747 14.3699 85.0787 14.3699C87.9827 14.3699 90.8866 14.4747 93.7811 14.7128C96.2043 14.9127 98.6322 15.2032 101.022 15.6698C102.512 15.9602 104.055 16.3174 105.492 16.8697C105.726 14.4652 106.335 12.2654 107.244 10.1085C104.969 10.9941 102.569 11.4179 100.289 10.7036C97.0802 9.69423 95.2379 6.77072 93.9763 3.72818C92.8575 5.01853 91.6293 6.24221 90.3201 7.16592C88.7539 8.27533 87.0924 8.92764 85.1549 8.89431C83.2506 8.86098 81.632 8.18486 80.1086 7.07069C78.8375 6.14222 77.6664 4.9471 76.5952 3.68533ZM111.605 5.74226C108.477 10.8417 107.035 14.8461 107.235 19.9455C106.768 19.5075 106.178 19.1742 105.621 18.9171C104.112 18.2219 102.293 17.7886 100.665 17.4696C98.3513 17.0173 95.9758 16.7364 93.624 16.5411C90.7819 16.3078 87.9255 16.2031 85.0739 16.2031C82.2223 16.2031 79.3659 16.3078 76.5238 16.5411C74.1721 16.7364 71.8013 17.0173 69.4829 17.4696C67.8547 17.7886 66.0362 18.2172 64.5271 18.9171C63.9796 19.1694 63.3988 19.5027 62.9322 19.9265C62.7656 14.6651 61.2565 10.6989 58.9286 5.77083C64.1557 9.10382 66.974 9.64185 69.4115 8.91812C71.9013 8.17534 73.9674 6.06127 76.0382 0C80.1086 5.528 82.6317 7.00879 85.1691 7.05165C87.7399 7.0945 90.3344 5.63751 94.5761 0.0285685C96.5708 6.11841 98.437 8.19439 100.827 8.94669C103.25 9.70375 106.211 9.08477 111.605 5.74226ZM106.473 22.2263V23.4499C103.236 21.5835 94.8713 20.255 85.0692 20.255C75.2623 20.255 66.9026 21.5835 63.6654 23.4499V22.2263C63.6654 19.8265 73.2485 17.8743 85.0692 17.8743C96.8898 17.8743 106.473 19.8217 106.473 22.2263ZM85.0692 28.2875C73.6389 28.2875 64.3747 26.9448 64.3747 25.2926C64.3747 23.6404 73.6389 22.2977 85.0692 22.2977C96.4994 22.2977 105.764 23.6404 105.764 25.2926C105.764 26.9448 96.4994 28.2875 85.0692 28.2875ZM61.0851 95.3044C63.2131 93.4331 65.5696 92.6761 69.5114 92.6761H77.6711V100.837C77.6711 104.78 76.9142 107.136 75.0433 109.265C78.3281 109.546 81.3844 109.098 84.2741 108.098V86.072H62.2515C61.2565 88.9622 60.8042 92.019 61.0851 95.3044ZM86.2926 62.0269V84.0532H108.315C109.315 81.163 109.767 78.1062 109.482 74.8208C107.354 76.692 104.997 77.4491 101.055 77.4491H92.8956V69.288C92.8956 65.3456 93.6526 62.9887 95.5235 60.8603C92.2434 60.5794 89.1823 61.027 86.2926 62.0269ZM39.9479 97.8422C38.7054 98.7992 37.3962 100.09 36.6536 101.651C35.7443 103.551 36.1632 106.446 36.725 108.674C37.4343 107.917 38.196 107.16 38.834 106.651C39.4195 106.179 39.9194 105.518 40.2621 104.713C40.5954 103.927 40.7811 103.008 40.7477 102.004C40.7239 101.251 40.5287 100.437 40.3336 99.6325C40.1955 99.0373 40.0527 98.4469 39.9479 97.8422Z" fill="#E1E7E9"/>
</svg>
