<svg width="430" height="391" viewBox="0 0 430 391" fill="none" xmlns="http://www.w3.org/2000/svg">
<path d="M50.242 280.706C45.873 280.429 41.4317 281.729 37.7849 283.282C38.9885 284.245 40.1078 285.28 41.2392 286.316C42.7918 287.748 44.3564 289.193 45.9813 290.168C48.1598 291.468 50.3984 292.191 52.5408 292.419C54.7313 292.66 56.8135 292.371 58.5828 291.649C60.5085 290.866 63.1083 290.12 65.6478 289.494C61.4353 285.509 55.5618 281.043 50.242 280.706ZM47.8348 95.8278C47.4737 104.002 50.6873 112.249 53.7685 118.172C55.5618 115.234 57.8005 112.73 60.0512 110.202C62.1213 107.867 64.2156 105.519 65.708 102.919C67.706 99.4274 68.7892 95.876 69.0901 92.5172C69.403 88.9778 68.8734 85.6311 67.6458 82.7659C66.0932 79.1422 64.6007 73.7128 63.4694 69.102C57.1385 75.5427 48.2561 86.233 47.8348 95.8278ZM117.907 77.8782C123.48 70.4142 125.598 60.5425 126.381 53.1869C122.782 54.9204 119.015 55.8715 115.223 56.8346C111.926 57.6652 108.592 58.508 105.619 59.9646C101.671 61.8908 98.4816 64.4791 96.0985 67.3925C93.6071 70.4383 92.0063 73.8332 91.3564 77.1799C90.5019 81.5741 88.3715 87.7499 86.506 92.7098C96.1707 90.8318 111.408 86.5942 117.907 77.8782ZM106.124 121.615C110.289 114.969 111.528 106.602 111.769 100.15C108.893 101.715 105.86 102.75 102.802 103.785C99.9379 104.761 97.0373 105.748 94.5459 107.241C91.224 109.215 88.6122 111.695 86.7587 114.404C84.8209 117.221 83.6775 120.29 83.3405 123.264C82.9313 127.02 81.6314 132.245 80.3917 136.651C88.7928 134.207 101.226 129.44 106.124 121.615ZM30.0218 263.382C36.7378 264.887 44.0074 263.599 49.5559 261.949C47.5219 260.023 45.8248 257.856 44.1037 255.677C42.3826 253.486 40.6494 251.283 38.6394 249.61C35.9554 247.371 33.0548 245.89 30.1662 245.107C27.1572 244.289 24.2084 244.229 21.5846 244.843C18.3711 245.589 13.7734 246.046 9.69322 246.335C14.4113 252.8 22.0661 261.6 30.0218 263.382ZM16.4092 199.192C21.8976 203.827 29.2635 206.102 35.149 207.222C34.1741 204.441 33.6325 201.6 33.0909 198.734C32.5613 195.941 32.0317 193.124 30.9846 190.596C29.6005 187.262 27.6387 184.517 25.388 182.434C23.0169 180.243 20.3449 178.774 17.673 178.088C14.315 177.221 9.80154 175.416 5.91397 173.718C7.11755 181.868 9.9219 193.702 16.4092 199.192ZM22.8003 149.653C26.76 156.816 33.813 162.161 39.5421 165.592C39.5421 162.149 40.1319 158.838 40.7337 155.504H40.7577C41.3114 152.434 41.865 149.328 41.7687 146.318C41.6484 142.357 40.6975 138.77 39.181 135.7C37.5923 132.486 35.3897 129.909 32.8863 128.14C29.6366 125.84 25.5203 122 22.1503 118.665C20.1283 127.465 18.1544 141.226 22.8123 149.641V149.653H22.8003ZM92.5118 198.253C94.907 190.765 94.0404 182.338 92.6803 176.029C90.2732 178.257 87.6012 180.014 84.8932 181.772L84.9052 181.784C82.3416 183.457 79.7659 185.143 77.7559 187.153C75.0238 189.886 73.1221 192.932 71.9787 196.026C70.7871 199.252 70.4261 202.515 70.8473 205.476C71.3769 209.22 71.413 214.577 71.3047 219.152C78.8632 214.722 89.7075 207.029 92.5118 198.253ZM90.0324 310.429C90.0324 303.23 115.115 311.693 126.068 308.118V308.021C126.044 305.144 126.092 303.724 124.9 302.544C122.77 300.425 118.244 300.028 113.49 300.028C107.027 300.028 99.7213 301.015 93.5951 302.857C85.4949 305.289 78.7428 307.311 71.6778 308.527C64.4924 309.755 57.1626 310.116 48.1718 309.129C42.9844 308.563 35.8471 307.058 29.7449 304.073C30.792 305.758 32.0077 307.395 33.3677 308.973C38.1098 314.438 44.4407 318.929 51.0604 321.228C54.2258 322.335 57.4394 322.913 60.5206 322.853L70.3779 322.636L64.8174 330.799C60.7011 336.842 53.4315 343.223 45.6082 347.135C41.3234 349.278 36.81 350.735 32.4771 351.072L32.3687 351.084C35.3175 352.155 38.5792 352.709 41.7808 352.805C42.527 352.829 43.2732 352.829 44.0194 352.793C49.7004 352.589 55.5979 351.662 61.1224 350.434C68.8253 348.724 75.8181 346.425 80.5602 344.643C84.9533 342.994 88.6243 341.814 92.3072 341.056L90.7185 316.208L90.0324 310.429ZM379.663 280.706C374.343 281.043 368.482 285.509 364.257 289.494C366.797 290.132 369.396 290.878 371.322 291.649C373.091 292.371 375.174 292.66 377.364 292.419C379.506 292.191 381.745 291.468 383.924 290.168C385.548 289.193 387.113 287.748 388.666 286.316C389.797 285.28 390.916 284.233 392.12 283.282C388.473 281.729 384.032 280.429 379.663 280.706ZM382.082 95.8278C381.661 86.233 372.778 75.5427 366.46 69.0899C365.328 73.7008 363.824 79.1422 362.283 82.7538C361.056 85.619 360.526 88.9658 360.839 92.5052C361.14 95.864 362.223 99.4154 364.221 102.907C365.701 105.507 367.808 107.854 369.878 110.19C372.128 112.718 374.355 115.234 376.16 118.16C379.242 112.249 382.443 104.002 382.082 95.8278ZM312.009 77.8782C318.509 86.5821 333.746 90.8198 343.399 92.7098C341.533 87.7499 339.403 81.5741 338.548 77.1799C337.899 73.8211 336.298 70.4383 333.806 67.3925C331.423 64.4791 328.234 61.9029 324.286 59.9646C321.301 58.508 317.979 57.6652 314.681 56.8346C310.89 55.8835 307.135 54.9325 303.524 53.1869C304.319 60.5425 306.437 70.4142 312.009 77.8782ZM323.793 121.615C328.691 129.44 341.112 134.219 349.525 136.651C348.285 132.233 346.998 127.02 346.576 123.264C346.251 120.278 345.108 117.221 343.158 114.404C341.293 111.695 338.693 109.215 335.371 107.241C332.88 105.76 329.979 104.773 327.114 103.785C324.057 102.738 321.024 101.703 318.148 100.15C318.388 106.602 319.628 114.969 323.793 121.615ZM399.883 263.382C407.839 261.588 415.506 252.8 420.212 246.323C416.132 246.046 411.522 245.577 408.32 244.83C405.696 244.229 402.748 244.289 399.739 245.095C396.85 245.878 393.937 247.359 391.265 249.598C389.255 251.283 387.522 253.486 385.801 255.665C384.092 257.844 382.383 260.011 380.349 261.937C385.897 263.599 393.167 264.899 399.883 263.382ZM413.496 199.192C419.995 193.702 422.799 181.868 423.991 173.706C420.103 175.403 415.602 177.209 412.232 178.076C409.56 178.762 406.888 180.231 404.517 182.422C402.254 184.505 400.304 187.25 398.92 190.584C397.873 193.1 397.344 195.929 396.814 198.722C396.272 201.588 395.731 204.429 394.756 207.21C400.653 206.102 408.019 203.827 413.496 199.192ZM407.117 149.653V149.629C411.775 141.214 409.801 127.465 407.779 118.653C404.409 121.988 400.292 125.816 397.043 128.128C394.539 129.897 392.349 132.474 390.748 135.688C389.219 138.758 388.281 142.345 388.16 146.306C388.064 149.316 388.63 152.422 389.171 155.492H389.195C389.785 158.826 390.387 162.137 390.387 165.58C396.104 162.161 403.157 156.816 407.117 149.653ZM337.393 198.253C340.197 207.029 351.054 214.722 358.6 219.164C358.492 214.589 358.528 209.232 359.058 205.488C359.479 202.527 359.118 199.264 357.926 196.038C356.783 192.944 354.881 189.898 352.149 187.165C350.139 185.155 347.563 183.469 345 181.796L345.012 181.784C342.304 180.014 339.632 178.269 337.225 176.042C335.864 182.338 334.998 190.765 337.393 198.253ZM339.884 310.429L339.186 316.184L337.598 341.032C341.281 341.778 344.952 342.97 349.345 344.619C354.099 346.401 361.08 348.7 368.783 350.41C374.307 351.638 380.204 352.565 385.885 352.769C386.632 352.793 387.378 352.805 388.124 352.781C391.326 352.685 394.587 352.119 397.536 351.06L397.428 351.048C393.083 350.711 388.581 349.254 384.297 347.111C376.461 343.198 369.204 336.818 365.087 330.775L359.527 322.612L369.384 322.829C372.465 322.901 375.667 322.311 378.844 321.204C385.464 318.904 391.807 314.414 396.537 308.948C397.897 307.371 399.125 305.734 400.16 304.049C394.058 307.046 386.933 308.539 381.745 309.105C372.742 310.092 365.424 309.731 358.239 308.503C351.174 307.287 344.422 305.265 336.322 302.833C330.196 300.991 322.89 300.004 316.427 300.004C311.672 300.004 307.147 300.401 305.017 302.52C303.837 303.7 303.885 305.12 303.849 307.997V308.094C314.802 311.705 339.884 303.23 339.884 310.429ZM329.582 247.383C329.329 248.912 328.968 250.404 328.607 251.909C328.113 253.944 327.62 256.002 327.56 257.904C327.488 260.445 327.945 262.768 328.787 264.754C329.654 266.789 330.918 268.462 332.398 269.654C334.011 270.942 335.937 272.857 337.73 274.771C339.15 269.137 340.209 261.817 337.911 257.014C336.021 253.065 332.723 249.815 329.582 247.383ZM209.332 346.714L214.989 349.302L220.645 346.714C260.364 328.559 301.406 304.157 308.062 256.135C310.252 240.256 308.772 224.858 306.798 209.064C302.453 174.308 304.451 163.425 317.149 144.416C303.44 135.989 297.759 126.96 293.715 101.968C230.984 91.8069 199.005 91.8069 136.262 101.968C132.218 126.96 132.856 132.173 113.839 146.162C123.757 166.88 127.368 175.68 123.191 209.052C121.217 224.834 119.737 240.244 121.927 256.123C128.607 304.542 169.65 328.391 209.332 346.714ZM182.841 339.202C171.226 332.797 160.009 325.466 150.188 316.737C133.193 301.641 120.423 282.451 116.884 256.833C115.741 248.575 115.56 240.448 115.91 232.346C116.271 224.22 117.137 216.359 118.124 208.45C120.146 192.27 120.303 182.169 118.786 173.778C117.282 165.46 114.02 158.357 109.242 148.377L107.424 144.584L110.818 142.092C126.645 130.451 127.428 125.455 130.353 106.807C130.677 104.748 131.014 102.569 131.243 101.197L131.833 97.5614L135.468 96.9715C167.158 91.831 191.085 89.2668 214.989 89.2668C238.892 89.2668 262.819 91.831 294.509 96.9715L298.144 97.5614L298.734 101.197C300.648 113.067 302.91 121.049 306.22 126.924C309.374 132.486 313.67 136.326 319.809 140.106L324.31 142.875L321.361 147.281C315.428 156.166 311.997 163.088 310.589 171.684C309.145 180.544 309.723 191.559 311.841 208.474C312.828 216.383 313.694 224.244 314.056 232.37C314.417 240.473 314.224 248.599 313.081 256.857C309.542 282.475 296.772 301.665 279.777 316.762C269.956 325.49 258.751 332.821 247.136 339.226C261.002 338.455 274.301 337.179 286.289 335.397C290.525 333.279 294.642 330.991 298.65 328.523C298.698 319.494 298.746 308.985 298.782 303.254C298.794 302.086 298.89 301.376 298.987 300.871C299.059 300.509 299.023 300.329 299.384 299.739C302.766 294.033 321.229 293.695 335.443 297.367C337.477 295.044 339.439 292.66 341.329 290.216C338.609 287.134 336.803 283.643 335.648 280.044C333.59 277.756 331.146 275.192 329.221 273.651C325.116 270.365 322.288 264.658 322.481 257.796C322.685 250.934 326.717 245.119 323.72 237.872C323.72 237.872 337.321 244.048 342.496 254.871C346.396 263.033 342.893 275.987 340.944 281.849C341.738 283.547 342.737 285.184 343.977 286.701C348.996 279.851 353.473 272.604 357.372 264.983C356.47 259.325 352.919 243.133 341.172 235.573C339.872 237.078 337.935 238.005 335.804 237.956C332.001 237.872 328.98 234.718 329.076 230.914C329.161 227.11 332.314 224.088 336.117 224.184C339.921 224.268 342.942 227.423 342.845 231.227C342.833 231.552 342.809 231.865 342.761 232.178C353.425 238.799 358.095 251.512 360.057 259.494C363.739 251.548 366.797 243.253 369.144 234.658C365.196 232.334 362.151 229.18 359.816 225.701C352.125 221.536 336.394 211.772 332.567 199.83C327.463 183.855 335.383 164.508 335.395 164.508C339.295 174.765 348.984 176.824 355.772 183.626C362.56 190.416 365.136 198.951 364.113 206.235C363.427 211.158 363.655 219.309 363.872 224.076C365.581 226.459 367.687 228.614 370.275 230.324C373.248 218.129 374.824 205.404 374.824 192.294C374.824 190.079 374.776 187.851 374.68 185.648C371.406 178.979 362.488 163.69 347.888 159.308C346.937 161.378 345.096 163.028 342.713 163.654C338.476 164.773 334.143 162.245 333.024 158.008C331.905 153.77 334.432 149.436 338.669 148.316C342.905 147.197 347.238 149.725 348.358 153.963C348.454 154.324 348.526 154.685 348.562 155.034C360.381 158.369 368.819 167.964 373.97 175.801C372.911 165.508 370.853 155.371 367.844 145.548C361.32 146.33 355.17 144.621 349.886 142.044C340.823 139.54 325.574 134.051 319.496 124.347C310.589 110.13 313.502 89.4233 313.502 89.4233C319.809 98.3921 329.714 98.0068 337.971 102.907C346.227 107.806 350.837 115.439 351.643 122.758C352.161 127.441 354.243 134.713 355.615 139.372C355.736 139.793 355.651 139.865 356.133 140.034C359.31 141.093 362.716 141.659 366.243 141.418C366.315 141.346 366.387 141.286 366.448 141.214C366.291 140.744 366.135 140.275 365.966 139.805C360.803 124.961 353.461 110.876 344.109 98.055C333.915 96.189 315.765 91.4939 307.929 80.9842C296.724 65.9719 298.072 42.6651 298.072 42.6651C305.907 52.0793 316.884 50.731 326.525 55.4381C336.153 60.1452 341.931 68.2232 343.555 76.277C344.518 81.0684 346.673 89.339 348.959 93.071C349.525 93.998 349.766 94.8888 350.428 95.8038C359.058 107.927 365.978 121.085 371.057 134.917C372.61 131.823 373.452 128.489 373.838 125.202C371.081 117.196 363.956 112.754 359.804 105.507C354.905 96.9354 354.64 87.786 357.613 80.8277C360.586 73.8693 363.463 59.3747 363.463 59.3627C363.463 59.3627 386.415 78.444 387.173 95.6713C387.811 109.973 378.074 125.142 378.134 125.046C377.629 130.21 376.136 135.543 372.899 140.226C376.57 151.338 379.061 162.847 380.313 174.537C382.07 173.176 383.575 171.599 384.85 169.89C386.427 161.824 382.84 154.432 383.081 146.258C383.382 136.386 387.944 128.441 394.118 124.071C400.292 119.701 410.318 108.83 410.318 108.83C410.318 108.83 419.911 137.084 411.558 152.181C406.142 161.956 395.827 168.626 389.231 172.117C387.763 172.887 388.112 172.755 387.017 174.031C385.272 176.078 383.201 177.932 380.77 179.461C381.107 183.722 381.276 188.02 381.276 192.318C381.276 198.819 380.903 205.235 380.18 211.544C382.864 211.411 385.416 210.857 387.799 209.991C392.048 203.49 391.302 195.809 394.238 188.718C397.729 180.327 404.252 174.982 410.992 173.249C417.732 171.515 429.925 165.447 429.925 165.447C429.925 165.447 428.914 192.908 416.793 203.153C409.837 209.027 400.353 211.556 393.54 212.639C389.388 214.806 384.706 216.239 379.555 216.335C378.7 222.246 377.533 228.061 376.076 233.755C382.961 227.435 393.588 220.055 405.985 219.682C406.106 219.393 406.238 219.116 406.395 218.827C408.549 215.011 413.375 213.662 417.191 215.805C421.006 217.96 422.354 222.788 420.212 226.604C418.057 230.42 413.231 231.769 409.415 229.626C407.225 228.398 405.853 226.279 405.48 223.98C390.712 224.738 378.592 236.692 373.609 242.387C371.755 248.274 369.577 254.028 367.109 259.614C369.107 260.372 371.129 260.854 373.164 261.095C379.555 257.351 382.359 250.513 388.016 245.782C394.804 240.099 402.856 238.414 409.476 239.955C416.083 241.496 429.359 241.737 429.359 241.737C429.359 241.737 416.132 265.019 401.027 268.414C392.072 270.425 382.407 268.125 376.016 265.922C372.417 265.862 368.746 265.248 365.16 263.84C361.14 272.279 356.422 280.32 351.102 287.893C353.004 288.832 354.953 289.458 356.915 289.843C361.236 285.172 370.576 276.263 379.374 275.71C391.338 274.951 403.361 283.824 403.361 283.824C395.574 284.739 392.457 291.095 386.571 294.61C380.686 298.126 374.319 298.439 369.444 296.452C367.771 295.766 365.473 295.104 363.174 294.538C358.359 294.743 353.34 293.936 348.562 291.408C346.54 294.129 344.434 296.789 342.255 299.39C355.784 303.387 365.918 305.818 381.228 304.145C391.253 303.05 409.115 298.222 408.248 285.076C414.783 303.868 390.411 328.475 369.312 327.994C378.243 341.104 403.903 356.02 413.279 337.263C413.748 352.3 398.571 358.403 385.729 357.922C371.43 357.392 356.061 352.625 347.587 349.447C343.977 348.098 340.907 347.075 337.886 346.377C339.319 354.647 342.4 358.054 339.114 364.001C336.671 368.419 316.065 376.798 287.408 383.107C266.285 387.754 241.046 390.33 215.241 390.33C189.569 390.33 163.945 387.79 142.882 383.179C114.056 376.859 93.3062 368.444 90.8509 364.001C87.5651 358.042 90.6463 354.635 92.0785 346.377C89.0575 347.075 85.9764 348.098 82.3777 349.447C73.9044 352.625 58.5467 357.392 44.2361 357.922C31.4059 358.403 16.2166 352.3 16.686 337.263C26.062 356.02 51.7224 341.104 60.653 327.994C39.5662 328.475 15.1816 303.868 21.717 285.076C20.8384 298.234 38.7116 303.05 48.7375 304.145C64.0471 305.818 74.1813 303.387 87.7095 299.39C85.531 296.801 83.4248 294.141 81.4028 291.408C76.6245 293.924 71.6176 294.731 66.7912 294.538C64.5044 295.116 62.2056 295.778 60.5206 296.452C55.6461 298.439 49.2911 298.126 43.3936 294.61C37.508 291.095 34.3787 284.739 26.6036 283.824C26.6036 283.824 38.6274 274.951 50.591 275.71C59.3892 276.263 68.729 285.172 73.0499 289.843C75.0117 289.47 76.9615 288.832 78.8632 287.893C73.5313 280.308 68.8253 272.267 64.7933 263.84C61.2066 265.248 57.5357 265.862 53.937 265.922C47.558 268.125 37.8812 270.425 28.9385 268.414C13.8456 265.019 0.606162 241.737 0.606162 241.737C0.606162 241.737 13.8697 241.484 20.4894 239.955C27.097 238.414 35.149 240.099 41.9493 245.782C47.6061 250.513 50.4105 257.351 56.8015 261.095C58.8356 260.842 60.8696 260.372 62.8555 259.614C60.3882 254.028 58.2097 248.286 56.3562 242.387C51.3854 236.692 39.2532 224.738 24.4853 223.98C24.1122 226.279 22.7401 228.398 20.5496 229.626C16.7342 231.781 11.8958 230.42 9.7534 226.604C7.61102 222.788 8.95903 217.96 12.7744 215.805C16.5898 213.65 21.4282 215.011 23.5705 218.827C23.727 219.104 23.8594 219.393 23.9798 219.682C36.3767 220.055 46.9923 227.435 53.8888 233.755C52.4325 228.061 51.265 222.246 50.4105 216.335C45.2471 216.239 40.5651 214.806 36.4128 212.639C29.6005 211.556 20.1163 209.027 13.1595 203.153C1.02741 192.908 0.0284424 165.447 0.0284424 165.447C0.0284424 165.447 12.2207 171.515 18.9608 173.249C25.7009 174.982 32.2243 180.327 35.7147 188.718C38.6635 195.809 37.9052 203.49 42.1539 209.991C44.537 210.857 47.0765 211.411 49.7726 211.544C49.0504 205.235 48.6773 198.819 48.6773 192.318C48.6773 188.02 48.8458 183.722 49.1708 179.461C46.7275 177.92 44.8258 175.909 42.9121 174.019C41.6002 172.719 41.5641 172.586 39.9754 171.72C33.3677 168.132 23.5946 161.595 18.3831 152.181C10.0302 137.096 19.6228 108.83 19.6228 108.83C19.6228 108.83 29.6246 119.628 35.799 123.998C41.9733 128.368 46.5349 136.314 46.8358 146.186C47.0886 154.372 43.4899 161.752 45.0666 169.818C46.3544 171.527 47.8468 173.104 49.6041 174.464C50.8678 162.775 53.3592 151.266 57.0181 140.154C53.7925 135.471 52.3001 130.138 51.7826 124.973C51.8427 125.07 42.1057 109.901 42.7436 95.5991C43.5139 78.3718 66.4542 59.3025 66.4542 59.2905C66.4542 59.2905 69.3188 73.7971 72.3037 80.7554C75.2765 87.7138 75.0117 96.8632 70.1131 105.435C65.9608 112.682 58.8356 117.136 56.0793 125.13C56.4645 128.429 57.307 131.751 58.8596 134.845C63.9989 120.856 71.064 107.554 79.814 95.2981C80.3436 94.5517 80.464 94.2989 80.7889 93.4562C82.7508 88.424 85.4227 81.0805 86.3615 76.2048C87.9262 68.1389 93.7515 60.073 103.392 55.3659C113.021 50.6587 123.998 52.0071 131.845 42.5928C131.845 42.5928 133.193 65.8997 121.988 80.9119C114.152 91.4217 96.0022 96.1047 85.8079 97.9828C76.456 110.804 69.1142 124.889 63.9508 139.733C63.7943 140.202 63.6258 140.672 63.4694 141.141C63.5416 141.214 63.6018 141.274 63.674 141.346C67.2005 141.599 70.6066 141.021 73.7841 139.962C74.2655 139.805 74.1813 139.721 74.3016 139.299C75.6737 134.641 77.7559 127.369 78.2734 122.686C79.0798 115.367 83.6896 107.746 91.9462 102.834C100.203 97.9226 110.096 98.3198 116.415 89.351C116.415 89.351 119.316 110.058 110.421 124.275C104.343 133.99 89.0937 139.468 80.0307 141.972C74.7469 144.56 68.5966 146.258 62.0732 145.475C59.0763 155.299 57.0181 165.423 55.947 175.729C61.0983 167.879 69.5234 158.297 81.3546 154.962C81.4028 154.601 81.4629 154.239 81.5592 153.89C82.6786 149.653 87.0115 147.137 91.2481 148.244C95.4847 149.364 98.0122 153.698 96.8929 157.935C95.7736 162.173 91.4406 164.701 87.204 163.581C84.8209 162.955 82.9795 161.306 82.0286 159.236C67.4292 163.606 58.5106 178.907 55.2368 185.576C55.1406 187.791 55.1044 190.006 55.1044 192.221C55.1044 205.332 56.6811 218.069 59.654 230.252C62.2417 228.542 64.3359 226.387 66.0571 224.004C66.2857 219.236 66.5144 211.086 65.8163 206.162C64.7933 198.867 67.369 190.343 74.1572 183.554C80.9454 176.764 90.6342 174.693 94.5339 164.436C94.5339 164.448 102.465 183.782 97.3623 199.758C93.5349 211.712 77.804 221.475 70.1252 225.629C67.7902 229.12 64.7451 232.274 60.7974 234.586C63.1564 243.181 66.2015 251.476 69.8845 259.421C71.8343 251.428 76.5042 238.715 87.18 232.106C87.1318 231.793 87.0957 231.48 87.0957 231.155C87.0115 227.35 90.0204 224.196 93.8237 224.112C97.6271 224.028 100.78 227.037 100.865 230.842C100.949 234.646 97.94 237.8 94.1367 237.884C91.9943 237.932 90.0686 237.005 88.7687 235.501C77.0217 243.061 73.4711 259.253 72.5685 264.911C76.456 272.519 80.9454 279.779 85.9643 286.629C87.204 285.1 88.203 283.475 89.0094 281.777C87.0596 275.914 83.5572 262.961 87.4568 254.799C92.6202 243.976 106.221 237.8 106.233 237.8C103.236 245.047 107.268 250.874 107.472 257.724C107.677 264.586 104.837 270.292 100.732 273.579C98.8186 275.12 96.3633 277.684 94.3052 279.971C93.1497 283.571 91.3444 287.062 88.6243 290.144C90.5139 292.588 92.4757 294.972 94.5098 297.295C107.581 293.924 124.226 293.936 129.462 298.391C131.64 300.245 131.171 303.375 131.183 305.939C131.219 311.91 131.267 320.722 131.303 328.451C135.311 330.919 139.44 333.218 143.664 335.325C155.64 337.155 168.951 338.431 182.841 339.202ZM207.213 351.325C202.664 349.242 198.066 347.075 193.493 344.776C173.742 344.065 154.677 342.368 138.308 339.683C121.097 336.854 106.738 332.749 97.266 327.295C97.5067 330.486 97.6872 333.965 97.7595 337.613C97.8919 345.281 96.5198 350.121 95.4365 353.973C94.582 357.007 93.9922 359.114 95.2921 361.473C97.1697 364.88 116.403 372.067 143.736 378.075C164.522 382.649 189.846 385.153 215.229 385.153C240.601 385.153 265.419 382.637 286.205 378.075C313.538 372.067 332.759 364.88 334.649 361.473C335.949 359.114 335.359 357.019 334.492 353.973C333.409 350.121 332.037 345.281 332.169 337.613C332.23 333.965 332.422 330.486 332.663 327.295C323.191 332.737 308.82 336.854 291.621 339.671C275.264 342.356 256.211 344.053 236.485 344.764C231.911 347.051 227.313 349.23 222.764 351.313L217.107 353.901L215.001 354.864L212.894 353.901L207.213 351.325ZM239.084 234.321L234.198 239.208V243.651L243.526 234.321H239.084ZM249.218 234.321L234.198 249.345V253.787L253.66 234.321H249.218ZM238.832 254.847L234.342 259.337C234.438 260.746 234.595 262.07 234.8 263.322L239.638 258.482C239.144 257.375 238.856 256.159 238.832 254.847ZM249.844 243.831L246.835 246.841C247.774 246.913 248.617 247.118 249.387 247.431C249.399 246.263 249.555 245.047 249.844 243.831ZM259.208 234.465L259.148 234.525C259.834 235.284 260.472 236.139 261.062 237.054L263.192 234.923C261.94 234.718 260.616 234.562 259.208 234.465ZM242.045 261.757L235.931 267.872C236.304 268.968 236.737 270.003 237.243 271.003L244.645 263.599C243.694 263.093 242.815 262.479 242.045 261.757ZM267.754 236.042L262.975 240.822C263.421 241.941 263.77 243.085 264.011 244.229L270.883 237.354C269.884 236.861 268.849 236.415 267.754 236.042ZM249.917 314.703L285.952 278.659C282.726 284.57 278.742 289.939 274.205 294.851L268.62 300.437C262.903 305.722 256.56 310.429 249.917 314.703ZM227.06 327.416L292.499 261.949C291.946 264.128 291.296 266.259 290.562 268.33L236.184 322.709C233.163 324.358 230.106 325.923 227.06 327.416ZM150.368 114.68L148.117 116.932C148.25 116.282 148.382 115.631 148.478 114.981C149.116 114.885 149.742 114.777 150.368 114.68ZM162.247 112.935L138.465 136.723C139.03 136.061 139.56 135.387 140.065 134.725C142.136 131.992 143.989 128.754 145.47 125.274L157.072 113.669C158.793 113.416 160.514 113.176 162.247 112.935ZM190.833 195.821H186.391L195.719 186.491V190.933L190.833 195.821ZM180.698 195.821H176.257L195.719 176.355V180.797L180.698 195.821ZM181.649 184.733C181.168 184.336 180.747 183.963 180.373 183.542C181.084 183.012 181.565 182.205 181.673 181.278C181.709 181.266 181.758 181.266 181.794 181.254C186.668 180.05 191.085 176.33 191.085 170.949V170.853L195.105 166.832C195.31 168.084 195.466 169.408 195.563 170.817L181.649 184.733ZM170.709 195.677C169.3 195.58 167.977 195.424 166.725 195.219L169.349 192.595C169.806 193.606 170.396 194.569 171.07 195.315L170.709 195.677ZM189.966 166.29C189.424 165.363 188.69 164.605 187.763 164.051L192.686 159.127C193.192 160.126 193.625 161.162 193.998 162.257L189.966 166.29ZM162.163 194.1C161.068 193.726 160.021 193.293 159.034 192.787L163.174 188.646C163.583 189.344 164.294 189.814 165.148 189.91C165.521 189.946 165.906 189.97 166.316 189.958L162.163 194.1ZM139.066 172.213L202.182 109.082C203.735 108.998 205.276 108.938 206.828 108.878L139.512 176.21C139.391 174.874 139.247 173.537 139.066 172.213ZM137.357 163.798L191.326 109.817C192.469 109.72 193.625 109.636 194.768 109.552L196.128 109.456L138.2 167.398C137.935 166.194 137.658 164.99 137.357 163.798ZM134.974 156.045L180.193 110.828C181.83 110.659 183.467 110.503 185.104 110.359L136.094 159.38C135.745 158.248 135.371 157.141 134.974 156.045ZM131.941 148.93L168.771 112.092C170.456 111.887 172.129 111.683 173.814 111.502L133.349 151.976C132.904 150.941 132.435 149.93 131.941 148.93ZM270.955 247.419L294.245 224.124C294.124 222.776 293.992 221.427 293.847 220.079L276.335 237.595C276.299 238.703 276.239 239.822 276.143 240.954C275.565 240.448 274.987 239.979 274.397 239.533L267.116 246.817C267.332 246.805 267.549 246.793 267.778 246.793C268.993 246.805 270.053 247.022 270.955 247.419ZM274.891 253.619L294.882 233.622C294.822 232.214 294.75 230.805 294.654 229.409L273.904 250.164C274.458 251.163 274.783 252.331 274.891 253.619ZM267.031 271.617L294.931 243.711C294.979 242.206 295.003 240.701 295.003 239.196L265.635 268.571C265.78 268.691 265.936 268.812 266.093 268.932C266.935 269.582 267.284 270.593 267.031 271.617ZM161.441 180.243C162.344 180.676 163.307 181.013 164.282 181.254C164.318 181.266 164.366 181.278 164.402 181.278C164.414 181.411 164.438 181.531 164.462 181.652L155.531 190.584C154.942 190.139 154.364 189.669 153.786 189.164C153.69 190.295 153.63 191.415 153.594 192.522L137.49 208.63C137.706 206.957 137.923 205.259 138.14 203.538L161.441 180.243ZM156.121 175.428C156.627 176.355 157.289 177.197 158.059 177.932L138.874 197.121C139.042 195.496 139.199 193.859 139.331 192.221L156.121 175.428ZM136.996 212.519H139.295L153.714 198.084C153.81 199.433 153.967 200.769 154.159 202.081L143.736 212.507H149.429L155.086 206.848C155.363 208.028 155.676 209.184 156.037 210.34L153.871 212.507H212.413V153.951L210.246 156.118C209.091 155.768 207.923 155.455 206.756 155.166L212.413 149.508V143.814L201.99 154.239C200.666 154.047 199.342 153.89 197.994 153.794L212.425 139.372V133.677L192.445 153.662C191.338 153.686 190.219 153.758 189.087 153.854C189.593 154.432 190.062 155.01 190.508 155.6L182.985 163.124C182.095 163.208 181.288 163.413 180.554 163.714C180.542 162.931 180.47 162.137 180.337 161.342L212.425 129.247V123.553L179.074 156.912C178.652 155.889 178.159 154.878 177.605 153.939L212.425 119.111V113.416L175.186 150.652C175.102 150.556 175.018 150.471 174.933 150.387C174.416 149.857 173.778 149.581 173.044 149.581C172.297 149.581 171.66 149.845 171.154 150.387C168.819 152.807 166.966 156.274 166.087 159.753L162.741 163.1C162.548 163.088 162.356 163.088 162.151 163.088C157.373 163.088 155.014 166.435 154.99 170.865L139.692 186.166C139.74 184.661 139.765 183.156 139.753 181.664L212.425 108.974V108.733H212.461H212.497H212.533H212.569H212.605H212.642C213.424 108.721 214.194 108.721 214.977 108.721C221.717 108.721 228.469 109.046 235.197 109.54C250.446 110.647 266.201 112.489 281.475 114.969C282.642 122.205 285.892 129.416 289.9 134.713C292.584 138.264 296.194 141.924 300.202 144.873C295.701 152.482 292.848 161.258 291.248 170.034C288.865 183.108 291.127 197.88 292.776 210.966C293.053 213.181 293.318 215.384 293.571 217.599H290.622L276.191 232.021C276.094 230.673 275.938 229.337 275.745 228.025L286.168 217.599H280.476L274.819 223.257C274.542 222.077 274.229 220.91 273.868 219.766L276.022 217.611H217.48V276.167L219.634 274.012C220.79 274.361 221.957 274.674 223.125 274.963L217.468 280.621V286.316L227.891 275.89C229.215 276.083 230.539 276.239 231.887 276.336L217.468 290.77V296.464L237.447 276.468C238.555 276.444 239.674 276.372 240.805 276.276C240.3 275.698 239.831 275.12 239.385 274.53L248.328 265.585C248.532 266.259 248.954 266.849 249.507 267.259C248.99 267.848 248.364 268.354 247.63 268.932C246.787 269.594 246.438 270.629 246.703 271.653L217.468 300.895V306.589L250.398 273.651C251.036 273.627 251.698 273.543 252.3 273.422C252.312 273.47 252.312 273.519 252.324 273.567C252.432 274.229 252.625 274.915 252.877 275.613L217.468 311.031V316.725L255.02 279.165C255.513 279.658 256.139 279.911 256.849 279.911C257.619 279.911 258.281 279.61 258.799 279.044C260.075 277.624 261.074 275.433 261.375 273.579C261.387 273.531 261.387 273.483 261.399 273.434C262.482 273.639 263.71 273.735 264.745 273.627C264.853 273.615 264.961 273.591 265.07 273.567L217.48 321.168V326.862L294.521 249.802C294.389 251.211 294.232 252.62 294.028 254.028C293.992 254.305 293.944 254.582 293.908 254.859L217.48 331.304V331.99C216.637 332.376 215.795 332.773 214.952 333.158C181.421 317.821 141.738 296.428 135.877 254.028C133.975 240.099 135.299 226.339 136.996 212.519ZM254.755 178.365C254.598 176.848 254.189 174.031 253.142 171.852C251.626 168.71 249.892 165.724 245.993 165.724C242.093 165.724 241.455 168.782 241.455 170.937C241.455 175.223 245.307 177.835 248.749 178.69C247.798 177.835 246.21 174.91 247.846 174.236C249.64 173.501 251.674 176.475 252.396 178.365H254.755ZM255.622 178.365H256.885H258.149C258.378 171.274 261.772 170.383 261.772 163.955C261.772 157.297 256.897 152.229 256.897 152.229C256.897 152.229 252.023 157.297 252.023 163.955C251.999 170.395 255.393 171.274 255.622 178.365ZM256.885 193.57C256.885 193.57 258.438 191.824 258.811 189.453C259.184 187.069 258.739 185.071 258.739 185.071C258.739 185.071 259.69 186.624 261.423 187.033C263.156 187.454 264.492 187.298 264.492 187.298C262.41 185.672 261.29 184.481 260.508 182.302H256.897H253.287C252.504 184.481 251.385 185.672 249.303 187.298C249.303 187.298 250.627 187.454 252.372 187.033C254.117 186.611 255.056 185.071 255.056 185.071C255.056 185.071 254.598 187.081 254.984 189.453C255.333 191.824 256.885 193.57 256.885 193.57ZM256.885 179.087H251.517C251.156 179.087 250.855 179.388 250.855 179.749V180.917C250.855 181.278 251.156 181.579 251.517 181.579H256.885H262.253C262.614 181.579 262.915 181.278 262.915 180.917V179.749C262.915 179.388 262.614 179.087 262.253 179.087H256.885ZM259.004 178.365H261.363C262.097 176.475 264.131 173.501 265.912 174.236C267.549 174.91 265.948 177.835 265.009 178.69C268.452 177.835 272.303 175.223 272.303 170.937C272.303 168.77 271.665 165.724 267.766 165.724C263.866 165.724 262.133 168.71 260.616 171.852C259.581 174.031 259.16 176.848 259.004 178.365ZM170.901 262.07C170.745 260.553 170.336 257.736 169.288 255.557C167.772 252.415 166.039 249.429 162.139 249.429C158.24 249.429 157.602 252.487 157.602 254.654C157.602 258.94 161.453 261.552 164.895 262.407C163.945 261.552 162.344 258.627 163.993 257.953C165.786 257.218 167.808 260.18 168.542 262.07H170.901ZM171.768 262.07H173.032H174.295C174.524 254.979 177.918 254.088 177.918 247.66C177.918 241.002 173.044 235.934 173.044 235.934C173.044 235.934 168.169 241.002 168.169 247.66C168.157 254.088 171.551 254.979 171.768 262.07ZM173.032 277.275C173.032 277.275 174.584 275.541 174.957 273.158C175.33 270.774 174.885 268.775 174.885 268.775C174.885 268.775 175.836 270.328 177.569 270.738C179.314 271.159 180.638 271.003 180.638 271.003C178.556 269.377 177.425 268.173 176.654 266.007H173.044H169.433C168.651 268.186 167.531 269.377 165.449 271.003C165.449 271.003 166.773 271.159 168.506 270.738C170.251 270.316 171.19 268.775 171.19 268.775C171.19 268.775 170.733 270.786 171.118 273.158C171.479 275.529 173.032 277.275 173.032 277.275ZM173.032 262.78H167.664C167.303 262.78 167.002 263.081 167.002 263.442V264.61C167.002 264.971 167.303 265.272 167.664 265.272H173.032H178.4C178.761 265.272 179.062 264.971 179.062 264.61V263.442C179.062 263.081 178.761 262.78 178.4 262.78H173.032ZM175.162 262.07H177.521C178.255 260.18 180.289 257.206 182.071 257.953C183.707 258.627 182.107 261.552 181.168 262.407C184.61 261.552 188.462 258.94 188.462 254.654C188.462 252.487 187.824 249.429 183.924 249.429C180.024 249.429 178.291 252.415 176.775 255.557C175.728 257.736 175.318 260.553 175.162 262.07ZM170.901 178.365H168.554C167.82 176.475 165.798 173.501 164.005 174.236C162.368 174.91 163.969 177.835 164.907 178.69C161.465 177.835 157.614 175.223 157.614 170.937C157.614 168.77 158.252 165.724 162.151 165.724C166.051 165.724 167.784 168.71 169.3 171.852C170.336 174.031 170.757 176.848 170.901 178.365ZM171.768 178.365C171.539 171.274 168.145 170.383 168.145 163.955C168.145 157.297 173.02 152.229 173.02 152.229C173.02 152.229 177.894 157.297 177.894 163.955C177.894 170.395 174.5 171.274 174.271 178.365H173.008H171.768ZM173.032 193.57C173.032 193.57 171.479 191.824 171.106 189.453C170.733 187.069 171.178 185.071 171.178 185.071C171.178 185.071 170.227 186.624 168.494 187.033C166.761 187.454 165.437 187.298 165.437 187.298C167.519 185.672 168.639 184.481 169.421 182.302H173.032H176.642C177.425 184.481 178.544 185.672 180.626 187.298C180.626 187.298 179.302 187.454 177.557 187.033C175.824 186.611 174.873 185.071 174.873 185.071C174.873 185.071 175.33 187.081 174.945 189.453C174.584 191.824 173.032 193.57 173.032 193.57ZM173.032 179.087H178.4C178.761 179.087 179.062 179.388 179.062 179.749V180.917C179.062 181.278 178.761 181.579 178.4 181.579H173.032H167.664C167.303 181.579 167.002 181.278 167.002 180.917V179.749C167.002 179.388 167.303 179.087 167.664 179.087H173.032ZM175.162 178.365C175.318 176.848 175.728 174.031 176.775 171.852C178.291 168.71 180.024 165.724 183.924 165.724C187.824 165.724 188.462 168.782 188.462 170.937C188.462 175.223 184.61 177.835 181.168 178.69C182.119 177.835 183.719 174.91 182.071 174.236C180.277 173.501 178.243 176.475 177.521 178.365H175.162ZM254.755 262.07C254.598 260.553 254.189 257.736 253.142 255.557C251.626 252.415 249.892 249.429 245.993 249.429C242.093 249.429 241.455 252.487 241.455 254.654C241.455 258.94 245.307 261.552 248.749 262.407C247.798 261.552 246.21 258.627 247.846 257.953C249.64 257.218 251.674 260.18 252.396 262.07H254.755ZM255.622 262.07C255.393 254.979 251.999 254.088 251.999 247.66C251.999 241.002 256.873 235.934 256.873 235.934C256.873 235.934 261.748 241.002 261.748 247.66C261.748 254.1 258.354 254.979 258.125 262.07H256.861H255.622ZM256.885 277.275C256.885 277.275 258.438 275.541 258.811 273.158C259.184 270.774 258.739 268.775 258.739 268.775C258.739 268.775 259.69 270.328 261.423 270.738C263.156 271.159 264.492 271.003 264.492 271.003C262.41 269.377 261.29 268.173 260.508 266.007H256.897H253.287C252.504 268.186 251.385 269.377 249.303 271.003C249.303 271.003 250.627 271.159 252.372 270.738C254.117 270.316 255.056 268.775 255.056 268.775C255.056 268.775 254.598 270.786 254.984 273.158C255.333 275.529 256.885 277.275 256.885 277.275ZM256.885 262.78H262.253C262.614 262.78 262.915 263.081 262.915 263.442V264.61C262.915 264.971 262.614 265.272 262.253 265.272H256.885H251.517C251.156 265.272 250.855 264.971 250.855 264.61V263.442C250.855 263.081 251.156 262.78 251.517 262.78H256.885ZM259.004 262.07C259.16 260.553 259.569 257.736 260.616 255.557C262.133 252.415 263.866 249.429 267.766 249.429C271.665 249.429 272.303 252.487 272.303 254.654C272.303 258.94 268.452 261.552 265.009 262.407C265.96 261.552 267.549 258.627 265.912 257.953C264.119 257.218 262.085 260.18 261.363 262.07H259.004ZM129.751 144.897C130.629 144.247 131.496 143.573 132.326 142.863L129.943 145.247L129.751 144.897ZM315.909 360.618C315.608 358.054 315.331 355.478 315.055 352.914C314.778 350.349 314.465 347.773 314.188 345.197C316.475 344.715 318.713 344.234 321 343.752C321.06 344.258 321.133 344.764 321.169 345.257C319.496 345.642 317.823 346.028 316.138 346.401C316.246 347.243 316.318 348.098 316.415 348.941C316.511 349.784 316.631 350.626 316.691 351.469C318.148 351.06 319.58 350.662 321.048 350.253C321.109 350.759 321.181 351.264 321.217 351.77C319.761 352.203 318.316 352.625 316.86 353.058C316.968 353.949 317.064 354.828 317.161 355.707C317.257 356.586 317.353 357.476 317.486 358.355C319.135 357.777 320.82 357.187 322.493 356.598C322.541 357.103 322.601 357.609 322.673 358.102C320.435 358.957 318.172 359.788 315.909 360.618ZM308.074 363.026C307.797 360.329 307.532 357.621 307.243 354.924C306.966 352.228 306.678 349.519 306.413 346.81C307.003 346.702 307.604 346.593 308.218 346.461C308.483 348.857 308.724 351.252 308.952 353.648C309.193 356.044 309.458 358.439 309.711 360.823C311.251 360.39 312.828 359.956 314.393 359.475C314.441 360.029 314.501 360.57 314.573 361.112C312.407 361.786 310.252 362.412 308.074 363.026ZM303.705 364.266C303.428 361.485 303.163 358.704 302.874 355.935C302.597 353.154 302.333 350.374 302.068 347.605C302.658 347.496 303.259 347.388 303.873 347.268C304.138 350.012 304.427 352.757 304.704 355.514C304.981 358.259 305.269 361.004 305.534 363.749C304.92 363.917 304.306 364.098 303.705 364.266ZM298.301 352.793C298.228 351.927 297.976 351.301 297.566 350.903C297.157 350.518 296.543 350.386 295.701 350.554C295.292 350.638 294.846 350.711 294.461 350.783C294.521 351.686 294.63 352.601 294.702 353.504C294.774 354.407 294.858 355.309 294.943 356.224C295.352 356.152 295.749 356.068 296.182 355.984C297.025 355.815 297.591 355.454 297.964 354.912C298.265 354.37 298.373 353.672 298.301 352.793ZM299.107 360.029C299.023 359.114 298.794 358.427 298.433 358.006C298.06 357.561 297.386 357.452 296.435 357.645C295.978 357.741 295.544 357.825 295.087 357.91C295.195 358.969 295.256 360.041 295.364 361.112C295.472 362.171 295.556 363.243 295.641 364.302C296.122 364.206 296.579 364.098 297.073 363.989C297.59 363.881 297.976 363.7 298.289 363.436C298.602 363.183 298.782 362.87 298.902 362.533C299.023 362.171 299.107 361.798 299.119 361.365C299.143 360.944 299.155 360.498 299.107 360.029ZM298.698 356.357C299.42 356.441 299.95 356.802 300.262 357.428C300.599 358.066 300.804 358.873 300.888 359.848C301.057 361.582 300.84 362.918 300.214 363.857C299.576 364.796 298.577 365.422 297.121 365.747C296.062 365.988 295.015 366.216 293.968 366.445C293.703 363.58 293.45 360.715 293.209 357.862C292.969 354.996 292.704 352.143 292.451 349.266C293.607 349.097 294.714 348.929 295.869 348.712C297.241 348.459 298.252 348.664 298.914 349.338C299.552 350 299.901 351.048 300.046 352.468C300.142 353.359 300.082 354.093 299.889 354.647C299.697 355.225 299.3 355.755 298.698 356.248C298.698 356.297 298.698 356.333 298.698 356.357ZM286.903 353.744C286.77 355.129 286.662 356.513 286.554 357.898C286.397 359.294 286.253 360.703 286.096 362.111C287.095 361.943 288.082 361.774 289.105 361.618C288.708 360.293 288.347 358.957 287.998 357.633C287.649 356.333 287.324 355.033 286.999 353.732C286.951 353.732 286.927 353.732 286.903 353.744ZM290.67 367.119C290.297 365.879 289.936 364.627 289.587 363.375C288.371 363.58 287.167 363.785 285.952 363.989C285.795 365.326 285.675 366.662 285.555 367.998C284.929 368.107 284.339 368.215 283.725 368.311C284.074 365.302 284.447 362.28 284.772 359.27C285.097 356.272 285.47 353.263 285.819 350.277C286.409 350.193 286.975 350.097 287.565 350.012C288.347 352.817 289.189 355.622 290.02 358.427C290.85 361.22 291.657 364.013 292.523 366.77C291.885 366.903 291.272 367.011 290.67 367.119ZM279.308 356.706C278.959 357.982 278.61 359.258 278.261 360.534C277.804 362.039 277.322 363.544 276.865 365.049C276.588 365.085 276.275 365.121 275.998 365.157C275.348 363.797 274.674 362.436 274.036 361.064C273.519 359.896 272.989 358.728 272.472 357.561C272.424 357.561 272.412 357.573 272.387 357.573C272.544 359.631 272.664 361.678 272.797 363.724C272.929 365.771 273.061 367.83 273.206 369.876C272.592 369.96 271.942 370.045 271.328 370.117C271.136 367.155 270.931 364.194 270.739 361.232C270.558 358.271 270.365 355.309 270.173 352.336C270.787 352.252 271.437 352.179 272.026 352.107C272.424 352.998 272.833 353.877 273.206 354.756C273.579 355.634 273.964 356.525 274.337 357.392C274.963 358.777 275.529 360.161 276.143 361.533C276.167 361.533 276.203 361.521 276.227 361.521C276.624 359.98 277.009 358.415 277.467 356.874C277.683 355.935 277.948 354.996 278.189 354.069C278.429 353.142 278.694 352.191 278.947 351.252C279.561 351.168 280.211 351.096 280.837 351.012C281.077 353.949 281.294 356.874 281.511 359.8C281.727 362.725 281.944 365.651 282.185 368.576C281.559 368.684 280.921 368.793 280.307 368.901C280.151 366.867 280.006 364.82 279.85 362.785C279.693 360.751 279.549 358.704 279.416 356.67C279.392 356.694 279.356 356.694 279.308 356.706ZM266.839 370.707C266.67 367.721 266.49 364.736 266.321 361.762C266.153 358.777 265.948 355.803 265.78 352.817C266.37 352.757 266.995 352.697 267.609 352.637C267.802 355.61 267.994 358.584 268.175 361.557C268.355 364.531 268.548 367.505 268.741 370.466C268.103 370.55 267.453 370.635 266.839 370.707ZM261.724 355.081C261.88 357.765 262.025 360.438 262.181 363.11C262.338 365.783 262.482 368.456 262.638 371.128C261.988 371.188 261.351 371.249 260.749 371.309C260.592 368.636 260.484 365.952 260.34 363.279C260.183 360.606 260.039 357.934 259.906 355.249C258.943 355.333 258.041 355.418 257.126 355.502C257.102 354.876 257.066 354.25 257.042 353.624C259.473 353.383 261.94 353.154 264.42 352.938C264.444 353.564 264.48 354.19 264.528 354.816C263.553 354.912 262.638 354.996 261.724 355.081ZM256.849 366.758C256.897 367.529 256.837 368.239 256.741 368.865C256.645 369.503 256.464 370.057 256.151 370.526C255.874 370.996 255.477 371.381 254.996 371.67C254.49 371.959 253.888 372.139 253.166 372.212C252.492 372.272 251.927 372.224 251.385 372.043C250.879 371.875 250.494 371.598 250.145 371.249C249.796 370.899 249.543 370.478 249.363 369.985C249.182 369.503 249.098 368.961 249.086 368.371C249.7 368.203 250.326 368.022 250.94 367.842C250.94 368.191 251.012 368.504 251.096 368.805C251.168 369.106 251.289 369.371 251.445 369.599C251.614 369.84 251.83 370.009 252.095 370.129C252.36 370.249 252.685 370.285 253.058 370.249C253.563 370.201 253.924 370.081 254.189 369.9C254.466 369.708 254.683 369.467 254.803 369.178C254.923 368.889 255.008 368.54 255.02 368.155C255.032 367.781 255.008 367.372 254.996 366.963C254.984 366.433 254.911 366.012 254.827 365.663C254.743 365.338 254.683 365.037 254.502 364.808C254.31 364.567 254.081 364.375 253.78 364.206C253.491 364.037 253.106 363.869 252.589 363.676C251.806 363.375 251.168 363.062 250.675 362.701C250.217 362.376 249.82 361.991 249.568 361.606C249.303 361.208 249.122 360.787 249.026 360.342C248.93 359.884 248.845 359.378 248.833 358.837C248.821 358.151 248.857 357.512 248.99 356.923C249.122 356.333 249.339 355.803 249.64 355.37C249.953 354.912 250.338 354.575 250.819 354.31C251.301 354.045 251.866 353.889 252.492 353.853C253.214 353.805 253.804 353.889 254.298 354.106C254.803 354.31 255.188 354.587 255.489 354.948C255.814 355.297 256.019 355.719 256.163 356.164C256.308 356.622 256.404 357.067 256.428 357.512C255.814 357.741 255.188 357.982 254.574 358.199C254.55 357.392 254.394 356.766 254.069 356.357C253.732 355.923 253.214 355.755 252.456 355.803C252.059 355.827 251.734 355.935 251.493 356.128C251.253 356.321 251.096 356.561 250.976 356.826C250.843 357.103 250.747 357.404 250.711 357.741C250.675 358.078 250.675 358.391 250.687 358.704C250.699 359.09 250.723 359.415 250.771 359.704C250.831 359.992 250.952 360.245 251.144 360.486C251.337 360.727 251.602 360.956 251.927 361.172C252.3 361.389 252.793 361.606 253.407 361.81C254.129 362.063 254.731 362.34 255.152 362.641C255.609 362.93 255.934 363.279 256.175 363.676C256.416 364.062 256.584 364.519 256.681 365.025C256.741 365.518 256.813 366.096 256.849 366.758ZM240.962 372.802C240.854 369.792 240.745 366.794 240.661 363.785C240.577 360.775 240.468 357.777 240.36 354.768C242.683 354.635 245.042 354.491 247.365 354.334C247.389 354.96 247.413 355.598 247.425 356.224C245.704 356.345 243.983 356.441 242.274 356.561C242.322 357.573 242.346 358.572 242.382 359.583C242.418 360.594 242.466 361.594 242.49 362.593C243.995 362.496 245.487 362.412 246.992 362.304C247.016 362.93 247.052 363.568 247.052 364.194C245.548 364.29 244.055 364.387 242.551 364.483C242.599 365.542 242.623 366.59 242.659 367.649C242.695 368.696 242.719 369.744 242.767 370.803C244.537 370.695 246.27 370.586 248.039 370.478C248.039 371.104 248.087 371.742 248.099 372.368C245.728 372.513 243.357 372.645 240.962 372.802ZM234.499 358.704C234.282 360.113 234.101 361.533 233.909 362.942C233.692 364.362 233.452 365.783 233.235 367.204C234.234 367.167 235.257 367.131 236.304 367.107C235.979 365.687 235.678 364.266 235.389 362.846C235.088 361.461 234.824 360.077 234.583 358.704C234.547 358.692 234.523 358.704 234.499 358.704ZM237.616 373.006C237.291 371.67 236.99 370.334 236.701 368.997C235.462 369.034 234.222 369.07 232.982 369.106C232.79 370.454 232.573 371.802 232.368 373.151C231.754 373.163 231.153 373.187 230.539 373.199C231.044 370.165 231.562 367.143 232.067 364.11C232.573 361.076 233.09 358.042 233.608 355.008C234.15 354.984 234.739 354.96 235.329 354.948C236.003 357.946 236.689 360.943 237.375 363.941C238.061 366.927 238.747 369.912 239.445 372.886C238.832 372.922 238.218 372.97 237.616 373.006ZM222.342 361.016C222.367 363.086 222.403 365.157 222.427 367.228C222.451 369.298 222.487 371.369 222.535 373.44C221.885 373.44 221.247 373.428 220.621 373.428C220.561 370.406 220.537 367.384 220.489 364.362C220.441 361.341 220.405 358.307 220.381 355.285C220.946 355.285 221.536 355.273 222.138 355.273C222.728 356.802 223.317 358.331 223.919 359.86C224.509 361.377 225.111 362.906 225.7 364.423C226.074 365.518 226.507 366.602 226.916 367.697C226.94 367.685 226.988 367.685 227.024 367.673C226.964 365.602 226.94 363.532 226.892 361.461C226.844 359.391 226.808 357.32 226.76 355.249C227.373 355.237 227.975 355.225 228.613 355.201C228.673 358.211 228.733 361.22 228.806 364.23C228.878 367.24 228.938 370.249 229.022 373.259C228.433 373.271 227.831 373.295 227.241 373.307C226.627 371.814 226.013 370.31 225.412 368.805C224.81 367.312 224.232 365.795 223.63 364.29C223.173 363.195 222.788 362.111 222.391 361.028C222.379 361.016 222.354 361.016 222.342 361.016ZM216.156 373.416C216.108 370.406 216.096 367.384 216.072 364.375C216.048 361.365 215.988 358.343 215.988 355.333C216.601 355.333 217.227 355.321 217.853 355.321C217.877 358.343 217.925 361.353 217.961 364.375C217.998 367.396 218.022 370.406 218.07 373.428C217.42 373.416 216.794 373.416 216.156 373.416ZM207.213 357.115C207.189 359.824 207.201 362.533 207.213 365.253C207.225 367.962 207.189 370.671 207.213 373.391C206.588 373.367 205.974 373.355 205.348 373.319C205.348 370.611 205.372 367.902 205.372 365.205C205.372 362.496 205.372 359.788 205.396 357.079C204.457 357.055 203.518 357.043 202.568 357.019C202.592 356.381 202.568 355.755 202.592 355.117C205.071 355.165 207.514 355.213 210.006 355.249C210.006 355.887 210.006 356.513 210.006 357.151C209.067 357.151 208.128 357.127 207.213 357.115ZM201.713 368.263C201.701 369.046 201.629 369.744 201.496 370.358C201.352 370.984 201.123 371.501 200.798 371.947C200.473 372.38 200.076 372.717 199.559 372.946C199.077 373.175 198.475 373.271 197.705 373.247C197.055 373.223 196.465 373.091 195.984 372.874C195.442 372.633 195.057 372.356 194.744 371.959C194.431 371.586 194.215 371.116 194.07 370.623C193.914 370.105 193.83 369.563 193.83 368.973C194.479 368.865 195.093 368.745 195.743 368.624C195.743 368.973 195.767 369.298 195.827 369.599C195.888 369.912 196.008 370.177 196.152 370.43C196.297 370.683 196.477 370.887 196.742 371.032C197.019 371.188 197.356 371.261 197.717 371.273C198.199 371.285 198.596 371.225 198.873 371.068C199.137 370.912 199.354 370.695 199.498 370.418C199.643 370.141 199.679 369.804 199.715 369.419C199.763 369.046 199.775 368.636 199.775 368.227C199.787 367.685 199.763 367.252 199.715 366.915C199.667 366.578 199.559 366.277 199.414 366.024C199.282 365.771 199.053 365.53 198.764 365.338C198.463 365.133 198.066 364.904 197.585 364.663C196.802 364.266 196.189 363.881 195.719 363.484C195.262 363.098 194.913 362.689 194.672 362.268C194.431 361.846 194.275 361.401 194.191 360.944C194.106 360.474 194.058 359.968 194.058 359.403C194.058 358.704 194.179 358.078 194.347 357.5C194.504 356.935 194.744 356.429 195.069 356.02C195.394 355.61 195.827 355.297 196.333 355.081C196.814 354.864 197.38 354.78 198.03 354.804C198.752 354.84 199.342 354.984 199.799 355.249C200.281 355.514 200.666 355.851 200.979 356.248C201.244 356.646 201.46 357.079 201.593 357.549C201.725 358.018 201.761 358.476 201.749 358.933C201.111 359.09 200.485 359.234 199.859 359.378C199.884 358.572 199.727 357.934 199.45 357.476C199.173 357.019 198.668 356.778 197.922 356.742C197.512 356.718 197.2 356.79 196.947 356.959C196.706 357.115 196.501 357.332 196.357 357.597C196.213 357.862 196.116 358.163 196.068 358.488C196.02 358.825 196.008 359.138 196.008 359.451C196.008 359.836 196.008 360.173 196.056 360.45C196.104 360.739 196.164 361.016 196.357 361.269C196.526 361.533 196.766 361.786 197.115 362.039C197.464 362.292 197.922 362.569 198.536 362.846C199.258 363.183 199.835 363.532 200.257 363.893C200.666 364.242 200.991 364.639 201.195 365.061C201.412 365.482 201.593 365.952 201.653 366.481C201.689 367.011 201.713 367.601 201.713 368.263ZM185.525 372.416C185.585 369.407 185.657 366.397 185.717 363.387C185.778 360.378 185.826 357.368 185.886 354.358C188.221 354.515 190.568 354.611 192.915 354.719C192.915 355.358 192.915 355.984 192.867 356.622C191.121 356.537 189.388 356.453 187.691 356.381C187.667 357.392 187.643 358.403 187.631 359.403C187.607 360.414 187.607 361.413 187.583 362.424C189.063 362.509 190.592 362.593 192.084 362.665C192.084 363.303 192.084 363.941 192.06 364.567C190.532 364.483 189.039 364.399 187.511 364.302C187.487 365.362 187.487 366.409 187.463 367.468C187.438 368.516 187.402 369.575 187.402 370.635C189.148 370.743 190.905 370.863 192.674 370.96C192.674 371.598 192.674 372.224 192.674 372.862C190.279 372.741 187.896 372.585 185.525 372.416ZM176.967 358.259C176.979 357.946 176.955 357.621 176.919 357.296C176.883 356.971 176.811 356.67 176.678 356.381C176.558 356.116 176.39 355.875 176.137 355.671C175.896 355.478 175.571 355.358 175.114 355.321C174.632 355.285 174.307 355.382 174.031 355.61C173.742 355.827 173.561 356.104 173.417 356.441C173.272 356.778 173.224 357.139 173.176 357.512C173.128 357.898 173.128 358.211 173.116 358.476C173.044 359.92 173.032 361.377 172.959 362.834C172.899 364.278 172.875 365.735 172.803 367.18C172.791 367.432 172.815 367.721 172.851 368.01C172.887 368.311 172.983 368.6 173.116 368.865C173.272 369.142 173.441 369.371 173.682 369.563C173.922 369.756 174.247 369.864 174.644 369.9C175.054 369.936 175.379 369.888 175.619 369.744C175.872 369.587 176.065 369.395 176.233 369.142C176.402 368.877 176.522 368.588 176.582 368.251C176.642 367.902 176.678 367.553 176.69 367.192C176.739 365.711 176.775 364.218 176.823 362.725C176.859 361.232 176.919 359.752 176.967 358.259ZM178.58 367.071C178.544 368.684 178.183 369.888 177.557 370.743C176.967 371.562 175.992 371.935 174.596 371.79C173.224 371.646 172.249 371.14 171.696 370.273C171.142 369.395 170.877 368.299 170.937 366.987C170.998 365.506 171.058 364.037 171.094 362.557C171.13 361.088 171.202 359.607 171.25 358.126C171.274 357.488 171.335 356.874 171.467 356.285C171.599 355.695 171.804 355.177 172.093 354.732C172.382 354.286 172.767 353.949 173.272 353.708C173.754 353.467 174.428 353.383 175.21 353.431C176.016 353.492 176.654 353.66 177.172 353.949C177.653 354.226 178.002 354.611 178.255 355.081C178.52 355.55 178.688 356.092 178.761 356.706C178.821 357.32 178.821 357.994 178.809 358.716C178.785 360.113 178.737 361.509 178.7 362.894C178.64 364.278 178.604 365.687 178.58 367.071ZM166.436 370.755C166.544 367.769 166.665 364.772 166.785 361.786C166.905 358.801 167.026 355.815 167.158 352.817C167.724 352.878 168.374 352.938 168.988 352.998C168.879 355.996 168.783 358.981 168.663 361.979C168.542 364.964 168.422 367.962 168.314 370.948C167.676 370.887 167.05 370.815 166.436 370.755ZM162.934 354.286C162.801 356.959 162.669 359.631 162.56 362.292C162.452 364.964 162.32 367.637 162.211 370.31C161.573 370.249 160.948 370.177 160.334 370.081C160.442 367.42 160.587 364.76 160.707 362.087C160.827 359.427 160.948 356.754 161.08 354.094C160.117 353.985 159.214 353.865 158.3 353.756C158.324 353.13 158.36 352.516 158.408 351.89C160.851 352.191 163.283 352.432 165.762 352.685C165.714 353.311 165.714 353.937 165.702 354.563C164.739 354.467 163.824 354.37 162.934 354.286ZM154.135 351.204C155.399 351.361 156.278 351.854 156.807 352.673C157.349 353.504 157.566 354.515 157.529 355.719C156.892 355.755 156.266 355.791 155.652 355.839C155.7 355.057 155.604 354.419 155.375 353.925C155.134 353.431 154.677 353.142 154.027 353.058C153.63 353.01 153.305 353.058 153.064 353.215C152.823 353.371 152.655 353.576 152.498 353.841C152.342 354.106 152.222 354.394 152.173 354.732C152.113 355.069 152.077 355.382 152.065 355.683C151.969 357.163 151.897 358.656 151.824 360.137C151.752 361.618 151.656 363.11 151.56 364.591C151.548 364.844 151.56 365.121 151.584 365.422C151.608 365.723 151.704 366 151.824 366.277C151.945 366.541 152.113 366.77 152.342 366.975C152.547 367.167 152.848 367.312 153.233 367.36C153.834 367.444 154.292 367.3 154.605 366.939C154.93 366.566 155.11 365.952 155.17 365.061C155.808 365.265 156.41 365.482 157.06 365.687C156.976 366.963 156.603 367.926 155.977 368.54C155.315 369.178 154.412 369.395 153.197 369.214C151.933 369.033 151.018 368.528 150.428 367.697C149.839 366.867 149.598 365.771 149.67 364.423C149.754 362.966 149.839 361.521 149.935 360.065C150.019 358.62 150.079 357.163 150.176 355.707C150.212 355.081 150.284 354.479 150.44 353.889C150.585 353.311 150.813 352.793 151.09 352.36C151.367 351.927 151.764 351.601 152.27 351.373C152.763 351.18 153.401 351.108 154.135 351.204ZM140.98 367.071C141.149 364.182 141.353 361.293 141.546 358.391C141.738 355.502 141.895 352.601 142.112 349.711C144.398 350.061 146.721 350.41 149.032 350.711C148.984 351.325 148.948 351.939 148.924 352.553C147.203 352.336 145.506 352.071 143.833 351.818C143.76 352.793 143.7 353.768 143.64 354.732C143.58 355.707 143.532 356.682 143.472 357.645C144.928 357.886 146.432 358.139 147.913 358.355C147.865 358.969 147.829 359.583 147.78 360.197C146.3 359.98 144.796 359.728 143.339 359.475C143.279 360.486 143.195 361.509 143.147 362.533C143.098 363.544 143.014 364.567 142.978 365.59C144.675 365.903 146.396 366.216 148.129 366.469C148.081 367.083 148.069 367.697 148.021 368.311C145.674 367.95 143.327 367.505 140.98 367.071ZM132.362 365.446C132.555 362.617 132.784 359.776 132.988 356.947C133.193 354.118 133.386 351.276 133.614 348.435C135.901 348.784 138.224 349.134 140.511 349.483C140.463 350.085 140.427 350.687 140.378 351.288C138.657 351.024 136.984 350.759 135.311 350.506C135.251 351.457 135.155 352.42 135.095 353.371C135.034 354.322 134.962 355.273 134.902 356.224C136.358 356.465 137.839 356.718 139.319 356.971C139.259 357.573 139.235 358.175 139.187 358.777C137.682 358.524 136.226 358.259 134.746 358.018C134.661 359.318 134.565 360.618 134.481 361.907C134.397 363.207 134.288 364.507 134.216 365.795C133.578 365.675 132.964 365.554 132.362 365.446ZM129.137 352.48C129.173 352.035 129.185 351.614 129.161 351.24C129.125 350.855 129.029 350.518 128.86 350.217C128.704 349.928 128.511 349.675 128.222 349.471C127.921 349.266 127.572 349.134 127.115 349.049C126.658 348.965 126.176 348.881 125.719 348.784C125.659 349.76 125.574 350.735 125.502 351.698C125.43 352.661 125.334 353.636 125.261 354.611C125.767 354.72 126.284 354.816 126.802 354.924C127.211 355.008 127.56 355.008 127.825 354.936C128.126 354.852 128.379 354.695 128.547 354.479C128.728 354.25 128.896 353.973 128.98 353.636C129.077 353.299 129.101 352.914 129.137 352.48ZM128.571 364.567C128.27 363.255 127.945 361.931 127.681 360.618C127.416 359.318 127.115 358.006 126.826 356.718C126.236 356.598 125.671 356.465 125.105 356.345C125.021 357.561 124.924 358.764 124.828 359.968C124.72 361.172 124.611 362.388 124.527 363.592C123.913 363.448 123.287 363.291 122.698 363.159C122.914 360.426 123.143 357.681 123.372 354.948C123.6 352.215 123.805 349.471 124.046 346.738C125.225 346.943 126.369 347.159 127.572 347.364C128.86 347.593 129.787 348.158 130.34 349.049C130.906 349.952 131.111 351.216 130.966 352.829C130.882 353.805 130.726 354.635 130.377 355.321C130.052 356.008 129.438 356.465 128.595 356.694C128.896 358.078 129.197 359.451 129.51 360.835C129.823 362.22 130.124 363.616 130.473 365.025C129.811 364.868 129.185 364.712 128.571 364.567ZM114.188 360.871C114.429 358.247 114.658 355.622 114.911 352.998C115.163 350.374 115.368 347.749 115.633 345.125C117.919 345.582 120.206 346.052 122.469 346.449C122.421 347.027 122.385 347.593 122.361 348.158C120.664 347.845 118.991 347.508 117.306 347.159C117.221 348.05 117.149 348.941 117.041 349.82C116.945 350.699 116.908 351.601 116.824 352.492C118.256 352.853 119.713 353.179 121.193 353.492C121.133 354.057 121.085 354.623 121.037 355.189C119.556 354.876 118.1 354.539 116.644 354.166C116.584 355.093 116.475 356.02 116.379 356.959C116.295 357.886 116.222 358.825 116.138 359.752C117.835 360.245 119.508 360.655 121.205 361.064C121.181 361.642 121.145 362.208 121.097 362.773C118.774 362.208 116.499 361.557 114.188 360.871ZM107.641 351.048C108.05 351.156 108.483 351.264 108.881 351.361C109.446 351.505 109.88 351.529 110.253 351.457C110.578 351.385 110.842 351.204 111.035 351C111.24 350.771 111.396 350.506 111.468 350.157C111.541 349.808 111.601 349.435 111.637 349.037C111.685 348.628 111.697 348.231 111.685 347.845C111.661 347.46 111.589 347.111 111.468 346.81C111.336 346.497 111.071 346.232 110.77 346.004C110.469 345.787 110.048 345.606 109.531 345.498C109.073 345.402 108.64 345.317 108.219 345.221C108.11 346.184 108.038 347.171 107.942 348.134C107.845 349.109 107.749 350.085 107.641 351.048ZM109.831 343.957C110.638 344.125 111.276 344.354 111.793 344.667C112.299 344.968 112.672 345.365 112.949 345.823C113.213 346.268 113.37 346.81 113.43 347.4C113.478 348.002 113.49 348.664 113.406 349.398C113.334 350.049 113.25 350.65 113.105 351.192C112.949 351.746 112.672 352.155 112.323 352.516C111.998 352.854 111.54 353.082 110.975 353.179C110.385 353.275 109.687 353.203 108.82 352.974C108.363 352.854 107.93 352.745 107.496 352.625C107.388 353.636 107.304 354.635 107.196 355.646C107.087 356.658 107.003 357.657 106.907 358.668C106.305 358.488 105.715 358.307 105.101 358.126C105.366 355.659 105.607 353.191 105.86 350.711C106.112 348.243 106.341 345.775 106.594 343.295C107.677 343.512 108.748 343.728 109.831 343.957ZM192.987 9.31793C189.557 17.119 184.574 24.4867 176.149 27.0027C169.999 28.8326 163.764 27.5926 157.927 25.1367C160.069 30.8551 161.658 36.5615 162.488 42.7854C166.207 41.3167 170.251 40.3777 174.127 39.6193C180.169 38.4395 186.295 37.7051 192.433 37.1995C199.751 36.5976 207.093 36.3327 214.435 36.3327C221.777 36.3327 229.119 36.5976 236.436 37.1995C242.563 37.7051 248.701 38.4395 254.743 39.6193C258.51 40.3536 262.41 41.2565 266.045 42.653C266.634 36.5735 268.175 31.0116 270.474 25.5581C264.721 27.7973 258.655 28.8687 252.889 27.0629C244.777 24.5107 240.119 17.119 236.93 9.42628C234.101 12.6888 230.996 15.7827 227.686 18.1182C223.727 20.9232 219.526 22.5725 214.627 22.4882C209.813 22.404 205.721 20.6945 201.869 17.8774C198.656 15.5299 195.695 12.5082 192.987 9.31793ZM281.499 14.5186C273.591 27.4121 269.944 37.5366 270.45 50.43C269.27 49.3224 267.778 48.4797 266.37 47.8296C262.554 46.072 257.956 44.9765 253.84 44.1699C247.991 43.0262 241.985 42.3159 236.039 41.8224C228.854 41.2325 221.632 40.9676 214.423 40.9676C207.213 40.9676 199.992 41.2325 192.806 41.8224C186.861 42.3159 180.867 43.0262 175.005 44.1699C170.889 44.9765 166.292 46.06 162.476 47.8296C161.092 48.4677 159.624 49.3104 158.444 50.3818C158.023 37.0791 154.208 27.0509 148.322 14.5909C161.537 23.0179 168.663 24.3783 174.825 22.5484C181.12 20.6704 186.343 15.3252 191.579 0C201.869 13.9769 208.248 17.7209 214.664 17.8293C221.163 17.9376 227.722 14.2538 238.446 0.072232C243.489 15.4697 248.207 20.7186 254.249 22.6207C260.376 24.5348 267.862 22.9698 281.499 14.5186ZM268.524 56.1965V59.2905C260.34 54.5713 239.193 51.2125 214.411 51.2125C189.617 51.2125 168.482 54.5713 160.298 59.2905V56.1965C160.298 50.129 184.526 45.1932 214.411 45.1932C244.296 45.1932 268.524 50.117 268.524 56.1965ZM214.411 71.5218C185.513 71.5218 162.091 68.1269 162.091 63.9494C162.091 59.772 185.513 56.3771 214.411 56.3771C243.309 56.3771 266.731 59.772 266.731 63.9494C266.731 68.1269 243.309 71.5218 214.411 71.5218ZM153.774 240.966C159.154 236.235 165.112 234.321 175.078 234.321H195.707V254.955C195.707 264.923 193.793 270.882 189.063 276.263C197.368 276.974 205.095 275.842 212.401 273.314V217.623H156.723C154.208 224.931 153.064 232.659 153.774 240.966ZM217.504 156.828V212.519H273.182C275.709 205.211 276.853 197.482 276.131 189.176C270.751 193.907 264.793 195.821 254.827 195.821H234.198V175.187C234.198 165.219 236.111 159.26 240.842 153.878C232.549 153.168 224.81 154.3 217.504 156.828ZM100.335 247.383C97.1938 249.802 93.8839 253.065 92.0063 257.014C89.7075 261.817 90.7666 269.137 92.1869 274.771C93.9802 272.857 95.9059 270.942 97.5187 269.654C98.9992 268.462 100.263 266.789 101.129 264.754C101.972 262.768 102.441 260.445 102.357 257.904C102.297 256.002 101.804 253.944 101.31 251.909C100.961 250.404 100.6 248.912 100.335 247.383Z" fill="#00A0E3"/>
</svg>
